<svg xmlns="http://www.w3.org/2000/svg" xmlns:xlink="http://www.w3.org/1999/xlink" width="619.264" height="413.833" viewBox="0 0 619.264 413.833">
  <defs>
    <linearGradient id="linear-gradient" x1="0.5" y1="1.237" x2="0.5" y2="-0.802" gradientUnits="objectBoundingBox">
      <stop offset="0" stop-color="#ef4b6a"/>
      <stop offset="0.994" stop-color="#f69aac"/>
    </linearGradient>
    <linearGradient id="linear-gradient-2" x1="0.5" y1="1.372" x2="0.5" y2="-0.837" xlink:href="#linear-gradient"/>
    <linearGradient id="linear-gradient-3" x1="0.446" y1="0.087" x2="0.526" y2="0.703" gradientUnits="objectBoundingBox">
      <stop offset="0" stop-color="#4015a5"/>
      <stop offset="1" stop-color="#8ebaf5"/>
    </linearGradient>
    <linearGradient id="linear-gradient-4" x1="0.448" y1="-0.171" x2="0.56" y2="0.929" xlink:href="#linear-gradient-3"/>
    <linearGradient id="linear-gradient-5" x1="0.5" y1="1.232" x2="0.5" y2="-0.064" gradientUnits="objectBoundingBox">
      <stop offset="0.006" stop-color="#f69aac"/>
      <stop offset="1" stop-color="#ef4b6a"/>
    </linearGradient>
    <linearGradient id="linear-gradient-6" x1="1.011" y1="0.015" x2="1.011" y2="0.829" xlink:href="#linear-gradient-3"/>
    <linearGradient id="linear-gradient-7" x1="5.44" y1="1.443" x2="5.44" y2="-0.638" gradientUnits="objectBoundingBox">
      <stop offset="0" stop-color="#1c3922"/>
      <stop offset="0.992" stop-color="#52723d"/>
    </linearGradient>
    <linearGradient id="linear-gradient-8" x1="-0.566" y1="1.492" x2="-0.566" y2="-0.658" xlink:href="#linear-gradient-7"/>
    <linearGradient id="linear-gradient-9" x1="0.993" y1="0.999" x2="0.993" y2="0.055" xlink:href="#linear-gradient-7"/>
    <linearGradient id="linear-gradient-10" x1="0.542" y1="-0.022" x2="0.272" y2="0.689" xlink:href="#linear-gradient-7"/>
    <linearGradient id="linear-gradient-11" x1="0.567" y1="0.182" x2="0.391" y2="1.514" xlink:href="#linear-gradient-3"/>
    <linearGradient id="linear-gradient-12" x1="0.533" y1="0.191" x2="0.385" y2="2.084" xlink:href="#linear-gradient-3"/>
    <linearGradient id="linear-gradient-13" x1="0.5" y1="1.012" x2="0.5" y2="-0.094" xlink:href="#linear-gradient-3"/>
    <linearGradient id="linear-gradient-14" x1="0.204" y1="0.999" x2="0.204" y2="0.055" gradientUnits="objectBoundingBox">
      <stop offset="0" stop-color="#8ebaf5"/>
      <stop offset="1" stop-color="#4015a5"/>
    </linearGradient>
    <linearGradient id="linear-gradient-15" x1="0.22" y1="0.911" x2="0.22" y2="-0.247" xlink:href="#linear-gradient"/>
    <linearGradient id="linear-gradient-16" x1="0.5" y1="-0.118" x2="0.5" y2="0.558" xlink:href="#linear-gradient-3"/>
    <linearGradient id="linear-gradient-17" x1="0.5" y1="-0.501" x2="0.5" y2="0.706" xlink:href="#linear-gradient-3"/>
    <linearGradient id="linear-gradient-18" x1="0.5" y1="0.913" x2="0.5" y2="-0.019" xlink:href="#linear-gradient-7"/>
    <linearGradient id="linear-gradient-19" x1="0.206" y1="1.409" x2="0.206" y2="0.027" xlink:href="#linear-gradient-3"/>
    <linearGradient id="linear-gradient-20" x1="0.205" y1="1.378" x2="0.205" y2="-0.032" xlink:href="#linear-gradient-3"/>
    <linearGradient id="linear-gradient-21" x1="0.391" y1="0.75" x2="0.391" y2="0.071" xlink:href="#linear-gradient-3"/>
    <linearGradient id="linear-gradient-22" x1="0.538" y1="-0.083" x2="0.317" y2="0.746" xlink:href="#linear-gradient-7"/>
    <linearGradient id="linear-gradient-23" x1="0.608" y1="-0.26" x2="0.101" y2="1.088" xlink:href="#linear-gradient-7"/>
    <linearGradient id="linear-gradient-24" x1="0.5" y1="1.438" x2="0.5" y2="-0.353" xlink:href="#linear-gradient"/>
  </defs>
  <g id="Group_80" data-name="Group 80" transform="translate(-65.368 -43.084)">
    <g id="BACKGROUND">
      <g id="Group_2" data-name="Group 2">
        <path id="Path_1" data-name="Path 1" d="M666.25,319.934a87.7,87.7,0,0,1-3.181,23.5,85.878,85.878,0,0,1-5.82,15.334,88.1,88.1,0,0,1-79.085,49.249H576.8a6.667,6.667,0,0,0-6.082,9.446,27.473,27.473,0,0,1,2.6,11.679A27.451,27.451,0,0,1,545.863,456.6h-325.7a27.469,27.469,0,0,1-24.857-39.136,6.454,6.454,0,0,0,.638-2.775,6.718,6.718,0,0,0-6.719-6.671,88.088,88.088,0,0,1-68.479-143.494,99.163,99.163,0,0,0,22.1-64.389c-.019-.522-.019-1.054-.019-1.566,0-1.277.029-2.543.1-3.8a74.964,74.964,0,0,1,74.841-71.157,5.664,5.664,0,0,0,5.182-8.024,23.386,23.386,0,0,1,21.144-33.3h277.1A23.36,23.36,0,0,1,542.334,115.6a5.664,5.664,0,0,0,5.182,8.015h1.16a74.962,74.962,0,0,1,74.937,74.957v.444c-.135,23.552,7.4,46.63,22.421,64.777a87.643,87.643,0,0,1,20.216,56.142Z" fill="#c9cbea"/>
        <path id="Path_2" data-name="Path 2" d="M663.069,343.437a85.878,85.878,0,0,1-5.82,15.334,88.1,88.1,0,0,1-79.085,49.249H576.8a6.667,6.667,0,0,0-6.082,9.446,27.473,27.473,0,0,1,2.6,11.679A27.451,27.451,0,0,1,545.863,456.6h-325.7a27.469,27.469,0,0,1-24.857-39.136,6.454,6.454,0,0,0,.638-2.775,6.718,6.718,0,0,0-6.719-6.671,88.088,88.088,0,0,1-68.479-143.494,99.163,99.163,0,0,0,22.1-64.389c-.019-.522-.019-1.054-.019-1.566,0-1.277.029-2.543.1-3.8,7.464-2.62,14.86-5.917,21.4-7.647,46.289-12.258,94.549-25.853,142.825-18.484,3.935.6,7.971,1.39,11.293,3.611a9.744,9.744,0,0,1,3.151,13.318c-1.722,2.956-4.574,5.083-7.547,6.774-12.364,7.035-27.892,7.928-39.031,16.775-3,2.385-5.789,6.011-4.836,9.725.7,2.734,3.327,4.635,6.069,5.3a23.61,23.61,0,0,0,8.42,0c16.74-2.024,33.439-4.286,50.291-5.145,17.289-.881,34.173,1.454,51.326,1.454,8.4,1.024,18.092,3.607,21.235,11.462,4.24,10.6-5.427,21.883-.706,32.55,2.788,6.3,9.843,9.569,16.6,10.933,16.08,3.247,32.746-.855,48.882-1.669,14.982-.756,29.962-1.908,44.96-2.388,33.078-1.059,66.7.4,98.443,10.57,7.958,2.551,16.257,6.031,20.828,13.027,7.48,11.449-.5,24.3,8.993,34.3C646.838,330.631,663.057,343.48,663.069,343.437Z" fill="#c9cbea" opacity="0.5" style="mix-blend-mode: multiply;isolation: isolate"/>
        <g id="Group_1" data-name="Group 1">
          <circle id="Ellipse_1" data-name="Ellipse 1" cx="8.45" cy="8.45" r="8.45" transform="translate(635.84 184.003) rotate(-76.718)" fill="#c9cbea"/>
          <circle id="Ellipse_2" data-name="Ellipse 2" cx="8.45" cy="8.45" r="8.45" transform="translate(69.768 351.935) rotate(-76.718)" fill="#c9cbea"/>
          <path id="Path_3" data-name="Path 3" d="M594.379,124.586a2.068,2.068,0,1,1-2.068-2.067A2.068,2.068,0,0,1,594.379,124.586Z" fill="#c9cbea"/>
          <path id="Path_4" data-name="Path 4" d="M562.557,106.877a2.337,2.337,0,1,1-2.337-2.337A2.337,2.337,0,0,1,562.557,106.877Z" fill="#c9cbea"/>
          <path id="Path_5" data-name="Path 5" d="M97.659,258.7a2.067,2.067,0,1,1-2.067-2.067A2.068,2.068,0,0,1,97.659,258.7Z" fill="#c9cbea"/>
          <path id="Path_6" data-name="Path 6" d="M658.881,204.661a2.068,2.068,0,1,1-2.068-2.068A2.067,2.067,0,0,1,658.881,204.661Z" fill="#c9cbea"/>
          <path id="Path_7" data-name="Path 7" d="M90.278,323.258a2.338,2.338,0,1,1-2.337-2.338A2.338,2.338,0,0,1,90.278,323.258Z" fill="#c9cbea"/>
          <path id="Path_8" data-name="Path 8" d="M109.064,385.014a2.337,2.337,0,1,1-2.337-2.337A2.337,2.337,0,0,1,109.064,385.014Z" fill="#c9cbea"/>
          <path id="Path_9" data-name="Path 9" d="M596.963,418.218a2.337,2.337,0,1,1-2.337-2.337A2.337,2.337,0,0,1,596.963,418.218Z" fill="#c9cbea"/>
          <circle id="Ellipse_3" data-name="Ellipse 3" cx="7.371" cy="7.371" r="7.371" transform="translate(648.456 238.456) rotate(-45)" fill="#c9cbea"/>
          <circle id="Ellipse_4" data-name="Ellipse 4" cx="7.371" cy="7.371" r="7.371" transform="translate(601.408 422.553)" fill="#c9cbea"/>
          <path id="Path_10" data-name="Path 10" d="M613.112,95.729a9.582,9.582,0,0,0-3.127.53,13.737,13.737,0,0,0-25.712.122,9.6,9.6,0,1,0-3.458,18.553h32.3a9.6,9.6,0,0,0,0-19.205Z" fill="#c9cbea"/>
          <path id="Path_11" data-name="Path 11" d="M191.238,86.712a16.394,16.394,0,0,0-5.358.91,23.541,23.541,0,0,0-44.062.208,16.45,16.45,0,1,0-5.927,31.793h55.347a16.456,16.456,0,1,0,0-32.911Z" fill="#c9cbea"/>
          <path id="Path_12" data-name="Path 12" d="M139.422,426.524a9.572,9.572,0,0,0-3.126.53,13.737,13.737,0,0,0-25.712.122,9.6,9.6,0,1,0-3.459,18.553h32.3a9.6,9.6,0,1,0,0-19.205Z" fill="#c9cbea"/>
          <path id="Path_13" data-name="Path 13" d="M675.029,398.087a9.571,9.571,0,0,0-3.126.531,13.737,13.737,0,0,0-25.712.122,9.6,9.6,0,1,0-3.459,18.552h32.3a9.6,9.6,0,1,0,0-19.2Z" fill="#c9cbea"/>
          <path id="Path_14" data-name="Path 14" d="M89.067,281.252a5.392,5.392,0,0,0-1.768.3,7.769,7.769,0,0,0-14.543.068A5.43,5.43,0,1,0,70.8,292.115H89.067a5.431,5.431,0,1,0,0-10.863Z" fill="#c9cbea"/>
        </g>
      </g>
    </g>
    <g id="OBJECTS">
      <ellipse id="Ellipse_5" data-name="Ellipse 5" cx="35.411" cy="8.439" rx="35.411" ry="8.439" transform="translate(215.641 368.288)" fill="#c9cbea" style="mix-blend-mode: multiply;isolation: isolate"/>
      <g id="Group_13" data-name="Group 13">
        <path id="Path_15" data-name="Path 15" d="M195.581,231.924c0,3.053-10.386,5.528-23.2,5.528s-23.2-2.475-23.2-5.528,10.385-5.528,23.2-5.528S195.581,228.871,195.581,231.924Z" fill="#c9cbea" style="mix-blend-mode: multiply;isolation: isolate"/>
        <g id="Group_12" data-name="Group 12">
          <path id="Path_16" data-name="Path 16" d="M191.277,124.656l-3.833,6.233-7.922-9.4a6.544,6.544,0,0,1-1.542-4.135l-.082-6.845,1.807.648a12.878,12.878,0,0,1,6.909,5.759Z" fill="url(#linear-gradient)"/>
          <g id="Group_3" data-name="Group 3">
            <path id="Path_17" data-name="Path 17" d="M159.919,109.916v11.071l-9.748,7.739-4.563-7.429A175.248,175.248,0,0,1,159.919,109.916Z" fill="url(#linear-gradient-2)"/>
            <path id="Path_18" data-name="Path 18" d="M153.731,152.172l-.694.4a2.909,2.909,0,0,1-2.957.036,2.374,2.374,0,0,1-.374-.283,6.819,6.819,0,0,1-2.072-3.386l-.5-1.916-7.292-10.067a8.323,8.323,0,0,1,.457-10.395,67.253,67.253,0,0,1,5.311-5.266l4.563,7.429-3.787,3.012,4.873,12.686c2.054.547,2.857,1.14,3.1,1.642a.636.636,0,0,1-.939.767,13.263,13.263,0,0,0-1.917-1l2.592,2.145A2.56,2.56,0,0,1,153.731,152.172Z" fill="#eab681"/>
          </g>
          <g id="Group_4" data-name="Group 4">
            <path id="Path_19" data-name="Path 19" d="M173.833,81.319c-2.752-3.17-8.488-.012-10.781,2.3-3.332,3.357-13.294,14.553-15.255,17.565-.629.965-1.341,2.837-.267,3.691,1.187.942,2.9-.251,3.949-.822.77-.421,2.454-1.518,3.271-.686.562.572.138,2.466-.1,3.111-.4,1.08-2.077,2.519-.133,2.9,1.327.264,3.65-1.215,4.77-1.772,3.934-1.952,7.629-5.624,10.344-9.048C172.4,95.069,177.4,85.423,173.833,81.319Z" fill="#4015a5"/>
          </g>
          <path id="Path_20" data-name="Path 20" d="M174.008,225.529h-3.587l-4.4-11.421a45.273,45.273,0,0,1-3.025-16.271v-3.646c0-.625-.019-1.25-.066-1.87a29.912,29.912,0,0,0-3.2-11.566c-5.488-10.842-5.709-23.452-5.709-23.452l14.372,2.472,2.5,25.956.548,6.986Z" fill="url(#linear-gradient-3)"/>
          <path id="Path_21" data-name="Path 21" d="M174.008,225.529h-3.587l-4.4-11.421a45.273,45.273,0,0,1-3.025-16.271v-3.646c0-.625-.019-1.25-.066-1.87,2.463,3.5,5.774,3.859,8.509.4Z" fill="#e59564"/>
          <path id="Path_22" data-name="Path 22" d="M179.262,180.359a29.866,29.866,0,0,0-1.934,11.962c.023.583.066,1.161.131,1.744l.393,3.628a45.233,45.233,0,0,1-1.255,16.5l-3.146,11.822-3.569.382-1.011-34.075-.174-5.82-.309-26.078,14.026-3.992S183.552,168.99,179.262,180.359Z" fill="#eab681"/>
          <path id="Path_23" data-name="Path 23" d="M179.262,180.359a29.866,29.866,0,0,0-1.934,11.962c-3.078,2.715-5.957,3.345-8.457,0l-.174-5.82-.309-26.078,14.026-3.992S183.552,168.99,179.262,180.359Z" fill="url(#linear-gradient-4)"/>
          <path id="Path_24" data-name="Path 24" d="M174,225.653l-.009-.126h-.023l-3.473-.063.28.063-.311.063-1.167,8.217c.093,1.361.95,1.81,3.086,1.739,2.136.071,2.993-.378,3.086-1.739Z" fill="#4015a5"/>
          <path id="Path_25" data-name="Path 25" d="M173.5,226.136l-.009-.125h-.022l-3.474-.063.281.063-.311.063-1.168,8.217c.094,1.361.95,1.81,3.086,1.739,2.137.071,2.993-.378,3.087-1.739Z" fill="#4015a5"/>
          <path id="Path_26" data-name="Path 26" d="M176.508,110.229c-3,3.084-8.223,11.869-8.223,11.869-.353-1.884-4.1-10.141-5.293-12.747.569-.069,3.959.133,3.959.133l.3-5.658,5.263,1.494s-.17,4.73-.17,4.74S176.047,110.209,176.508,110.229Z" fill="#e59564"/>
          <path id="Path_27" data-name="Path 27" d="M182.761,158.094c-9.821,3.309-21.092,5-28.747-.791,0,0,2.794-10.053,5.656-17.373a11.025,11.025,0,0,0,.558-4.344c-.274-3.923-2.038-6.881-2.548-10.707-.5-3.748,2.242-14.965,2.242-14.965a22.041,22.041,0,0,1,3.07-.563l.054.117a7.559,7.559,0,0,0,12.67,1.642c.277-.327.542-.624.792-.881a4.407,4.407,0,0,1,2.62.937,28.662,28.662,0,0,0-.228,7.037c.2,1.4.55,2.778.721,4.184a10.348,10.348,0,0,1-.942,5.585,22.613,22.613,0,0,0-2.132,7.058c-.509,5.163,1.745,9.78,3.6,14.484A66.558,66.558,0,0,1,182.761,158.094Z" fill="url(#linear-gradient-5)"/>
          <path id="Path_28" data-name="Path 28" d="M160.759,93.775a2.047,2.047,0,0,1,1.153.388,15.734,15.734,0,0,1,3.657-6.581,5.348,5.348,0,0,1,2.313-1.69,3.877,3.877,0,0,1,1.363-.343q.467-.02.918.006t.916.073a3.857,3.857,0,0,1,1.328.458,5.356,5.356,0,0,1,2.159,1.882,15.72,15.72,0,0,1,3.075,6.869,2.044,2.044,0,0,1,1.183-.287c1.2.155,1.508,2.07,1.115,3.494-.5,1.806-1.906,2.318-3.2,2.627a13.342,13.342,0,0,1-2.523,3.275,7.246,7.246,0,0,1-3.881,2.246c-.044.01-.088.017-.132.025-.087.016-.171.038-.259.05-.059.007-.119.005-.178.009s-.1.006-.15.008c-.115.005-.229.008-.345,0s-.229-.017-.343-.031c-.049-.007-.1-.012-.148-.021s-.119-.012-.177-.025c-.087-.019-.169-.049-.254-.071l-.129-.037a7.241,7.241,0,0,1-3.674-2.571,13.277,13.277,0,0,1-2.23-3.478c-1.267-.418-2.625-1.049-2.966-2.89C159.077,95.709,159.552,93.828,160.759,93.775Z" fill="#eab681"/>
          <g id="Group_11" data-name="Group 11">
            <g id="Group_5" data-name="Group 5">
              <path id="Path_29" data-name="Path 29" d="M170.179,102.336a3.122,3.122,0,0,0,2.254-2.18.217.217,0,0,0-.413-.134A3.011,3.011,0,0,1,168.546,102a.216.216,0,1,0-.083.424A4.316,4.316,0,0,0,170.179,102.336Z" fill="#4015a5"/>
            </g>
            <g id="Group_6" data-name="Group 6">
              <path id="Path_30" data-name="Path 30" d="M173.2,97.262a.735.735,0,1,1-.649-.813A.737.737,0,0,1,173.2,97.262Z" fill="#4015a5"/>
            </g>
            <g id="Group_7" data-name="Group 7">
              <path id="Path_31" data-name="Path 31" d="M167.246,97.006a.735.735,0,1,1-.649-.812A.738.738,0,0,1,167.246,97.006Z" fill="#4015a5"/>
            </g>
            <g id="Group_8" data-name="Group 8">
              <path id="Path_32" data-name="Path 32" d="M174.179,95.455l.022-.007a.217.217,0,0,0,.125-.28,1.794,1.794,0,0,0-2.261-1.156.216.216,0,0,0-.138.272.209.209,0,0,0,.272.139,1.378,1.378,0,0,1,1.721.9A.218.218,0,0,0,174.179,95.455Z" fill="#4015a5"/>
            </g>
            <g id="Group_9" data-name="Group 9">
              <path id="Path_33" data-name="Path 33" d="M167.675,94.338l.013-.02a.215.215,0,0,0-.082-.294,1.8,1.8,0,0,0-2.484.535.216.216,0,0,0,.066.3.211.211,0,0,0,.3-.065,1.379,1.379,0,0,1,1.9-.392A.217.217,0,0,0,167.675,94.338Z" fill="#4015a5"/>
            </g>
            <g id="Group_10" data-name="Group 10">
              <path id="Path_34" data-name="Path 34" d="M168.752,100.094a.21.21,0,0,0,.019-.419s-.4-.028-.5-.248c-.044-.1-.076-.412.538-1.111a.209.209,0,0,0-.02-.295.211.211,0,0,0-.3.02c-.576.655-.775,1.162-.609,1.551.2.466.838.5.865.5Z" fill="#4015a5"/>
            </g>
          </g>
          <path id="Path_35" data-name="Path 35" d="M191.515,140.727l-10.925-4.782a13.035,13.035,0,0,1-7.493-.566,2.5,2.5,0,0,1-.419-4.472,7.881,7.881,0,0,1,4.563-1.141c-1.314-1.359-.119-1.487-.119-1.487,1.743.392,3.4,2.263,4.089,3.139a3.477,3.477,0,0,1,.347.466l7.83,1.3-1.944-2.3,3.833-6.233,5.851,9.729A4.443,4.443,0,0,1,191.515,140.727Z" fill="#eab681"/>
          <path id="Path_36" data-name="Path 36" d="M170.446,83.3c-3.139-.428-7.171,1.828-8.613,4.735-1.236,2.49-1.312,7.431,1.589,11.333a5.049,5.049,0,0,1,.365-1.532,11.865,11.865,0,0,0,.327-1.9,11.738,11.738,0,0,0,.135-3.32,3.563,3.563,0,0,0,2.74-.324,8.669,8.669,0,0,0,2.81-2.036c1.3,2.284,4.459,2.13,5.544,1.95a15.318,15.318,0,0,0,.069,3.529,11.3,11.3,0,0,0,.379,1.83,3.209,3.209,0,0,0,.717,1.08S182.995,85.008,170.446,83.3Z" fill="#4015a5"/>
        </g>
      </g>
      <g id="Group_24" data-name="Group 24">
        <ellipse id="Ellipse_6" data-name="Ellipse 6" cx="30.898" cy="7.364" rx="30.898" ry="7.364" transform="translate(513.301 307.209)" fill="#c9cbea" style="mix-blend-mode: multiply;isolation: isolate"/>
        <g id="Group_23" data-name="Group 23">
          <path id="Path_37" data-name="Path 37" d="M546.218,247.948l.461-.093-.415-.093,5.145.093h.033l.013.186,1.394,10.932c.549,4.82,0,8.061-2.455,8.393-2.5.339-5.258-2.484-5.258-5.651,0-.072-.112-3.179-.25-5.651-.094-1.67-.951-3.255-.751-4.737A4.3,4.3,0,0,1,546.218,247.948Z" fill="#4015a5"/>
          <path id="Path_38" data-name="Path 38" d="M552.54,254.765a6.517,6.517,0,0,1-7.268.329c-4.941-2.951-5.836-28.761-5.836-28.761l-1.836-2.344-1.284,36.365,6.419,44.15-4.707.085s-13.346-22.268-11.059-44.19c0,0-9-27.348-8.384-43.81l2.327-6.022,38.511.927S562.192,247.632,552.54,254.765Z" fill="url(#linear-gradient-6)"/>
          <path id="Path_39" data-name="Path 39" d="M537.84,303.05l.012-.167h.029l4.627-.084-.373.084.414.084,1.556,10.945c-.125,1.814-1.266,2.412-4.112,2.317-2.845.1-3.986-.5-4.111-2.317Z" fill="#4015a5"/>
          <path id="Path_40" data-name="Path 40" d="M505.04,198.356c1.308-.366,3.238-2.418,5.179-4.3l11.843-10.391a14.4,14.4,0,0,0,4.89-10.025,14.087,14.087,0,0,0-.066-2.373L524.1,146.146s-.366.111-.965.333a11.8,11.8,0,0,0-7.441,13.54l2.672,12.454.211.965L509.087,189.1s-6.709-1.641-8.416,4.89A3.6,3.6,0,0,0,505.04,198.356Z" fill="#eab681"/>
          <path id="Path_41" data-name="Path 41" d="M515.7,160.019l2.672,12.454,8.583,1.164a14.087,14.087,0,0,0-.066-2.373L524.1,146.146s-.366.111-.965.333A11.8,11.8,0,0,0,515.7,160.019Z" fill="url(#linear-gradient-7)"/>
          <path id="Path_42" data-name="Path 42" d="M550.351,158.167l11.267,14.55,7.131,9.215,7.086-4.214a105.326,105.326,0,0,0-6.077-13.729c-9.027-16.833-17.189-17.876-17.189-17.876Z" fill="#e59564"/>
          <path id="Path_43" data-name="Path 43" d="M550.351,158.167l11.267,14.55,8.14-8.728c-9.027-16.833-17.189-17.876-17.189-17.876Z" fill="url(#linear-gradient-8)"/>
          <path id="Path_44" data-name="Path 44" d="M518.585,216.589l41.7-.38c-.029-3.282-3.082-12.148-5.442-18.521a31.816,31.816,0,0,1-1.758-14.872l3.686-16.755a26.689,26.689,0,0,0-1.641-16.493l-1.462-3.32s-10.507-.912-10.009-.74l-.5-.172-9.892-.231-9.165,1.041h0a28.372,28.372,0,0,0-4.233,21.91l3.45,15.918a31.91,31.91,0,0,1-.944,13.274C520.728,202.994,518.612,211.362,518.585,216.589Z" fill="url(#linear-gradient-9)"/>
          <path id="Rectangle_1" data-name="Rectangle 1" d="M4.65,0H5.663a4.65,4.65,0,0,1,4.65,4.65v8.335a.841.841,0,0,1-.841.841H.841A.841.841,0,0,1,0,12.984V4.65A4.65,4.65,0,0,1,4.65,0Z" transform="translate(543.652 150.909) rotate(180)" fill="#e59564"/>
          <g id="Group_22" data-name="Group 22">
            <path id="Path_45" data-name="Path 45" d="M526.049,125.924a2.758,2.758,0,0,1,1.567.493,21.25,21.25,0,0,1,4.771-8.981,7.228,7.228,0,0,1,3.081-2.343,5.259,5.259,0,0,1,1.832-.5,12.269,12.269,0,0,1,1.241-.014,12.12,12.12,0,0,1,1.238.074,5.226,5.226,0,0,1,1.806.585,7.23,7.23,0,0,1,2.964,2.487,21.232,21.232,0,0,1,4.331,9.2,2.774,2.774,0,0,1,1.59-.418c1.622.179,2.091,2.758,1.6,4.692-.627,2.452-2.515,3.18-4.26,3.63a18.023,18.023,0,0,1-3.325,4.488,9.8,9.8,0,0,1-5.184,3.133c-.06.014-.119.025-.178.037-.117.023-.23.056-.349.074-.079.012-.16.009-.24.017s-.134.011-.2.015c-.155.009-.31.016-.465.011s-.311-.016-.465-.033c-.067-.008-.134-.014-.2-.025s-.16-.013-.24-.029c-.117-.023-.229-.061-.344-.09-.059-.015-.117-.029-.176-.046A9.784,9.784,0,0,1,531.41,139a17.981,17.981,0,0,1-3.1-4.641c-1.721-.533-3.572-1.35-4.079-3.829C523.827,128.578,524.42,126.025,526.049,125.924Z" fill="#eab681"/>
            <g id="Group_21" data-name="Group 21">
              <path id="Path_46" data-name="Path 46" d="M533.449,128.459a.974.974,0,1,0,1.115-.912A1.018,1.018,0,0,0,533.449,128.459Z" fill="#4015a5"/>
              <path id="Path_47" data-name="Path 47" d="M542.014,128.664a.975.975,0,1,0,1.115-.912A1.019,1.019,0,0,0,542.014,128.664Z" fill="#4015a5"/>
              <g id="Group_15" data-name="Group 15">
                <g id="Group_14" data-name="Group 14">
                  <path id="Path_48" data-name="Path 48" d="M532.677,127.531a.333.333,0,0,0,.333-.131,2.084,2.084,0,0,1,2.889-.667.334.334,0,0,0,.458-.1.329.329,0,0,0-.1-.456,2.737,2.737,0,0,0-3.785.836.33.33,0,0,0,.076.461A.326.326,0,0,0,532.677,127.531Z" fill="#4015a5"/>
                </g>
              </g>
              <g id="Group_17" data-name="Group 17">
                <g id="Group_16" data-name="Group 16">
                  <path id="Path_49" data-name="Path 49" d="M537.764,136.611a.329.329,0,0,0-.269-.235,2.072,2.072,0,0,1-1.915-2.256.331.331,0,0,0-.659-.063,2.721,2.721,0,0,0,2.475,2.972.331.331,0,0,0,.377-.278A.314.314,0,0,0,537.764,136.611Z" fill="#4015a5"/>
                </g>
              </g>
              <g id="Group_19" data-name="Group 19">
                <g id="Group_18" data-name="Group 18">
                  <path id="Path_50" data-name="Path 50" d="M541.788,126.675a.276.276,0,0,0,.291.074,1.75,1.75,0,0,1,2.3.959.28.28,0,0,0,.36.157.277.277,0,0,0,.157-.359,2.3,2.3,0,0,0-2.99-1.283.275.275,0,0,0-.175.351A.251.251,0,0,0,541.788,126.675Z" fill="#4015a5"/>
                </g>
              </g>
              <g id="Group_20" data-name="Group 20">
                <path id="Path_51" data-name="Path 51" d="M539.461,135.084a1.144,1.144,0,0,0,.639-.169c.613-.377.787-1.269.465-2.387l-.7-3.713a.264.264,0,1,0-.52.1l.7,3.737c.3,1.057.079,1.627-.228,1.817a1.058,1.058,0,0,1-1.208-.317.283.283,0,0,0-.386,0,.249.249,0,0,0-.007.358A1.961,1.961,0,0,0,539.461,135.084Z" fill="#4015a5"/>
              </g>
            </g>
          </g>
          <path id="Path_52" data-name="Path 52" d="M571.949,187.143C561.724,182.6,558.665,171.6,558.665,171.6l-3.176-5.527a3.459,3.459,0,0,0-2.6-1.711l-.925-.109a3.276,3.276,0,0,1-2-3.522l.389-2.564a3.287,3.287,0,0,1,3.255-2.788h1.627a3.293,3.293,0,0,1,3,1.931l3.739,8.261c9.039,5.521,15,11.252,15.8,17.333A4.127,4.127,0,0,1,571.949,187.143Z" fill="#eab681"/>
          <path id="Path_53" data-name="Path 53" d="M524.116,120.037a6.726,6.726,0,0,1,.967-3.365c.541-.862,1.14-.953,1.942-1.466.7-.448,1.17-1.171,1.938-1.611a14.866,14.866,0,0,1,4.291-1.876,7.758,7.758,0,0,1,4.732.434c.324.147.627.5.966.537a5.822,5.822,0,0,0,1.316-.281c1.912-.348,5.319-.76,6.516,1.254.116.195.128.433.256.622.3.446.154.235.648.463a5.677,5.677,0,0,1,3.188,3c.453.963.946,2.679.273,3.672-.414.611-.971.465-.922,1.144.081,1.111.757,2.33.192,3.476-.115.234-.451.447-.524.652a4.584,4.584,0,0,0,0,1.249,7.7,7.7,0,0,1-.5,2.649c-.055.15-.116.31-.184.476a1.415,1.415,0,0,1-2.714-.648v-.041a25.661,25.661,0,0,1,.688-4.5c-1.711,0-3.331-2.577-3.737-3.891h-.347a2.607,2.607,0,0,1-1.592,1.476,2.644,2.644,0,0,1-2.861-1.793c-.493,1.994-3.989,2.08-4.772.279.35,2.074-.723,2.933-2.814,2.528a2.688,2.688,0,0,1,.328,2.258,2.345,2.345,0,0,1-1.714,1.221,4.76,4.76,0,0,1,.27,2.562,1.42,1.42,0,0,1-2.754.334c-.764-2.231-1.541-4.846-1.16-5.4C524.181,124.779,524.042,121.6,524.116,120.037Z" fill="#4015a5"/>
        </g>
      </g>
      <g id="Group_35" data-name="Group 35">
        <ellipse id="Ellipse_7" data-name="Ellipse 7" cx="24.602" cy="5.863" rx="24.602" ry="5.863" transform="translate(453.431 201.125)" fill="#c9cbea" style="mix-blend-mode: multiply;isolation: isolate"/>
        <g id="Group_34" data-name="Group 34">
          <path id="Path_54" data-name="Path 54" d="M478.586,156.149l-.367-.074.331-.074-4.1.074h-.026l-.011.148-1.11,8.7c-.437,3.838,0,6.419,1.955,6.684,1.993.269,4.187-1.979,4.187-4.5,0-.058.089-2.531.2-4.5.074-1.329.757-2.591.6-3.772A3.422,3.422,0,0,0,478.586,156.149Z" fill="#4015a5"/>
          <path id="Path_55" data-name="Path 55" d="M473.553,161.577a5.188,5.188,0,0,0,5.786.262c3.934-2.35,4.647-22.9,4.647-22.9l1.462-1.866,1.022,28.954-5.11,35.153,3.747.068s10.626-17.731,8.806-35.185c0,0,7.165-21.775,6.675-34.883l-1.852-4.795-30.664.739S465.867,155.9,473.553,161.577Z" fill="url(#linear-gradient-10)"/>
          <path id="Path_56" data-name="Path 56" d="M485.257,200.023l-.009-.133h-.024l-3.684-.067.3.067-.33.066-1.238,8.715c.1,1.444,1.007,1.92,3.273,1.845,2.266.075,3.174-.4,3.274-1.845Z" fill="#4015a5"/>
          <path id="Path_57" data-name="Path 57" d="M502.895,86.142l-2.307,10.679.067.111a21.06,21.06,0,0,0-6.72.089,11.343,11.343,0,0,1,.044-1.93L496.186,75.1s.3.089.776.255A9.412,9.412,0,0,1,502.895,86.142Z" fill="url(#linear-gradient-11)"/>
          <path id="Path_58" data-name="Path 58" d="M511.379,116.66c-1.043-.288-2.584-1.918-4.126-3.426l-9.426-8.273a11.413,11.413,0,0,1-3.892-7.94,21.06,21.06,0,0,1,6.72-.089l7.5,12.365s5.346-1.309,6.7,3.881A2.859,2.859,0,0,1,511.379,116.66Z" fill="#eab681"/>
          <path id="Path_59" data-name="Path 59" d="M473.529,75.062S463.819,76.3,455,100.23l5.644,3.355L475.294,84.66Z" fill="url(#linear-gradient-12)"/>
          <path id="Path_60" data-name="Path 60" d="M500.588,131.18l-33.2-.3c.023-2.612,2.453-9.672,4.332-14.746a25.328,25.328,0,0,0,1.4-11.841l-2.935-13.341a21.254,21.254,0,0,1,1.307-13.132l1.164-2.644s8.366-.726,7.969-.589l.4-.137,7.876-.184,7.3.829h0a22.587,22.587,0,0,1,3.371,17.445l-2.747,12.674a25.408,25.408,0,0,0,.752,10.57C498.882,120.356,500.567,127.019,500.588,131.18Z" fill="url(#linear-gradient-13)"/>
          <path id="Rectangle_2" data-name="Rectangle 2" d="M0,0H8.211a0,0,0,0,1,0,0V7.306a3.7,3.7,0,0,1-3.7,3.7H3.7A3.7,3.7,0,0,1,0,7.306V0A0,0,0,0,1,0,0Z" transform="translate(480.629 67.173)" fill="#e59564"/>
          <g id="Group_33" data-name="Group 33">
            <path id="Path_61" data-name="Path 61" d="M494.645,58.991a2.191,2.191,0,0,0-1.248.393,16.923,16.923,0,0,0-3.8-7.152,5.761,5.761,0,0,0-2.453-1.865,4.165,4.165,0,0,0-1.459-.4,9.609,9.609,0,0,0-.988-.012,9.707,9.707,0,0,0-.986.059,4.169,4.169,0,0,0-1.438.466,5.753,5.753,0,0,0-2.36,1.98,16.91,16.91,0,0,0-3.449,7.325,2.2,2.2,0,0,0-1.266-.332c-1.291.142-1.664,2.195-1.271,3.735.5,1.953,2,2.532,3.392,2.89a14.344,14.344,0,0,0,2.647,3.574,7.8,7.8,0,0,0,4.128,2.5c.047.011.094.02.141.029.094.019.184.045.278.059.064.009.128.008.192.014l.16.012c.124.007.247.012.371.008s.247-.013.37-.026c.054-.006.107-.011.16-.019s.128-.011.191-.024c.093-.018.182-.049.274-.072.047-.011.093-.023.14-.036a7.784,7.784,0,0,0,4-2.691,14.307,14.307,0,0,0,2.471-3.695c1.371-.424,2.844-1.075,3.248-3.049C496.414,61.1,495.942,59.071,494.645,58.991Z" fill="#eab681"/>
            <g id="Group_32" data-name="Group 32">
              <path id="Path_62" data-name="Path 62" d="M488.753,61.009a.776.776,0,1,1-.888-.726A.81.81,0,0,1,488.753,61.009Z" fill="#4015a5"/>
              <path id="Path_63" data-name="Path 63" d="M481.933,61.173a.776.776,0,1,1-.888-.727A.811.811,0,0,1,481.933,61.173Z" fill="#4015a5"/>
              <g id="Group_26" data-name="Group 26">
                <g id="Group_25" data-name="Group 25">
                  <path id="Path_64" data-name="Path 64" d="M489.368,60.27a.264.264,0,0,1-.265-.1,1.661,1.661,0,0,0-2.3-.531.266.266,0,0,1-.364-.079.262.262,0,0,1,.08-.363,2.179,2.179,0,0,1,3.014.666.261.261,0,0,1-.061.366A.248.248,0,0,1,489.368,60.27Z" fill="#4015a5"/>
                </g>
              </g>
              <g id="Group_28" data-name="Group 28">
                <g id="Group_27" data-name="Group 27">
                  <path id="Path_65" data-name="Path 65" d="M485.317,67.5a.265.265,0,0,1,.214-.187,1.652,1.652,0,0,0,1.526-1.8.263.263,0,0,1,.524-.051,2.166,2.166,0,0,1-1.971,2.367.264.264,0,0,1-.293-.333Z" fill="#4015a5"/>
                </g>
              </g>
              <g id="Group_30" data-name="Group 30">
                <g id="Group_29" data-name="Group 29">
                  <path id="Path_66" data-name="Path 66" d="M482.114,59.589a.223.223,0,0,1-.232.059,1.392,1.392,0,0,0-1.829.764.224.224,0,0,1-.287.124.22.22,0,0,1-.125-.286,1.827,1.827,0,0,1,2.381-1.021.22.22,0,0,1,.14.279A.235.235,0,0,1,482.114,59.589Z" fill="#4015a5"/>
                </g>
              </g>
              <g id="Group_31" data-name="Group 31">
                <path id="Path_67" data-name="Path 67" d="M483.967,66.284a.918.918,0,0,1-.51-.134c-.487-.3-.626-1.011-.37-1.9l.556-2.957a.211.211,0,0,1,.414.078l-.56,2.975c-.24.842-.063,1.3.182,1.447a.842.842,0,0,0,.962-.253.226.226,0,0,1,.307,0,.2.2,0,0,1,.005.285A1.553,1.553,0,0,1,483.967,66.284Z" fill="#4015a5"/>
              </g>
            </g>
          </g>
          <path id="Path_68" data-name="Path 68" d="M458.1,107.735c8.142-3.618,10.578-12.38,10.578-12.38l2.528-4.4a2.757,2.757,0,0,1,2.069-1.363l.736-.087a2.608,2.608,0,0,0,1.6-2.8l-.31-2.041a2.618,2.618,0,0,0-2.592-2.221h-1.295a2.623,2.623,0,0,0-2.39,1.538l-2.977,6.578c-7.2,4.4-11.94,8.959-12.58,13.8A3.285,3.285,0,0,0,458.1,107.735Z" fill="#eab681"/>
        </g>
        <path id="Path_69" data-name="Path 69" d="M494.82,52.135a7.78,7.78,0,0,0-3.535-4.934c-1.687-.8-3.639-.611-5.487-.611a8.383,8.383,0,0,1-2.7-.3c-1.181-.377-1.967-1.317-3.034-1.818-.431,1.349.258,2.757.772,3.975-2.1.378-3.933-2.026-5.221-3.31-1.243,1.6-.5,4.578.236,6.256-1.567-.405-2.624-2.052-3.912-2.855-.948,2.443,1.233,6.353,2.627,8.478a6.588,6.588,0,0,1,1,2.571,8.924,8.924,0,0,0,1.888,3.986c.053-1.086-.393-6.205.851-6.457a14.576,14.576,0,0,1,1.676.491,4.683,4.683,0,0,0,1.619-.041,20.77,20.77,0,0,0,3.843-1.345A9.767,9.767,0,0,0,489,54.193a26.9,26.9,0,0,1,2.141,4.965,20.544,20.544,0,0,1,.371,4.876,10.855,10.855,0,0,1,1.385-3.1c.445-.936.9-1.852,1.371-2.777A9.963,9.963,0,0,0,494.82,52.135Z" fill="#ef4b6a"/>
      </g>
      <g id="Group_46" data-name="Group 46">
        <path id="Path_70" data-name="Path 70" d="M253.876,298.774l-.528-.107.475-.106-5.9.106h-.038l-.015.214-1.6,12.528c-.629,5.524,0,9.239,2.814,9.62,2.867.388,6.025-2.848,6.025-6.477,0-.083.129-3.643.287-6.477.107-1.914,1.089-3.73.861-5.429A4.925,4.925,0,0,0,253.876,298.774Z" fill="#4015a5"/>
        <path id="Path_71" data-name="Path 71" d="M239.62,289.831c1.164,7.463,3.271,13.995,7.008,16.756a7.476,7.476,0,0,0,8.329.377c2.661-1.585,4.3-9.015,5.289-16.4,1.109-8.295,1.4-16.556,1.4-16.556l2.107-2.695.809,22.811L265.225,313l-7.363,50.59,5.4.1s15.292-25.517,12.675-50.646c0,0,2.562-7.773,5.034-17.9,2.507-10.213,4.924-22.833,4.569-32.3l-2.661-6.908-44.136,1.064S237.347,275.182,239.62,289.831Z" fill="#eab681"/>
        <path id="Path_72" data-name="Path 72" d="M239.62,289.831c10.136-6.121,17.033-2.539,20.626.732,1.109-8.295,1.4-16.556,1.4-16.556l2.107-2.695.809,22.811,16.412,1.02c2.507-10.213,4.924-22.833,4.569-32.3l-2.661-6.908-44.136,1.064S237.347,275.182,239.62,289.831Z" fill="url(#linear-gradient-14)"/>
        <path id="Path_73" data-name="Path 73" d="M263.477,361.925l-.013-.192h-.034l-5.3-.1.428.1-.475.1L256.3,374.373c.144,2.078,1.451,2.764,4.712,2.655,3.262.109,4.569-.577,4.712-2.655Z" fill="#4015a5"/>
        <path id="Path_74" data-name="Path 74" d="M279.216,182.1s.425.128,1.108.381A13.521,13.521,0,0,1,288.857,198l-3.312,15.38,10.88,17.947s7.7-1.886,9.648,5.594a4.118,4.118,0,0,1-5,5.01c-1.5-.415-3.71-2.763-5.934-4.926L281.563,225.1a16.488,16.488,0,0,1-5.527-14.208Z" fill="#eab681"/>
        <path id="Path_75" data-name="Path 75" d="M246.6,182.059s-13.976,1.785-26.669,36.226l8.124,4.829,21.085-27.24Z" fill="#e59564"/>
        <path id="Path_76" data-name="Path 76" d="M285.545,262.834l-47.794-.435c.033-3.762,3.532-13.923,6.236-21.227A36.456,36.456,0,0,0,246,224.129l-4.224-19.2a30.586,30.586,0,0,1,1.88-18.9l1.676-3.806s12.041-1.046,11.471-.847l.57-.2,11.338-.264,10.5,1.193h0a32.512,32.512,0,0,1,4.851,25.111l-3.954,18.242a36.569,36.569,0,0,0,1.083,15.214C283.088,247.254,285.514,256.844,285.545,262.834Z" fill="url(#linear-gradient-15)"/>
        <path id="Rectangle_3" data-name="Rectangle 3" d="M0,0H11.818a0,0,0,0,1,0,0V12.037A3.808,3.808,0,0,1,8.01,15.845h-4.2A3.808,3.808,0,0,1,0,12.037V0A0,0,0,0,1,0,0Z" transform="translate(256.816 170.704)" fill="#e59564"/>
        <g id="Group_44" data-name="Group 44">
          <path id="Path_77" data-name="Path 77" d="M249.184,158.926a3.178,3.178,0,0,1,1.8.566,24.359,24.359,0,0,1,5.467-10.294,8.294,8.294,0,0,1,3.531-2.684,5.987,5.987,0,0,1,2.1-.57,14.105,14.105,0,0,1,1.422-.018q.7.008,1.419.086a5.987,5.987,0,0,1,2.07.67,8.287,8.287,0,0,1,3.4,2.85,24.345,24.345,0,0,1,4.964,10.544,3.173,3.173,0,0,1,1.822-.479c1.859.206,2.4,3.161,1.83,5.377-.718,2.811-2.882,3.645-4.883,4.16a20.634,20.634,0,0,1-3.81,5.144,11.223,11.223,0,0,1-5.941,3.591c-.068.016-.136.029-.2.042-.134.027-.264.064-.4.085-.091.014-.183.011-.275.02s-.154.012-.231.017c-.178.01-.356.018-.534.012s-.356-.019-.533-.038c-.077-.009-.153-.016-.23-.028s-.184-.015-.274-.033c-.135-.027-.263-.071-.4-.1-.067-.017-.135-.034-.2-.053a11.217,11.217,0,0,1-5.762-3.873,20.584,20.584,0,0,1-3.556-5.319c-1.973-.61-4.094-1.547-4.676-4.388C246.637,161.968,247.317,159.043,249.184,158.926Z" fill="#eab681"/>
          <g id="Group_43" data-name="Group 43">
            <path id="Path_78" data-name="Path 78" d="M257.664,161.832a1.117,1.117,0,1,0,1.278-1.046A1.168,1.168,0,0,0,257.664,161.832Z" fill="#4015a5"/>
            <path id="Path_79" data-name="Path 79" d="M267.481,162.067a1.117,1.117,0,1,0,1.278-1.046A1.169,1.169,0,0,0,267.481,162.067Z" fill="#4015a5"/>
            <g id="Group_37" data-name="Group 37">
              <g id="Group_36" data-name="Group 36">
                <path id="Path_80" data-name="Path 80" d="M256.78,160.768a.379.379,0,0,0,.381-.15,2.391,2.391,0,0,1,3.312-.764.382.382,0,0,0,.524-.114.377.377,0,0,0-.115-.522,3.137,3.137,0,0,0-4.338.958.377.377,0,0,0,.087.528A.371.371,0,0,0,256.78,160.768Z" fill="#4015a5"/>
              </g>
            </g>
            <g id="Group_39" data-name="Group 39">
              <g id="Group_38" data-name="Group 38">
                <path id="Path_81" data-name="Path 81" d="M262.61,171.175a.382.382,0,0,0-.308-.27,2.375,2.375,0,0,1-2.2-2.585.379.379,0,0,0-.755-.072,3.118,3.118,0,0,0,2.837,3.406.379.379,0,0,0,.431-.318A.362.362,0,0,0,262.61,171.175Z" fill="#4015a5"/>
              </g>
            </g>
            <g id="Group_41" data-name="Group 41">
              <g id="Group_40" data-name="Group 40">
                <path id="Path_82" data-name="Path 82" d="M267.221,159.788a.319.319,0,0,0,.334.084,2,2,0,0,1,2.632,1.1.322.322,0,0,0,.413.179.316.316,0,0,0,.18-.412,2.629,2.629,0,0,0-3.427-1.469.315.315,0,0,0-.2.4A.311.311,0,0,0,267.221,159.788Z" fill="#4015a5"/>
              </g>
            </g>
            <g id="Group_42" data-name="Group 42">
              <path id="Path_83" data-name="Path 83" d="M264.554,169.425a1.322,1.322,0,0,0,.733-.194c.7-.432.9-1.455.533-2.736l-.8-4.255a.3.3,0,1,0-.6.111l.806,4.283c.346,1.211.09,1.865-.262,2.082a1.211,1.211,0,0,1-1.384-.363.325.325,0,0,0-.443,0,.285.285,0,0,0-.007.41A2.246,2.246,0,0,0,264.554,169.425Z" fill="#4015a5"/>
            </g>
          </g>
        </g>
        <g id="Group_45" data-name="Group 45">
          <path id="Path_84" data-name="Path 84" d="M249.159,157.994a25.818,25.818,0,0,1,1.013-4.644,15.08,15.08,0,0,1,2.564-5.391,13.927,13.927,0,0,1,6.177-4.161,18.165,18.165,0,0,1,6.1-.434c4.967.274,8.273,5.16,10.2,9.881,1.115,2.732,1.826,5.57.942,8.538a25.171,25.171,0,0,1-1.768,4.553c-.441.844-1.067,1.565-1.478,2.406a49.071,49.071,0,0,1-.488-5.443,24.485,24.485,0,0,0-.686-3.356l-.283-.177a14.613,14.613,0,0,1-3.36-2.876c-.46-.525-1.29-1.065-1.61-1.708a8.869,8.869,0,0,0,.558,1.936c.184.682.409,1.359.549,2.053a2.943,2.943,0,0,1-1.423-.366,23.013,23.013,0,0,1-3.74-1.745,22.024,22.024,0,0,1-2.9-2.4c-.352-.326-.947-.735-1.107-1.245.1,1.076-.544,2.16-.846,3.143a13.624,13.624,0,0,1-3.686,5.837,5.854,5.854,0,0,0-.2-2.022,15.685,15.685,0,0,0-1.164,6.087,14.893,14.893,0,0,0,.652,4.235c0,.021.011.039.016.059-.378-.831-.849-1.589-1.288-2.381a24.042,24.042,0,0,1-1.712-4.39A14.265,14.265,0,0,1,249.159,157.994Z" fill="#003999"/>
        </g>
        <path id="Path_85" data-name="Path 85" d="M224.386,229.087c11.718-5.206,15.224-17.818,15.224-17.818l3.64-6.334a3.967,3.967,0,0,1,2.977-1.962l1.06-.125a3.755,3.755,0,0,0,2.3-4.036l-.446-2.938a3.769,3.769,0,0,0-3.731-3.2h-1.865a3.773,3.773,0,0,0-3.439,2.213l-4.285,9.468c-10.359,6.328-17.187,12.9-18.108,19.865A4.729,4.729,0,0,0,224.386,229.087Z" fill="#eab681"/>
      </g>
      <g id="Group_55" data-name="Group 55">
        <ellipse id="Ellipse_8" data-name="Ellipse 8" cx="35.636" cy="8.493" rx="35.636" ry="8.493" transform="translate(393.887 406.012)" fill="#c9cbea" style="mix-blend-mode: multiply;isolation: isolate"/>
        <g id="Group_54" data-name="Group 54">
          <path id="Path_86" data-name="Path 86" d="M444.059,234.524c1.786-7.036,5.177-13.634,7.3-20.607,1.727-5.678,2.565-12.029.88-17.821-1.69-5.81-7.349-12.2-14.107-10.029-3.037.974-5.252,3.6-6.792,6.384s-2.581,5.825-4.245,8.535a21.685,21.685,0,0,1-11.518,9.127c-3.616,1.2-7.493,1.432-11.146,2.518s-7.306,3.347-8.482,6.959c-1.99,6.113,3.9,12.177,3.691,18.6-.163,5.073-4.038,9.2-5.735,13.984-.672,1.9-.942,4.176.281,5.777,1.611,2.109,4.915,1.911,7.331.8,5.159-2.367,8.927-7.822,14.574-8.428,6.747-.725,13.281,5.94,19.639,3.577,3-1.114,4.982-4.043,5.966-7.076s1.164-6.259,1.73-9.4Q443.69,235.963,444.059,234.524Z" fill="#003999"/>
          <path id="Path_87" data-name="Path 87" d="M432.737,405.8h-5.512l-6.762-17.546a69.569,69.569,0,0,1-4.648-25v-5.6c0-.96-.029-1.92-.1-2.873a45.958,45.958,0,0,0-4.921-17.768c-8.432-16.658-8.77-36.031-8.77-36.031l22.08,3.8,3.842,39.878.842,10.732Z" fill="url(#linear-gradient-16)"/>
          <path id="Path_88" data-name="Path 88" d="M432.737,405.8h-5.512l-6.762-17.546a69.569,69.569,0,0,1-4.648-25v-5.6c0-.96-.029-1.92-.1-2.873,3.785,5.379,8.871,5.929,13.073.609Z" fill="#e59564"/>
          <path id="Path_89" data-name="Path 89" d="M440.809,336.4a45.9,45.9,0,0,0-2.972,18.377c.036.9.1,1.784.2,2.68l.6,5.574a69.542,69.542,0,0,1-1.928,25.348L431.88,406.54l-5.482.588-1.554-52.352-.266-8.941L424.1,305.77l21.548-6.133S447.4,318.932,440.809,336.4Z" fill="#eab681"/>
          <path id="Path_90" data-name="Path 90" d="M440.809,336.4a45.9,45.9,0,0,0-2.972,18.377c-4.728,4.172-9.152,5.14-12.993,0l-.266-8.941L424.1,305.77l21.548-6.133S447.4,318.932,440.809,336.4Z" fill="url(#linear-gradient-17)"/>
          <path id="Path_91" data-name="Path 91" d="M432.727,405.986l-.014-.193h-.034l-5.336-.1.43.1-.477.1L425.5,418.513c.144,2.092,1.459,2.782,4.741,2.673,3.282.109,4.6-.581,4.742-2.673Z" fill="#4015a5"/>
          <path id="Path_92" data-name="Path 92" d="M431.953,406.729l-.013-.193H431.9l-5.336-.1.43.1-.477.1-1.794,12.624c.144,2.092,1.459,2.782,4.741,2.673,3.283.109,4.6-.581,4.742-2.673Z" fill="#4015a5"/>
          <path id="Path_93" data-name="Path 93" d="M411.1,228.171s-20.015,14.1-30.149,25.58a12.8,12.8,0,0,0-.709,15.976l11.208,15.463.78,2.937a10.458,10.458,0,0,0,3.182,5.208,4.133,4.133,0,0,0,5.111.379l1.068-.613a3.938,3.938,0,0,0,.554-6.457l-4-3.306a20.494,20.494,0,0,1,2.968,1.552.974.974,0,0,0,1.435-1.182c-.373-.765-1.6-1.675-4.763-2.519L390.291,261.7l20.8-16.514Z" fill="#eab681"/>
          <path id="Path_94" data-name="Path 94" d="M436.578,228.655c-4.608,4.739-12.634,18.234-12.634,18.234-.542-2.894-6.294-15.58-8.131-19.583.873-.1,6.083.205,6.083.205l.467-8.693,8.086,2.3s-.261,7.268-.261,7.283S435.87,228.625,436.578,228.655Z" fill="#e59564"/>
          <path id="Path_95" data-name="Path 95" d="M446.185,302.192c-15.088,5.083-32.4,7.677-44.165-1.215,0,0,4.291-15.445,8.688-26.691a16.938,16.938,0,0,0,.859-6.673c-.422-6.028-3.133-10.572-3.916-16.45-.767-5.758,3.444-22.992,3.444-22.992a34.132,34.132,0,0,1,4.718-.865l.082.179a11.614,11.614,0,0,0,19.466,2.524c.425-.5.833-.959,1.217-1.354a6.764,6.764,0,0,1,4.024,1.44c-.361,3.688-.877,7.122-.35,10.811.308,2.148.845,4.267,1.109,6.427a15.907,15.907,0,0,1-1.448,8.582,34.718,34.718,0,0,0-3.275,10.843c-.783,7.932,2.68,15.025,5.526,22.253A102.46,102.46,0,0,1,446.185,302.192Z" fill="url(#linear-gradient-18)"/>
          <path id="Path_96" data-name="Path 96" d="M412.382,203.377a3.141,3.141,0,0,1,1.771.6,24.17,24.17,0,0,1,5.618-10.11,8.235,8.235,0,0,1,3.554-2.6,5.96,5.96,0,0,1,2.094-.527,19.681,19.681,0,0,1,2.817.121,5.932,5.932,0,0,1,2.041.7,8.218,8.218,0,0,1,3.316,2.891,24.152,24.152,0,0,1,4.726,10.553,3.147,3.147,0,0,1,1.816-.441c1.841.239,2.318,3.181,1.714,5.369-.766,2.774-2.928,3.562-4.922,4.035A20.5,20.5,0,0,1,433.05,219a11.145,11.145,0,0,1-5.962,3.451l-.2.039c-.133.023-.263.058-.4.076-.091.011-.183.007-.274.015s-.153.008-.23.012c-.176.007-.352.011-.529,0s-.353-.025-.528-.047c-.076-.011-.152-.019-.228-.032s-.182-.019-.271-.039c-.133-.029-.259-.075-.391-.11-.066-.018-.132-.035-.2-.055a11.136,11.136,0,0,1-5.644-3.95,20.484,20.484,0,0,1-3.427-5.344c-1.946-.642-4.032-1.611-4.556-4.441C409.8,206.347,410.528,203.457,412.382,203.377Z" fill="#eab681"/>
          <g id="Group_53" data-name="Group 53">
            <g id="Group_47" data-name="Group 47">
              <path id="Path_97" data-name="Path 97" d="M426.854,216.529a4.8,4.8,0,0,0,3.462-3.35.333.333,0,0,0-.634-.205c-1.236,3.783-5.168,3.07-5.337,3.038a.332.332,0,1,0-.127.652A6.611,6.611,0,0,0,426.854,216.529Z" fill="#4015a5"/>
            </g>
            <g id="Group_48" data-name="Group 48">
              <path id="Path_98" data-name="Path 98" d="M431.5,208.733a1.129,1.129,0,1,1-1-1.249A1.132,1.132,0,0,1,431.5,208.733Z" fill="#4015a5"/>
            </g>
            <g id="Group_49" data-name="Group 49">
              <path id="Path_99" data-name="Path 99" d="M422.348,208.341a1.129,1.129,0,1,1-1-1.249A1.131,1.131,0,0,1,422.348,208.341Z" fill="#4015a5"/>
            </g>
            <g id="Group_50" data-name="Group 50">
              <path id="Path_100" data-name="Path 100" d="M433,205.957l.035-.011a.331.331,0,0,0,.191-.429,2.754,2.754,0,0,0-3.473-1.776.331.331,0,0,0-.213.417.323.323,0,0,0,.419.214,2.116,2.116,0,0,1,2.644,1.383A.334.334,0,0,0,433,205.957Z" fill="#4015a5"/>
            </g>
            <g id="Group_51" data-name="Group 51">
              <path id="Path_101" data-name="Path 101" d="M423.008,204.241l.019-.03a.332.332,0,0,0-.126-.453,2.758,2.758,0,0,0-3.816.823.332.332,0,0,0,.1.457.324.324,0,0,0,.461-.1,2.116,2.116,0,0,1,2.924-.6A.334.334,0,0,0,423.008,204.241Z" fill="#4015a5"/>
            </g>
            <g id="Group_52" data-name="Group 52">
              <path id="Path_102" data-name="Path 102" d="M424.662,213.084a.322.322,0,0,0,.03-.644c-.007,0-.622-.042-.765-.38-.067-.156-.117-.633.827-1.707a.322.322,0,0,0-.031-.454.326.326,0,0,0-.456.031c-.885,1.006-1.191,1.786-.935,2.384.306.714,1.286.768,1.328.77Z" fill="#4015a5"/>
            </g>
          </g>
          <path id="Path_103" data-name="Path 103" d="M437.616,191.209c-2-2.4-6.134-4.049-9.969-4.23-8.583-.4-16.127,7.524-14.172,15.706.931,3.9,6.529,1.258,9.164.233a26.343,26.343,0,0,0,8.861-6.081,7.111,7.111,0,0,0-.59,3.206c.32,2.308,2.854,3.583,4.015,5.433,1.062,1.693.751,3.394.771,5.275a13.032,13.032,0,0,0,3.077-4.531C441.027,200.737,441.1,195.392,437.616,191.209Z" fill="#003999"/>
          <path id="Path_104" data-name="Path 104" d="M468.258,265.763,452.1,238.936a19.828,19.828,0,0,0-10.606-8.859l-2.784-.986.129,10.509a10.039,10.039,0,0,0,2.368,6.351l15.163,17.976-12.043-2a4.343,4.343,0,0,0-.533-.711c-1.065-1.352-3.59-4.221-6.274-4.833,0,0-1.837.2.178,2.293a11.981,11.981,0,0,0-7,1.745,3.836,3.836,0,0,0,.639,6.872,20.052,20.052,0,0,0,11.507.877l16.793,7.34A6.826,6.826,0,0,0,468.258,265.763Z" fill="#eab681"/>
        </g>
      </g>
      <g id="Group_64" data-name="Group 64">
        <path id="Path_105" data-name="Path 105" d="M369.594,262.745c0,3.549-12.363,6.426-27.614,6.426s-27.615-2.877-27.615-6.426,12.363-6.426,27.615-6.426S369.594,259.2,369.594,262.745Z" fill="#c9cbea" style="mix-blend-mode: multiply;isolation: isolate"/>
        <g id="Group_63" data-name="Group 63">
          <path id="Path_106" data-name="Path 106" d="M379.762,109.781c-1.106-3.3-3.167-6.359-6.532-7.739a17.761,17.761,0,0,0-6.292-1.359c-1.833-.056-3.737.2-5.542-.012-4.121-.474-5.5-4.556-6.039-8.065a8.768,8.768,0,0,0-1.532-3.944c-1.721-2.3-4.693-2.99-7.474-3.215a11.935,11.935,0,0,0-8.748,2.6c-.58.488-2.877,3.059-1.929,3.6l.358,1.072c.757.4.625,1.6.782,2.343a10.34,10.34,0,0,0,.961,2.251c.639,1.359,1.214,2.716,1.869,4.054a44.362,44.362,0,0,0,4.975,8.474c2.358,2.94,6.964,4.835,10.666,5.3,3.543.448,8.22.6,10.928,3.264a9.965,9.965,0,0,1,3.129,5.017c.516,2.2-.105,3.719-.61,5.8,2.368-3.553,5.7-7.24,5.825-11.737.079-2.918-1.13-5.436-2.66-7.864,4.633.783,8.206,4.222,7.963,9.171C381.342,116.372,380.609,112.306,379.762,109.781Z" fill="#ef4b6a"/>
          <path id="Path_107" data-name="Path 107" d="M328.358,130.175l-8.668,10.217-8.479,9.977-6.2-3.888a87.07,87.07,0,0,1,7.335-14.2c7.912-12.1,14.4-12.688,14.4-12.688Z" fill="#e59564"/>
          <path id="Path_108" data-name="Path 108" d="M328.358,130.175l-8.668,10.217c-.417-.453-4.376-4.817-7.343-8.109,7.912-12.1,14.4-12.688,14.4-12.688Z" fill="url(#linear-gradient-19)"/>
          <path id="Path_109" data-name="Path 109" d="M348.019,210.667l-.409-.1.374-.069-4.6-.07h-.029l-.018.162-1.575,9.493c-.635,4.188-.243,7.031,1.94,7.393,2.225.369,4.772-2.012,4.867-4.774,0-.063.2-2.769.394-4.922.134-1.453.947-2.81.814-4.109A3.751,3.751,0,0,0,348.019,210.667Z" fill="#4015a5"/>
          <path id="Path_110" data-name="Path 110" d="M338.863,254.476l-4.269-.141-4.779-13.448a51.378,51.378,0,0,1-2.95-19.023l.147-4.236c.025-.726.033-1.452,0-2.172a34.014,34.014,0,0,0-3.226-13.3l-.121-.258a45.885,45.885,0,0,1-3.776-12.793c-1.108-7.349,5.547-13.572,13.03-12.238l3.359.6.029,1.919.342,22.392.1,6.34.376,8.141Z" fill="#eab681"/>
          <path id="Path_111" data-name="Path 111" d="M338.86,254.473l-4.268-.141-4.779-13.441a51.505,51.505,0,0,1-2.945-19.022l.146-4.237c.025-.726.028-1.453,0-2.175,2.79,4.164,6.715,4.71,10.108.794Z" fill="#e59564"/>
          <path id="Path_112" data-name="Path 112" d="M338.847,254.617l0-.147h-.027l-4.13-.21.331.084-.373.061-1.719,9.5c.057,1.586,1.057,2.141,3.6,2.143,2.539.166,3.576-.322,3.742-1.9Z" fill="#4015a5"/>
          <path id="Path_113" data-name="Path 113" d="M370.452,152.5l-9.091,11.411-.682,2.2a7.889,7.889,0,0,1-2.6,3.86,3.35,3.35,0,0,1-.453.315,3.559,3.559,0,0,1-3.515-.167l-.806-.483a2.943,2.943,0,0,1-.263-4.9l3.172-2.388a14.88,14.88,0,0,0-2.331,1.089c-.635.359-1.426-.3-1.084-.931.314-.573,1.288-1.225,3.757-1.786l6.317-14.543-6.039-5.016-9.647-8.006.426-12.338c.556-.3,8.348,5.319,15.381,11.879a75.879,75.879,0,0,1,7.321,7.71A9.622,9.622,0,0,1,370.452,152.5Z" fill="#eab681"/>
          <path id="Path_114" data-name="Path 114" d="M362.995,132.7l-6.16,8.465-9.647-8.006.426-12.338C348.17,120.513,355.962,126.135,362.995,132.7Z" fill="url(#linear-gradient-20)"/>
          <path id="Path_115" data-name="Path 115" d="M346.468,120.615c-3.692,3.466-10.261,13.467-10.261,13.467-.344-2.2-4.467-11.943-5.785-15.018.679-.057,4.706.311,4.706.311l.589-6.561,6.2,1.941s-.392,5.49-.392,5.5Z" fill="#e59564"/>
          <path id="Path_116" data-name="Path 116" d="M351.988,176.469a65.457,65.457,0,0,1-15.684,2.913,32.8,32.8,0,0,1-5.193-.205,10.817,10.817,0,0,1-9.12-13.565c.308-1.126.627-2.295.944-3.467,1.607-5.938,3.173-11.952,3.148-12.705-.171-4.577-2.152-8.081-2.6-12.54-.446-4.374,3.264-17.3,3.264-17.3a26.811,26.811,0,0,1,3.678-.529c.016.042.04.085.056.137a9.109,9.109,0,0,0,15.016,2.4c.341-.369.665-.7.977-.99a5.32,5.32,0,0,1,3.074,1.192,32.857,32.857,0,0,0-.551,8.168c.186,1.629.546,3.246.688,4.881a11.734,11.734,0,0,1-1.339,6.453,26,26,0,0,0-2.825,8.119c-.567,4.147.466,8.034,1.821,11.88.6,1.7,1.259,3.388,1.875,5.089A76.267,76.267,0,0,1,351.988,176.469Z" fill="url(#linear-gradient-21)"/>
          <path id="Path_117" data-name="Path 117" d="M336.3,179.382l.342,22.392-12.863.379-.121-.258a42.829,42.829,0,0,1-2.9-8.323,51.174,51.174,0,0,1,.589-25.618c.494-1.79,1.043-3.8,1.588-5.809l24.4-.835c.6,1.7,1.259,3.388,1.875,5.089a76.267,76.267,0,0,1,2.775,10.07A65.457,65.457,0,0,1,336.3,179.382Z" fill="url(#linear-gradient-22)"/>
          <path id="Path_118" data-name="Path 118" d="M328.391,100.882a2.466,2.466,0,0,1,1.356.495,18.217,18.217,0,0,1,4.616-7.5A6.392,6.392,0,0,1,337.183,92a4.7,4.7,0,0,1,1.636-.345c.37,0,.734.012,1.092.043s.721.062,1.086.12a4.684,4.684,0,0,1,1.562.585,6.328,6.328,0,0,1,2.493,2.271,18.03,18.03,0,0,1,3.383,8.1,2.488,2.488,0,0,1,1.418-.287c1.42.227,1.712,2.464,1.188,4.1-.666,2.079-2.362,2.619-3.918,2.926a15.57,15.57,0,0,1-3.135,3.707,8.7,8.7,0,0,1-4.707,2.457l-.158.024c-.1.014-.206.037-.31.047-.071.007-.142,0-.213.005s-.118,0-.178,0c-.137,0-.273,0-.41-.012s-.273-.028-.408-.049c-.058-.01-.117-.019-.175-.03s-.141-.019-.21-.036c-.1-.026-.2-.063-.3-.093l-.152-.047a8.61,8.61,0,0,1-4.268-3.132,15.418,15.418,0,0,1-2.514-4.128c-1.49-.536-3.081-1.322-3.412-3.475C326.312,103.062,326.953,100.895,328.391,100.882Z" fill="#eab681"/>
          <g id="Group_62" data-name="Group 62">
            <g id="Group_56" data-name="Group 56">
              <path id="Path_119" data-name="Path 119" d="M339.255,111.2a3.691,3.691,0,0,0,2.769-2.445.251.251,0,0,0-.155-.322.261.261,0,0,0-.331.151c-1.056,2.829-4.083,2.189-4.213,2.161a.258.258,0,0,0-.309.189.252.252,0,0,0,.194.3A5.24,5.24,0,0,0,339.255,111.2Z" fill="#4015a5"/>
            </g>
            <g id="Group_57" data-name="Group 57">
              <path id="Path_120" data-name="Path 120" d="M343.056,105.42a.875.875,0,0,1-.993.725.858.858,0,0,1-.739-.97.875.875,0,0,1,.993-.725A.858.858,0,0,1,343.056,105.42Z" fill="#4015a5"/>
            </g>
            <g id="Group_58" data-name="Group 58">
              <path id="Path_121" data-name="Path 121" d="M335.979,104.89a.873.873,0,0,1-.993.724.857.857,0,0,1-.739-.97.874.874,0,0,1,.993-.724A.858.858,0,0,1,335.979,104.89Z" fill="#4015a5"/>
            </g>
            <g id="Group_59" data-name="Group 59">
              <path id="Path_122" data-name="Path 122" d="M344.291,103.36l.027-.008a.25.25,0,0,0,.159-.32,2.147,2.147,0,0,0-2.643-1.432.252.252,0,1,0,.143.483,1.651,1.651,0,0,1,2.011,1.114A.262.262,0,0,0,344.291,103.36Z" fill="#4015a5"/>
            </g>
            <g id="Group_60" data-name="Group 60">
              <path id="Path_123" data-name="Path 123" d="M336.6,101.806l.016-.022a.247.247,0,0,0-.085-.345,2.167,2.167,0,0,0-2.977.525.247.247,0,0,0,.067.348.255.255,0,0,0,.359-.063,1.66,1.66,0,0,1,2.28-.381A.264.264,0,0,0,336.6,101.806Z" fill="#4015a5"/>
            </g>
            <g id="Group_61" data-name="Group 61">
              <path id="Path_124" data-name="Path 124" d="M337.647,108.536a.244.244,0,1,0,.04-.486c-.005,0-.48-.048-.582-.307-.048-.12-.074-.482.685-1.27a.239.239,0,0,0-.012-.344.258.258,0,0,0-.354.011c-.711.739-.969,1.321-.786,1.779.218.549.976.614,1.008.617Z" fill="#4015a5"/>
            </g>
          </g>
          <path id="Path_125" data-name="Path 125" d="M348.094,211.007l-4.745-.157-8.2-20.261a11.84,11.84,0,0,1-.808-6.152,23.184,23.184,0,0,1,3.513-8.747c5.284-.662,12.52.515,9.3,13.209v.017c-.606.748-1.263,1.47-1.962,2.182C351.356,195.484,348.094,211.007,348.094,211.007Z" fill="#e59564"/>
          <path id="Path_126" data-name="Path 126" d="M308.2,154.816c9.27-3.661,12.335-13.169,12.335-13.169l3-4.726a3.106,3.106,0,0,1,2.372-1.417l.83-.068a2.853,2.853,0,0,0,1.895-3.012l-.27-2.248a2.911,2.911,0,0,0-2.823-2.527l-1.454-.048a2.952,2.952,0,0,0-2.739,1.6l-3.589,7.094c-8.24,4.549-13.734,9.372-14.635,14.652A3.665,3.665,0,0,0,308.2,154.816Z" fill="#eab681"/>
          <path id="Path_127" data-name="Path 127" d="M346.96,92.695c-1.954-2.825-5.675-3.677-9.217-3.339a12.367,12.367,0,0,0-4.487,1.082,10.081,10.081,0,0,0-4.129,5.49c-1.074,3.424-1.115,9.063,1.682,11.966.132-3.824.205-5.949,4.291-9.163a3.167,3.167,0,0,0,.413.824,21.989,21.989,0,0,0,2.468,2.4,1.558,1.558,0,0,0,2.387-.4,18.223,18.223,0,0,0,1.964-4.388c2.394,2.212,3.387,3.958,3.775,6.26.3,1.8-.114,4.071-.073,5.914C351.228,105.224,350.444,97.732,346.96,92.695Z" fill="#ef4b6a"/>
          <path id="Path_128" data-name="Path 128" d="M347.154,188.9c3.217-12.694-4.019-13.871-9.3-13.209a56.187,56.187,0,0,1,10.412-11.857C354.043,174.1,352.666,182.135,347.154,188.9Z" fill="url(#linear-gradient-23)"/>
        </g>
      </g>
      <g id="Group_65" data-name="Group 65">
        <path id="Path_129" data-name="Path 129" d="M544.732,338.294c-105.7-10.645-215.871,36.782-329.13,0v-26.05c57.98,20.394,114.6,17.216,169.557,11.475,54.956-6.02,108.248-14.6,159.573-11.475Z" fill="url(#linear-gradient-24)"/>
        <path id="Rectangle_4" data-name="Rectangle 4" d="M1.647,0h.359A1.647,1.647,0,0,1,3.653,1.647V163.415a0,0,0,0,1,0,0H0a0,0,0,0,1,0,0V1.647A1.647,1.647,0,0,1,1.647,0Z" transform="translate(213.776 293.501)" fill="#4212ad"/>
        <path id="Rectangle_5" data-name="Rectangle 5" d="M1.647,0h.359A1.647,1.647,0,0,1,3.653,1.647V163.415a0,0,0,0,1,0,0H0a0,0,0,0,1,0,0V1.647A1.647,1.647,0,0,1,1.647,0Z" transform="translate(542.905 293.501)" fill="#4212ad"/>
      </g>
      <g id="Group_74" data-name="Group 74">
        <g id="Group_68" data-name="Group 68">
          <g id="Group_66" data-name="Group 66">
            <path id="Path_130" data-name="Path 130" d="M258.58,56.789c-1.433-4.975-4.137-9.5-9.511-9.877-4.46-.313-8.522,3.087-11.248,6.256-9.148,10.632-10.693,26.142-9.775,39.657.583,8.6,3.925,19.3,14.667,18.346,9-.8,12.812-9.662,14.7-17.3,2.281-9.236,3.613-18.854,2.686-28.368A49.237,49.237,0,0,0,258.58,56.789Z" fill="#968fe8"/>
          </g>
          <g id="Group_67" data-name="Group 67">
            <line id="Line_1" data-name="Line 1" x2="0.393" y2="76.917" transform="translate(244.344 57.927)" fill="none" stroke="#4d1e84" stroke-miterlimit="10" stroke-width="1"/>
            <path id="Path_131" data-name="Path 131" d="M233.987,95.923c.839,1.869,3.072,4.971,5.189,5.741a12.654,12.654,0,0,0,4.954.832" fill="none" stroke="#4d1e84" stroke-miterlimit="10" stroke-width="1"/>
            <path id="Path_132" data-name="Path 132" d="M245.185,95.679c1.73.191,4.169-2.162,5.031-3.428.935-1.373,2.077-3.7,2.029-5.335" fill="none" stroke="#4d1e84" stroke-miterlimit="10" stroke-width="1"/>
            <path id="Path_133" data-name="Path 133" d="M235.447,85.293c.019,1.973,2.264,3.775,3.814,4.706a9.715,9.715,0,0,0,4.95,1.623" fill="none" stroke="#4d1e84" stroke-miterlimit="10" stroke-width="1"/>
            <path id="Path_134" data-name="Path 134" d="M245.266,79.126c1.254.141,2.713-1.08,3.524-1.908.718-.732,2.066-2.388,2.075-3.448" fill="none" stroke="#4d1e84" stroke-miterlimit="10" stroke-width="1"/>
            <path id="Path_135" data-name="Path 135" d="M239.261,67.684c.556,1.125.683,2.353,1.416,3.452.486.726,2.742,2.15,3.534,1.5" fill="none" stroke="#4d1e84" stroke-miterlimit="10" stroke-width="1"/>
          </g>
        </g>
        <g id="Group_70" data-name="Group 70">
          <path id="Path_136" data-name="Path 136" d="M415.165,51.892c0-1.8-.162-3.742-.165-5.659-.007-4,6.039-4.288,6.366-.3a27.111,27.111,0,0,1,.064,2.716,3.168,3.168,0,0,0,4.017,3.113c6.469-1.893,5.481,7.546,3.511,15.357a3.136,3.136,0,0,0,3.7,3.781c2.081-.323,3.887.916,4.694,4.824a13.57,13.57,0,0,1-1.146,8.292,3.177,3.177,0,0,0,2.827,4.364c9.328.512,6.611,10.291,1.549,18.217a3.274,3.274,0,0,0,1.642,4.932c1.239.363,2.054,1.305,2.695,3.523.956,3.3-6.04,6.089-6.723,9.261-1.532,7.112.168,15.965-5.633,20.635-14.638,11.782-33.193-5.357-40.206-17.752-2.325-4.11-4.1-8.675-3.424-13.512.594-4.275,6.036-10.822,9.435-4.437-2.753-4.01-6.484-10.811-6.4-15.742.046-2.928,2.958-6.431,5.625-6.978a3.179,3.179,0,0,0,2.235-4.109c-.971-3.056-1.908-6.178-1.315-9.366,1.214-6.534,8.922-6.037,10.148.278-1.839-4.28-4.013-12.7-2.6-17.411,2.085-6.923,8.748-7.425,8.094.012" fill="#e6e6ff"/>
          <g id="Group_69" data-name="Group 69">
            <line id="Line_2" data-name="Line 2" x2="0.559" y2="109.215" transform="translate(418.136 61.749)" fill="none" stroke="#4d1e84" stroke-miterlimit="10" stroke-width="1"/>
            <path id="Path_137" data-name="Path 137" d="M418.754,134.48c2.927-.01,5.344-1.641,7.318-3.745a13.971,13.971,0,0,0,2.429-3.981c.426-.952,1.65-3.073,1.429-3.911" fill="none" stroke="#4d1e84" stroke-miterlimit="10" stroke-width="1"/>
            <path id="Path_138" data-name="Path 138" d="M403.43,115.7c1.191,2.655,4.361,7.058,7.368,8.152a17.978,17.978,0,0,0,7.034,1.181" fill="none" stroke="#4d1e84" stroke-miterlimit="10" stroke-width="1"/>
            <path id="Path_139" data-name="Path 139" d="M419.33,115.354c2.457.27,5.92-3.07,7.143-4.868,1.328-1.95,2.95-5.253,2.881-7.576" fill="none" stroke="#4d1e84" stroke-miterlimit="10" stroke-width="1"/>
            <path id="Path_140" data-name="Path 140" d="M405.5,100.605c.027,2.8,3.214,5.36,5.416,6.683,2.049,1.232,4.821,2.436,7.028,2.305" fill="none" stroke="#4d1e84" stroke-miterlimit="10" stroke-width="1"/>
            <path id="Path_141" data-name="Path 141" d="M419.445,91.849c1.781.2,3.852-1.533,5-2.708,1.019-1.04,2.933-3.391,2.946-4.9" fill="none" stroke="#4d1e84" stroke-miterlimit="10" stroke-width="1"/>
            <path id="Path_142" data-name="Path 142" d="M410.919,75.6c.789,1.6.97,3.342,2.011,4.9.689,1.032,3.893,3.053,5.017,2.127" fill="none" stroke="#4d1e84" stroke-miterlimit="10" stroke-width="1"/>
          </g>
        </g>
        <g id="Group_73" data-name="Group 73">
          <g id="Group_71" data-name="Group 71">
            <path id="Path_143" data-name="Path 143" d="M643.736,201.526c-3.181-11.042-9.183-21.084-21.109-21.922-9.9-.7-18.915,6.852-24.966,13.886-20.3,23.6-23.733,58.02-21.7,88.016,1.3,19.077,8.713,42.832,32.555,40.72,19.97-1.768,28.434-21.445,32.619-38.388,5.063-20.5,8.02-41.846,5.962-62.964A109.469,109.469,0,0,0,643.736,201.526Z" fill="#968fe8"/>
          </g>
          <g id="Group_72" data-name="Group 72">
            <line id="Line_3" data-name="Line 3" x2="0.873" y2="170.715" transform="translate(612.138 204.051)" fill="none" stroke="#4d1e84" stroke-miterlimit="10" stroke-width="1"/>
            <path id="Path_144" data-name="Path 144" d="M589.151,288.382c1.862,4.15,6.818,11.033,11.517,12.742,3.139,1.143,7.662,2.181,11,1.846" fill="none" stroke="#4d1e84" stroke-miterlimit="10" stroke-width="1"/>
            <path id="Path_145" data-name="Path 145" d="M614.005,287.842c3.84.422,9.253-4.8,11.166-7.609,2.075-3.048,4.611-8.211,4.5-11.842" fill="none" stroke="#4d1e84" stroke-miterlimit="10" stroke-width="1"/>
            <path id="Path_146" data-name="Path 146" d="M592.393,264.789c.041,4.381,5.023,8.378,8.464,10.446,3.2,1.925,7.537,3.808,10.987,3.6" fill="none" stroke="#4d1e84" stroke-miterlimit="10" stroke-width="1"/>
            <path id="Path_147" data-name="Path 147" d="M614.185,251.1c2.784.314,6.021-2.4,7.821-4.233,1.594-1.626,4.586-5.3,4.606-7.654" fill="none" stroke="#4d1e84" stroke-miterlimit="10" stroke-width="1"/>
            <path id="Path_148" data-name="Path 148" d="M600.858,225.707c1.234,2.5,1.515,5.223,3.143,7.661,1.077,1.613,6.086,4.772,7.843,3.325" fill="none" stroke="#4d1e84" stroke-miterlimit="10" stroke-width="1"/>
          </g>
        </g>
        <ellipse id="Ellipse_9" data-name="Ellipse 9" cx="30.781" cy="7.336" rx="30.781" ry="7.336" transform="translate(582.23 367.43)" fill="#c9cbea" style="mix-blend-mode: multiply;isolation: isolate"/>
        <path id="Path_149" data-name="Path 149" d="M397.786,171.658c0,2.935,9.982,5.314,22.3,5.314s22.3-2.379,22.3-5.314-9.983-5.314-22.3-5.314S397.786,168.723,397.786,171.658Z" fill="#c9cbea" style="mix-blend-mode: multiply;isolation: isolate"/>
        <path id="Path_150" data-name="Path 150" d="M219.575,134.844c0,3.228,10.982,5.846,24.53,5.846s24.529-2.618,24.529-5.846S257.652,129,244.1,129,219.575,131.615,219.575,134.844Z" fill="#c9cbea" style="mix-blend-mode: multiply;isolation: isolate"/>
      </g>
    </g>
  </g>
</svg>
