<svg width="54" height="54" viewBox="0 0 54 54" fill="none" xmlns="http://www.w3.org/2000/svg">
<path d="M10.9688 2.53125H43.0312V19.4062H10.9688V2.53125Z" fill="#C6C5CA"/>
<path d="M29.5312 40.5C29.5312 38.9336 30.1535 37.4313 31.2611 36.3236C32.3688 35.216 33.8711 34.5938 35.4375 34.5938H45.5625C47.1289 34.5938 48.6312 35.216 49.7389 36.3236C50.8465 37.4313 51.4688 38.9336 51.4688 40.5V49.7812C51.4674 50.2284 51.2892 50.6568 50.973 50.973C50.6568 51.2892 50.2284 51.4674 49.7812 51.4688H47.8828C47.4737 51.4681 47.0787 51.3189 46.7714 51.0488C46.4641 50.7788 46.2654 50.4063 46.2122 50.0006L45.6047 45.4528C45.5781 45.25 45.4787 45.0637 45.3251 44.9287C45.1714 44.7937 44.9739 44.7191 44.7694 44.7188H36.2306C36.0261 44.7191 35.8286 44.7937 35.6749 44.9287C35.5213 45.0637 35.4219 45.25 35.3953 45.4528L34.7878 50.0006C34.7346 50.4063 34.5359 50.7788 34.2286 51.0488C33.9213 51.3189 33.5263 51.4681 33.1172 51.4688H31.2188C30.7716 51.4674 30.3432 51.2892 30.027 50.973C29.7108 50.6568 29.5326 50.2284 29.5312 49.7812V40.5Z" fill="#ACABB1"/>
<path d="M2.53125 40.5C2.53125 38.9336 3.15351 37.4313 4.26115 36.3236C5.36879 35.216 6.87107 34.5938 8.4375 34.5938H18.5625C20.1289 34.5938 21.6312 35.216 22.7388 36.3236C23.8465 37.4313 24.4688 38.9336 24.4688 40.5V49.7812C24.4674 50.2284 24.2892 50.6568 23.973 50.973C23.6568 51.2892 23.2284 51.4674 22.7812 51.4688H20.8828C20.4737 51.4681 20.0787 51.3189 19.7714 51.0488C19.4641 50.7788 19.2654 50.4063 19.2122 50.0006L18.6047 45.4528C18.5781 45.25 18.4787 45.0637 18.3251 44.9287C18.1714 44.7937 17.9739 44.7191 17.7694 44.7188H9.23062C9.02607 44.7191 8.82859 44.7937 8.67493 44.9287C8.52127 45.0637 8.4219 45.25 8.39531 45.4528L7.78781 50.0006C7.73463 50.4063 7.53589 50.7788 7.22858 51.0488C6.92126 51.3189 6.5263 51.4681 6.11719 51.4688H4.21875C3.77161 51.4674 3.34316 51.2892 3.02698 50.973C2.7108 50.6568 2.53259 50.2284 2.53125 49.7812V40.5Z" fill="#ACABB1"/>
<path d="M35.4375 34.5938H37.125C35.5586 34.5938 34.0563 35.216 32.9486 36.3236C31.841 37.4313 31.2188 38.9336 31.2188 40.5V49.7812C31.2201 50.2284 31.3983 50.6568 31.7145 50.973C32.0307 51.2892 32.4591 51.4674 32.9062 51.4688H31.2188C30.7716 51.4674 30.3432 51.2892 30.027 50.973C29.7108 50.6568 29.5326 50.2284 29.5312 49.7812V40.5C29.5312 38.9336 30.1535 37.4313 31.2611 36.3236C32.3688 35.216 33.8711 34.5938 35.4375 34.5938Z" fill="#898890"/>
<path d="M49.5703 51.4688H47.8828C47.4737 51.4681 47.0787 51.3189 46.7714 51.0488C46.4641 50.7788 46.2654 50.4063 46.2122 50.0006L45.6047 45.4528C45.5781 45.25 45.4787 45.0637 45.3251 44.9287C45.1714 44.7937 44.9739 44.7191 44.7694 44.7188H46.4569C46.6614 44.7191 46.8589 44.7937 47.0126 44.9287C47.1662 45.0637 47.2656 45.25 47.2922 45.4528L47.8997 50.0006C47.9529 50.4063 48.1516 50.7788 48.4589 51.0488C48.7662 51.3189 49.1612 51.4681 49.5703 51.4688Z" fill="#898890"/>
<path d="M8.4375 34.5938H10.125C8.55857 34.5938 7.05629 35.216 5.94865 36.3236C4.84101 37.4313 4.21875 38.9336 4.21875 40.5V49.7812C4.22009 50.2284 4.3983 50.6568 4.71448 50.973C5.03066 51.2892 5.45911 51.4674 5.90625 51.4688H4.21875C3.77161 51.4674 3.34316 51.2892 3.02698 50.973C2.7108 50.6568 2.53259 50.2284 2.53125 49.7812V40.5C2.53125 38.9336 3.15351 37.4313 4.26115 36.3236C5.36879 35.216 6.87107 34.5938 8.4375 34.5938Z" fill="#898890"/>
<path d="M22.5703 51.4688H20.8828C20.4737 51.4681 20.0787 51.3189 19.7714 51.0488C19.4641 50.7788 19.2654 50.4063 19.2122 50.0006L18.6047 45.4528C18.5781 45.25 18.4787 45.0637 18.3251 44.9287C18.1714 44.7937 17.9739 44.7191 17.7694 44.7188H19.4569C19.6614 44.7191 19.8589 44.7937 20.0126 44.9287C20.1662 45.0637 20.2656 45.25 20.2922 45.4528L20.8997 50.0006C20.9529 50.4063 21.1516 50.7788 21.4589 51.0488C21.7662 51.3189 22.1612 51.4681 22.5703 51.4688Z" fill="#898890"/>
<path d="M23.625 26.1562H10.9688V21.0938V19.4062H21.0938H32.9062H43.0312V21.0938V26.1562H30.375H23.625Z" fill="#ACABB1"/>
<path d="M10.9688 2.53125H12.6562V19.4062H10.9688V2.53125Z" fill="#ACABB1"/>
<path d="M10.9688 19.4062H12.6562V26.1562H10.9688V19.4062Z" fill="#898890"/>
<path d="M37.9688 16.0312C38.9007 16.0312 39.6562 15.2757 39.6562 14.3438C39.6562 13.4118 38.9007 12.6562 37.9688 12.6562C37.0368 12.6562 36.2812 13.4118 36.2812 14.3438C36.2812 15.2757 37.0368 16.0312 37.9688 16.0312Z" fill="#FFA733"/>
<path d="M32.9062 12.5381V19.4062H21.0938V12.5381C21.6752 13.5959 22.5301 14.4781 23.5691 15.0925C24.608 15.707 25.7929 16.0311 27 16.0311C28.2071 16.0311 29.392 15.707 30.4309 15.0925C31.4699 14.4781 32.3248 13.5959 32.9062 12.5381Z" fill="#D1D3D4"/>
<path d="M33.75 9.28125C33.7531 10.4213 33.4625 11.543 32.9062 12.5381C32.3247 13.5959 31.4699 14.4781 30.4309 15.0925C29.3919 15.707 28.207 16.0311 27 16.0311C25.7929 16.0311 24.608 15.707 23.5691 15.0925C22.5301 14.4781 21.6752 13.5959 21.0937 12.5381C20.5374 11.543 20.2468 10.4213 20.25 9.28125C20.2493 7.63996 20.8496 6.05521 21.9375 4.82625V2.53125H32.0625V4.82625C33.1504 6.05521 33.7507 7.63996 33.75 9.28125Z" fill="#E6E7E8"/>
<path d="M16.0312 16.0312C16.9632 16.0312 17.7188 15.2757 17.7188 14.3438C17.7188 13.4118 16.9632 12.6562 16.0312 12.6562C15.0993 12.6562 14.3438 13.4118 14.3438 14.3438C14.3438 15.2757 15.0993 16.0312 16.0312 16.0312Z" fill="#FF5023"/>
<path d="M10.125 38.8125H8.4375V37.125H6.75V38.8125H5.0625V40.5H6.75V42.1875H8.4375V40.5H10.125V38.8125Z" fill="#FF9811"/>
<path d="M18.5625 37.125H20.25V38.8125H18.5625V37.125Z" fill="#D8D7DA"/>
<path d="M20.25 38.8125H21.9375V40.5H20.25V38.8125Z" fill="#D8D7DA"/>
<path d="M18.5625 40.5H20.25V42.1875H18.5625V40.5Z" fill="#D8D7DA"/>
<path d="M16.875 38.8125H18.5625V40.5H16.875V38.8125Z" fill="#D8D7DA"/>
<path d="M10.9688 37.125H12.6562V38.8125H10.9688V37.125Z" fill="#C6C5CA"/>
<path d="M14.3438 37.125H16.0312V38.8125H14.3438V37.125Z" fill="#C6C5CA"/>
<path d="M37.125 38.8125H35.4375V37.125H33.75V38.8125H32.0625V40.5H33.75V42.1875H35.4375V40.5H37.125V38.8125Z" fill="#FF9811"/>
<path d="M45.5625 37.125H47.25V38.8125H45.5625V37.125Z" fill="#D8D7DA"/>
<path d="M47.25 38.8125H48.9375V40.5H47.25V38.8125Z" fill="#D8D7DA"/>
<path d="M45.5625 40.5H47.25V42.1875H45.5625V40.5Z" fill="#D8D7DA"/>
<path d="M43.875 38.8125H45.5625V40.5H43.875V38.8125Z" fill="#D8D7DA"/>
<path d="M37.9688 37.125H39.6562V38.8125H37.9688V37.125Z" fill="#C6C5CA"/>
<path d="M41.3438 37.125H43.0312V38.8125H41.3438V37.125Z" fill="#C6C5CA"/>
<path d="M41.3438 34.5938H39.6562V32.0625H30.375C30.1512 32.0625 29.9366 31.9736 29.7784 31.8154C29.6201 31.6571 29.5312 31.4425 29.5312 31.2188V22.7812H31.2188V30.375H40.5C40.7238 30.375 40.9384 30.4639 41.0966 30.6221C41.2549 30.7804 41.3438 30.995 41.3438 31.2188V34.5938Z" fill="#C6C5CA"/>
<path d="M14.3438 34.5938H12.6562V29.5312C12.6562 29.3075 12.7451 29.0929 12.9034 28.9346C13.0616 28.7764 13.2762 28.6875 13.5 28.6875H22.7812V22.7812H24.4688V29.5312C24.4688 29.755 24.3799 29.9696 24.2216 30.1279C24.0634 30.2861 23.8488 30.375 23.625 30.375H14.3438V34.5938Z" fill="#C6C5CA"/>
<path d="M28.6875 21.9375H32.0625V23.625H28.6875V21.9375Z" fill="#898890"/>
<path d="M21.9375 21.9375H25.3125V23.625H21.9375V21.9375Z" fill="#898890"/>
<path d="M24.4688 11.8125H29.5312V13.5H24.4688V11.8125Z" fill="#C6C5CA"/>
<path d="M25.3125 9.28125H28.6875V10.9688H25.3125V9.28125Z" fill="#C6C5CA"/>
</svg>
