<svg xmlns="http://www.w3.org/2000/svg" width="636.26" height="395.838" viewBox="0 0 636.26 395.838">
  <g id="OBJECTS" transform="translate(-49.04 -52.081)">
    <g id="Group_30" data-name="Group 30">
      <circle id="Ellipse_1" data-name="Ellipse 1" cx="71.551" cy="71.551" r="71.551" transform="translate(49.04 171.219) rotate(-45)" fill="#f2edff"/>
      <circle id="Ellipse_2" data-name="Ellipse 2" cx="8.666" cy="8.666" r="8.666" transform="translate(246.682 148.995)" fill="#f2edff"/>
      <circle id="Ellipse_3" data-name="Ellipse 3" cx="8.666" cy="8.666" r="8.666" transform="translate(76.034 244.985)" fill="#f2edff"/>
      <circle id="Ellipse_4" data-name="Ellipse 4" cx="10.665" cy="10.665" r="10.665" transform="matrix(0.16, -0.987, 0.987, 0.16, 211.781, 221.141)" fill="#f2edff"/>
      <circle id="Ellipse_5" data-name="Ellipse 5" cx="13.665" cy="13.665" r="13.665" transform="translate(243.021 185.325) rotate(-45)" fill="#f2edff"/>
      <circle id="Ellipse_6" data-name="Ellipse 6" cx="8.666" cy="8.666" r="8.666" transform="translate(500.653 182.325)" fill="#f2edff"/>
      <circle id="Ellipse_7" data-name="Ellipse 7" cx="10.665" cy="10.665" r="10.665" transform="translate(607.975 121.665)" fill="#f2edff"/>
      <circle id="Ellipse_8" data-name="Ellipse 8" cx="13.665" cy="13.665" r="13.665" transform="translate(502.653 204.989)" fill="#f2edff"/>
      <circle id="Ellipse_9" data-name="Ellipse 9" cx="13.665" cy="13.665" r="13.665" transform="translate(641.196 277.476) rotate(-76.718)" fill="#f2edff"/>
      <circle id="Ellipse_10" data-name="Ellipse 10" cx="56.553" cy="56.553" r="56.553" transform="matrix(0.23, -0.973, 0.973, 0.23, 524.812, 256.928)" fill="#f2edff"/>
      <circle id="Ellipse_11" data-name="Ellipse 11" cx="2.947" cy="2.947" r="2.947" transform="translate(131.914 405.068)" fill="#080927"/>
      <circle id="Ellipse_12" data-name="Ellipse 12" cx="2.947" cy="2.947" r="2.947" transform="translate(131.914 394.067)" fill="#080927"/>
      <circle id="Ellipse_13" data-name="Ellipse 13" cx="2.947" cy="2.947" r="2.947" transform="translate(131.914 383.852)" fill="#080927"/>
      <path id="Path_1" data-name="Path 1" d="M210.517,405.633a2.947,2.947,0,1,1-2.947,2.947A2.949,2.949,0,0,1,210.517,405.633Z" fill="#080927"/>
      <path id="Path_2" data-name="Path 2" d="M199.516,405.633a2.947,2.947,0,1,1-2.947,2.947A2.949,2.949,0,0,1,199.516,405.633Z" fill="#080927"/>
      <path id="Path_3" data-name="Path 3" d="M188.515,405.633a2.947,2.947,0,1,1-2.947,2.947A2.949,2.949,0,0,1,188.515,405.633Z" fill="#080927"/>
      <path id="Path_4" data-name="Path 4" d="M224.464,408.58a2.947,2.947,0,1,1-2.946-2.947A2.949,2.949,0,0,1,224.464,408.58Z" fill="#080927"/>
      <path id="Path_5" data-name="Path 5" d="M166.522,405.633a2.947,2.947,0,1,1-2.947,2.947A2.949,2.949,0,0,1,166.522,405.633Z" fill="#080927"/>
      <path id="Path_6" data-name="Path 6" d="M155.521,405.633a2.947,2.947,0,1,1-2.947,2.947A2.949,2.949,0,0,1,155.521,405.633Z" fill="#080927"/>
      <path id="Path_7" data-name="Path 7" d="M144.52,405.633a2.947,2.947,0,1,1-2.947,2.947A2.949,2.949,0,0,1,144.52,405.633Z" fill="#080927"/>
      <path id="Path_8" data-name="Path 8" d="M180.469,408.58a2.946,2.946,0,1,1-2.946-2.947A2.949,2.949,0,0,1,180.469,408.58Z" fill="#080927"/>
      <circle id="Ellipse_14" data-name="Ellipse 14" cx="2.947" cy="2.947" r="2.947" transform="translate(609.861 405.068)" fill="#080927"/>
      <circle id="Ellipse_15" data-name="Ellipse 15" cx="2.947" cy="2.947" r="2.947" transform="translate(609.861 394.067)" fill="#080927"/>
      <circle id="Ellipse_16" data-name="Ellipse 16" cx="2.947" cy="2.947" r="2.947" transform="translate(609.861 383.852)" fill="#080927"/>
      <path id="Path_9" data-name="Path 9" d="M537.151,405.633a2.947,2.947,0,1,0,2.947,2.947A2.95,2.95,0,0,0,537.151,405.633Z" fill="#080927"/>
      <path id="Path_10" data-name="Path 10" d="M548.152,405.633a2.947,2.947,0,1,0,2.947,2.947A2.949,2.949,0,0,0,548.152,405.633Z" fill="#080927"/>
      <path id="Path_11" data-name="Path 11" d="M559.153,405.633a2.947,2.947,0,1,0,2.947,2.947A2.949,2.949,0,0,0,559.153,405.633Z" fill="#080927"/>
      <path id="Path_12" data-name="Path 12" d="M523.2,408.58a2.947,2.947,0,1,0,2.946-2.947A2.95,2.95,0,0,0,523.2,408.58Z" fill="#080927"/>
      <path id="Path_13" data-name="Path 13" d="M504.488,405.633a2.947,2.947,0,1,0,2.947,2.947A2.949,2.949,0,0,0,504.488,405.633Z" fill="#080927"/>
      <path id="Path_14" data-name="Path 14" d="M515.489,405.633a2.947,2.947,0,1,0,2.947,2.947A2.949,2.949,0,0,0,515.489,405.633Z" fill="#080927"/>
      <path id="Path_15" data-name="Path 15" d="M581.147,405.633a2.947,2.947,0,1,0,2.946,2.947A2.95,2.95,0,0,0,581.147,405.633Z" fill="#080927"/>
      <path id="Path_16" data-name="Path 16" d="M592.147,405.633a2.947,2.947,0,1,0,2.947,2.947A2.949,2.949,0,0,0,592.147,405.633Z" fill="#080927"/>
      <path id="Path_17" data-name="Path 17" d="M603.148,405.633a2.947,2.947,0,1,0,2.947,2.947A2.949,2.949,0,0,0,603.148,405.633Z" fill="#080927"/>
      <path id="Path_18" data-name="Path 18" d="M567.2,408.58a2.947,2.947,0,1,0,2.947-2.947A2.95,2.95,0,0,0,567.2,408.58Z" fill="#080927"/>
      <rect id="Rectangle_2" data-name="Rectangle 2" width="610.599" height="17.246" rx="3.901" transform="translate(74.701 430.674)" fill="#080927"/>
      <g id="Group_1" data-name="Group 1">
        <rect id="Rectangle_3" data-name="Rectangle 3" width="156.827" height="85.54" rx="3.901" transform="translate(515.038 293.646)" fill="#213150"/>
        <rect id="Rectangle_4" data-name="Rectangle 4" width="42.926" height="71.167" rx="3.901" transform="translate(523.799 300.832)" fill="#ffd582"/>
        <rect id="Rectangle_5" data-name="Rectangle 5" width="42.926" height="71.167" rx="3.901" transform="translate(572.062 300.832)" fill="#ffd582"/>
        <rect id="Rectangle_6" data-name="Rectangle 6" width="42.926" height="71.167" rx="3.901" transform="translate(620.325 300.832)" fill="#ffd582"/>
        <path id="Path_19" data-name="Path 19" d="M560.934,314.393a.3.3,0,0,0-.3-.08l-.213.058h0c-3.35.913-6.365,1.623-9.333,1.054a21.443,21.443,0,0,1-5.183-1.977c-.834-.4-1.7-.82-2.569-1.176-1.931-.787-5.589-1.83-8.392.026a7.451,7.451,0,0,0-3.028,5.37,19.084,19.084,0,0,0,.5,6.151c.209,1.019.719,1.183,1,1.189.525-.008.836-.465,1.072-.842a5.632,5.632,0,0,1,4.906-2.254h.075a20.092,20.092,0,0,1,4.116.618c.586.129,1.172.259,1.76.367a9.587,9.587,0,0,0,5.622-.3,6.7,6.7,0,0,1-1.879,3.364c-1.3,1.507-2.684,3-4.018,4.44-2.025,2.19-4.119,4.454-6.009,6.834-3.717,4.679-5.984,9.06-6.931,13.4-.666,3.05-.472,5.595.577,7.568,1.366,2.567,4.074,3.377,6.947,3.377a29.506,29.506,0,0,0,9.9-2.2,1.329,1.329,0,0,0,.88-.792,1.343,1.343,0,0,0-.174-.911c-2.891-6.065-3.874-11.938-2.844-16.985s4.027-9.431,6.927-13.681c2.623-3.843,5.335-7.816,6.656-12.314A.3.3,0,0,0,560.934,314.393Z" fill="#f0626e"/>
        <path id="Path_20" data-name="Path 20" d="M608.9,314.393a.3.3,0,0,0-.294-.08l-.214.058h0c-3.351.913-6.366,1.623-9.334,1.054a21.452,21.452,0,0,1-5.182-1.977c-.834-.4-1.7-.82-2.569-1.176-1.932-.787-5.59-1.83-8.393.026a7.455,7.455,0,0,0-3.028,5.37,19.056,19.056,0,0,0,.5,6.151c.209,1.019.718,1.183,1,1.189.526-.008.836-.465,1.073-.842a5.629,5.629,0,0,1,4.9-2.254h.076a20.091,20.091,0,0,1,4.116.618c.586.129,1.172.259,1.76.367a9.585,9.585,0,0,0,5.621-.3,6.694,6.694,0,0,1-1.878,3.364c-1.306,1.507-2.685,3-4.018,4.44-2.026,2.19-4.12,4.454-6.01,6.834-3.717,4.679-5.984,9.06-6.93,13.4-.667,3.05-.473,5.595.576,7.568,1.367,2.567,4.075,3.377,6.947,3.377a29.506,29.506,0,0,0,9.9-2.2,1.077,1.077,0,0,0,.707-1.7c-2.891-6.065-3.875-11.938-2.845-16.985s4.027-9.431,6.928-13.681c2.622-3.843,5.334-7.816,6.655-12.314A.3.3,0,0,0,608.9,314.393Z" fill="#f0626e"/>
        <path id="Path_21" data-name="Path 21" d="M656.857,314.393a.3.3,0,0,0-.295-.08l-.213.058h0c-3.35.913-6.365,1.623-9.333,1.054a21.443,21.443,0,0,1-5.183-1.977c-.834-.4-1.7-.82-2.568-1.176-1.932-.787-5.59-1.83-8.393.026a7.451,7.451,0,0,0-3.028,5.37,19.082,19.082,0,0,0,.5,6.151c.21,1.019.719,1.183,1,1.189.525-.008.836-.465,1.072-.842a5.631,5.631,0,0,1,4.906-2.254h.075a20.081,20.081,0,0,1,4.116.618c.586.129,1.172.259,1.76.367a9.588,9.588,0,0,0,5.622-.3,6.7,6.7,0,0,1-1.879,3.364c-1.3,1.507-2.684,3-4.017,4.44-2.026,2.19-4.12,4.454-6.01,6.834-3.717,4.679-5.984,9.06-6.931,13.4-.666,3.05-.472,5.595.577,7.568,1.366,2.567,4.074,3.377,6.947,3.377a29.507,29.507,0,0,0,9.9-2.2,1.329,1.329,0,0,0,.88-.792,1.344,1.344,0,0,0-.174-.911c-2.891-6.065-3.874-11.938-2.844-16.985s4.027-9.431,6.927-13.681c2.623-3.843,5.335-7.816,6.656-12.314A.3.3,0,0,0,656.857,314.393Z" fill="#f0626e"/>
        <path id="Path_22" data-name="Path 22" d="M518.772,366.094v8.7a2.354,2.354,0,0,0,2.353,2.353H665.778a2.354,2.354,0,0,0,2.353-2.353V328.923C618.421,341.613,568.468,353.346,518.772,366.094Z" fill="#4a1e43" opacity="0.3" style="mix-blend-mode: overlay;isolation: isolate"/>
      </g>
      <g id="Group_3" data-name="Group 3">
        <g id="Group_2" data-name="Group 2">
          <rect id="Rectangle_7" data-name="Rectangle 7" width="103.56" height="90.014" rx="6.097" transform="translate(89.829 378.97) rotate(-90)" fill="#213150"/>
          <rect id="Rectangle_8" data-name="Rectangle 8" width="45.918" height="76.128" rx="2.64" transform="translate(96.772 328.232) rotate(-90)" fill="#dbccff"/>
          <path id="Path_23" data-name="Path 23" d="M128.028,348.86h-5.333v-5.332a1.666,1.666,0,0,0-1.666-1.667h-6a1.667,1.667,0,0,0-1.667,1.667v5.332H108.03a1.666,1.666,0,0,0-1.666,1.667v6a1.666,1.666,0,0,0,1.666,1.667h5.333v5.332a1.667,1.667,0,0,0,1.667,1.667h6a1.666,1.666,0,0,0,1.666-1.667v-5.332h5.333a1.667,1.667,0,0,0,1.667-1.667v-6A1.667,1.667,0,0,0,128.028,348.86Z" fill="#ffd582"/>
          <path id="Path_24" data-name="Path 24" d="M153.181,347.551a6.577,6.577,0,1,1-6.577-6.577A6.577,6.577,0,0,1,153.181,347.551Z" fill="#f0626e"/>
          <path id="Path_25" data-name="Path 25" d="M164.691,359.061a6.577,6.577,0,1,1-6.577-6.577A6.577,6.577,0,0,1,164.691,359.061Z" fill="#f0626e"/>
          <path id="Path_26" data-name="Path 26" d="M129.167,358.564c-11.317,6.137-22.65,12.244-33.821,18.645q-1.356.778-2.71,1.561a4.079,4.079,0,0,0,1.257.2h81.886a4.064,4.064,0,0,0,4.064-4.064v-43.6Q154.466,344.861,129.167,358.564Z" fill="#4a1e43" opacity="0.3" style="mix-blend-mode: overlay;isolation: isolate"/>
        </g>
        <path id="Path_27" data-name="Path 27" d="M124.122,313.236c-9.129,2.861-18.2,5.955-27.35,8.75v4.486a1.76,1.76,0,0,0,1.76,1.76H171.14a1.76,1.76,0,0,0,1.76-1.76V298.256C156.627,303.2,140.353,308.147,124.122,313.236Z" fill="#4a1e43" opacity="0.3" style="mix-blend-mode: overlay;isolation: isolate"/>
      </g>
      <g id="Group_23" data-name="Group 23">
        <path id="Path_28" data-name="Path 28" d="M382.992,85.986a45.575,45.575,0,0,0-21.135-19.034,47.445,47.445,0,0,0-28.71-3.309,56.481,56.481,0,0,0-27.012,13.946,59.46,59.46,0,0,0-9.54,11.257c-.471.72.683,1.389,1.151.673,11-16.805,31.547-28.273,51.9-24.9a46.787,46.787,0,0,1,25.2,12.841c7.386,7.351,12.425,17.872,11.431,28.465-.545,5.808-3.311,10.918-7.133,15.232a51.5,51.5,0,0,1-6.661,6.282,30.408,30.408,0,0,0-.388-7.643c-1.626-9.025-7.561-17.778-16.587-20.639-7.971-2.526-17.784-.326-23.124,6.34-5.55,6.929-4.475,16.892.672,23.726,6.007,7.975,16.274,9.8,25.506,7.11a42.2,42.2,0,0,0,12.252-6.007,40.029,40.029,0,0,1-9.445,19.057c-14.329,16.522-37.125,21.709-57.921,24.041-22.9,2.569-46.958,2.294-68.182,12.491a83.1,83.1,0,0,0-39.481,40.953c-8.1,18.311-10.217,41.964,2.352,58.851,13.383,17.981,36.984,22.619,58.087,22.9,6.116.082,12.232-.124,18.344-.334.855-.029.859-1.363,0-1.333-23.379.8-49.735,1.375-68.608-14.821A44.244,44.244,0,0,1,191,263.626c-1.348-10.877.492-22.016,4.352-32.219a81.858,81.858,0,0,1,39.934-44.026c22.008-10.823,47.18-10,70.953-12.955,21.092-2.618,44.145-8.6,57.806-26.218a39.771,39.771,0,0,0,8.253-18.96c.148-.112.3-.218.447-.33A45.987,45.987,0,0,0,383.6,117.5C389.776,107.833,388.375,95.686,382.992,85.986Zm-16.105,45.272c-8.513,4.948-20,7.505-28.6,1.3-7.085-5.115-10.746-15.613-6.553-23.647,4.066-7.792,14.01-10.866,22.207-8.811,9.356,2.346,15.393,11.271,16.929,20.4a28.836,28.836,0,0,1,.2,8.015A47.629,47.629,0,0,1,366.887,131.258Z" fill="#080927"/>
        <path id="Path_29" data-name="Path 29" d="M601.7,134.032a26.307,26.307,0,0,0-42.732-16.742c-6.477,5.268-10.4,13.259-11.947,21.381-.519-.623-1.032-1.251-1.527-1.888-13.316-17.151-18.368-39.025-30.59-56.855-5.416-7.9-12.258-15.119-20.862-19.542A47.68,47.68,0,0,0,469.974,55.4c-16.987.832-33.42,9.878-42.01,24.745-9.012,15.6-9.195,35.528-1.757,51.766a54.261,54.261,0,0,0,6.872,11.17c.534.672,1.472-.277.943-.942-11.49-14.459-14.828-34.872-8.958-52.332a47.423,47.423,0,0,1,15.041-21.83,51.778,51.778,0,0,1,23.046-10.449,48.783,48.783,0,0,1,25.158,1.819c9.081,3.243,16.566,9.657,22.457,17.168,13.383,17.063,18.53,38.769,30.516,56.67a74.2,74.2,0,0,0,5.457,7.189c-1.641,10.976.965,22.117,4.373,32.511,3.633,11.077,8.367,21.831,10.762,33.284a56.979,56.979,0,0,1-1.592,30.617,62.649,62.649,0,0,1-15.135,23.8c-14.767,14.643-35.917,20.759-56.375,19.538a89.108,89.108,0,0,1-15.214-2.257c-.834-.2-1.19,1.088-.355,1.286,20.006,4.732,42.039,2.825,59.97-7.681,15.993-9.37,28.131-25.924,30.876-44.407,3.443-23.18-9.855-43.716-14.764-65.589a58.946,58.946,0,0,1-1.342-19.743,55.45,55.45,0,0,0,14.152,11.364c8.114,4.466,18.343,6.77,27.319,3.587A17.943,17.943,0,0,0,599.7,147.91,23.629,23.629,0,0,0,601.7,134.032Zm-6.058,17.3c-7,7.041-18.709,6.372-27.322,3.173-7.833-2.91-14.63-8.228-20.145-14.488a39.739,39.739,0,0,1,2.512-9.022c3.49-8.432,10.231-15.652,19.368-17.7a25.139,25.139,0,0,1,26.123,10.147C601.578,131.409,602.938,143.992,595.645,151.33Z" fill="#080927"/>
        <g id="Group_20" data-name="Group 20">
          <rect id="Rectangle_9" data-name="Rectangle 9" width="263.918" height="191.312" rx="3.901" transform="translate(493.928 415.808) rotate(180)" fill="#213150"/>
          <rect id="Rectangle_10" data-name="Rectangle 10" width="238.64" height="169.237" rx="3.901" transform="translate(481.288 404.77) rotate(180)" fill="#f0626e"/>
          <rect id="Rectangle_11" data-name="Rectangle 11" width="301.207" height="15.697" rx="3.901" transform="translate(210.019 415.267)" fill="#dbccff"/>
          <path id="Path_30" data-name="Path 30" d="M478.939,421.213c-60.013,1.237-119.937,3.67-179.852,6.146-23.995.991-47.943,1.756-71.834,3.5l-1.484.107H506.906c2.386,0,4.32-1.246,4.32-2.783V420.65Q495.08,420.881,478.939,421.213Z" fill="#4a1e43" opacity="0.3" style="mix-blend-mode: overlay;isolation: isolate"/>
          <path id="Path_31" data-name="Path 31" d="M472.591,264.264c-44.151,27.726-87.6,56.806-133.077,82.341-36.959,20.753-75.135,40.175-109.505,65.139v1.463a2.6,2.6,0,0,0,2.6,2.6H491.327a2.6,2.6,0,0,0,2.6-2.6V250.944Q483.241,257.574,472.591,264.264Z" fill="#4a1e43" opacity="0.3" style="mix-blend-mode: overlay;isolation: isolate"/>
          <g id="Group_10" data-name="Group 10">
            <g id="Group_4" data-name="Group 4">
              <path id="Path_32" data-name="Path 32" d="M419.574,370.046l-50.121-12.1a9.222,9.222,0,0,1-6.793-11.116l12.1-50.121a9.222,9.222,0,0,1,11.115-6.793l50.121,12.1a9.222,9.222,0,0,1,6.794,11.115l-12.1,50.121A9.222,9.222,0,0,1,419.574,370.046Zm-34.633-76.268a5.247,5.247,0,0,0-6.326,3.865l-12.1,50.121a5.249,5.249,0,0,0,3.866,6.327l50.121,12.1a5.249,5.249,0,0,0,6.327-3.867l12.1-50.121a5.249,5.249,0,0,0-3.867-6.326Z" fill="#f9f2ff"/>
            </g>
            <g id="Group_9" data-name="Group 9">
              <g id="Group_8" data-name="Group 8">
                <g id="Group_5" data-name="Group 5">
                  <path id="Path_33" data-name="Path 33" d="M404.553,332.977a3.509,3.509,0,1,1,1.165-4.824A3.513,3.513,0,0,1,404.553,332.977Z" fill="#f9f2ff"/>
                </g>
                <g id="Group_6" data-name="Group 6">
                  <path id="Path_34" data-name="Path 34" d="M419.794,323.663a3.509,3.509,0,1,1,1.164-4.825A3.514,3.514,0,0,1,419.794,323.663Z" fill="#f9f2ff"/>
                </g>
                <g id="Group_7" data-name="Group 7">
                  <path id="Path_35" data-name="Path 35" d="M389.313,342.291a3.509,3.509,0,1,1,1.165-4.824A3.513,3.513,0,0,1,389.313,342.291Z" fill="#f9f2ff"/>
                </g>
              </g>
            </g>
          </g>
          <g id="Group_19" data-name="Group 19">
            <g id="Group_11" data-name="Group 11">
              <path id="Path_36" data-name="Path 36" d="M313.97,355.988,277.542,319.5a9.223,9.223,0,0,1,.011-13.027l36.489-36.428a9.223,9.223,0,0,1,13.028.011L363.5,306.544a9.223,9.223,0,0,1-.011,13.027L327,356A9.221,9.221,0,0,1,313.97,355.988Zm10.291-83.129a5.249,5.249,0,0,0-7.414-.006l-36.49,36.428a5.249,5.249,0,0,0-.005,7.414l36.427,36.489a5.248,5.248,0,0,0,7.414.006l36.489-36.428a5.249,5.249,0,0,0,.007-7.414Z" fill="#f9f2ff"/>
            </g>
            <g id="Group_18" data-name="Group 18">
              <g id="Group_12" data-name="Group 12">
                <path id="Path_37" data-name="Path 37" d="M315.989,308.483a3.509,3.509,0,1,1,0-4.963A3.513,3.513,0,0,1,315.989,308.483Z" fill="#f9f2ff"/>
              </g>
              <g id="Group_13" data-name="Group 13">
                <path id="Path_38" data-name="Path 38" d="M328.629,295.864a3.509,3.509,0,1,1,0-4.963A3.513,3.513,0,0,1,328.629,295.864Z" fill="#f9f2ff"/>
              </g>
              <g id="Group_14" data-name="Group 14">
                <path id="Path_39" data-name="Path 39" d="M303.349,321.1a3.509,3.509,0,1,1,0-4.963A3.513,3.513,0,0,1,303.349,321.1Z" fill="#f9f2ff"/>
              </g>
              <g id="Group_15" data-name="Group 15">
                <path id="Path_40" data-name="Path 40" d="M330.01,322.527a3.509,3.509,0,1,1,0-4.962A3.514,3.514,0,0,1,330.01,322.527Z" fill="#f9f2ff"/>
              </g>
              <g id="Group_16" data-name="Group 16">
                <path id="Path_41" data-name="Path 41" d="M342.65,309.908a3.509,3.509,0,1,1,0-4.962A3.514,3.514,0,0,1,342.65,309.908Z" fill="#f9f2ff"/>
              </g>
              <g id="Group_17" data-name="Group 17">
                <path id="Path_42" data-name="Path 42" d="M317.37,335.146a3.509,3.509,0,1,1,0-4.962A3.513,3.513,0,0,1,317.37,335.146Z" fill="#f9f2ff"/>
              </g>
            </g>
          </g>
        </g>
        <line id="Line_1" data-name="Line 1" x2="36.428" y2="36.489" transform="translate(327.07 270.055)" fill="#f9f2ff"/>
        <g id="Group_21" data-name="Group 21">
          <rect id="Rectangle_12" data-name="Rectangle 12" width="13.255" height="21.975" rx="2.64" transform="translate(426.889 154.27) rotate(-121.672)" fill="#dbccff"/>
          <path id="Path_43" data-name="Path 43" d="M462.6,122.933l-61.271,37.8a30.663,30.663,0,1,0,46.765,25.977l16.74-10.328a30.664,30.664,0,1,0-2.234-53.448Z" fill="#213150"/>
          <path id="Path_44" data-name="Path 44" d="M477.212,136.238a5,5,0,1,1-6.88-1.63A5,5,0,0,1,477.212,136.238Z" fill="#f0626e"/>
          <path id="Path_45" data-name="Path 45" d="M489.112,155.527a5,5,0,1,1-6.88-1.63A5,5,0,0,1,489.112,155.527Z" fill="#f0626e"/>
          <path id="Path_46" data-name="Path 46" d="M491.176,146.812a5,5,0,1,1,1.631-6.88A5,5,0,0,1,491.176,146.812Z" fill="#f0626e"/>
          <path id="Path_47" data-name="Path 47" d="M471.888,158.712a5,5,0,1,1,1.63-6.88A5,5,0,0,1,471.888,158.712Z" fill="#f0626e"/>
          <path id="Path_48" data-name="Path 48" d="M423.384,176.675l-5.252,3.24-3.24-5.251a1.927,1.927,0,0,0-2.653-.629l-5.908,3.645a1.928,1.928,0,0,0-.629,2.654l3.24,5.251-5.252,3.24a1.928,1.928,0,0,0-.629,2.654l3.645,5.908a1.928,1.928,0,0,0,2.654.629l5.252-3.24,3.24,5.252a1.927,1.927,0,0,0,2.653.628l5.908-3.645a1.927,1.927,0,0,0,.629-2.653l-3.24-5.252,5.252-3.24a1.928,1.928,0,0,0,.629-2.654l-3.645-5.908A1.929,1.929,0,0,0,423.384,176.675Z" fill="#ffd582"/>
          <path id="Path_49" data-name="Path 49" d="M444.209,181.344c-12.842,11.256-25.8,22.4-38.511,33.812a30.66,30.66,0,0,0,42.391-28.447l16.74-10.328a30.664,30.664,0,0,0,39.962-43.451,31.017,31.017,0,0,0-2.628-3.635Q473.555,155.728,444.209,181.344Z" fill="#4a1e43" opacity="0.3" style="mix-blend-mode: overlay;isolation: isolate"/>
        </g>
        <g id="Group_22" data-name="Group 22">
          <rect id="Rectangle_13" data-name="Rectangle 13" width="13.255" height="21.976" rx="2.64" transform="matrix(0.737, -0.676, 0.676, 0.737, 284.171, 85.904)" fill="#dbccff"/>
          <path id="Path_50" data-name="Path 50" d="M321.674,115.066,273.007,62.015a30.663,30.663,0,1,0-16.7,50.822l13.3,14.5a30.664,30.664,0,1,0,52.069-12.266Z" fill="#213150"/>
          <path id="Path_51" data-name="Path 51" d="M311.363,131.928a5,5,0,1,1,.3-7.064A5,5,0,0,1,311.363,131.928Z" fill="#f0626e"/>
          <path id="Path_52" data-name="Path 52" d="M294.662,147.249a5,5,0,1,1,.3-7.063A5,5,0,0,1,294.662,147.249Z" fill="#f0626e"/>
          <path id="Path_53" data-name="Path 53" d="M303.609,147.635a5,5,0,1,1,7.064.3A5,5,0,0,1,303.609,147.635Z" fill="#f0626e"/>
          <path id="Path_54" data-name="Path 54" d="M288.288,130.934a5,5,0,1,1,7.064.3A5,5,0,0,1,288.288,130.934Z" fill="#f0626e"/>
          <path id="Path_55" data-name="Path 55" d="M261.506,86.684l-4.171-4.547,4.547-4.171A1.929,1.929,0,0,0,262,75.241l-4.693-5.115a1.927,1.927,0,0,0-2.724-.118l-4.548,4.172-4.171-4.547a1.929,1.929,0,0,0-2.725-.118l-5.115,4.693a1.929,1.929,0,0,0-.118,2.725l4.172,4.547-4.547,4.171a1.929,1.929,0,0,0-.118,2.725l4.693,5.116a1.93,1.93,0,0,0,2.725.117l4.547-4.172,4.172,4.548a1.928,1.928,0,0,0,2.724.117l5.116-4.693A1.929,1.929,0,0,0,261.506,86.684Z" fill="#dbccff"/>
          <path id="Path_56" data-name="Path 56" d="M260.845,108.016c-13.473-10.491-26.857-21.12-40.462-31.45a30.658,30.658,0,0,0,35.925,36.271l13.3,14.5a30.665,30.665,0,0,0,50.2,31.058,31.049,31.049,0,0,0,3.075-3.267Q291.531,132.01,260.845,108.016Z" fill="#4a1e43" opacity="0.3" style="mix-blend-mode: overlay;isolation: isolate"/>
        </g>
      </g>
      <g id="Group_24" data-name="Group 24">
        <rect id="Rectangle_14" data-name="Rectangle 14" width="25.932" height="25.932" rx="3.413" transform="translate(129.933 210.071) rotate(-81.237)" fill="#213150"/>
        <rect id="Rectangle_15" data-name="Rectangle 15" width="25.932" height="25.932" rx="3.413" transform="translate(125.591 238.402) rotate(-81.237)" fill="#213150"/>
        <path id="Rectangle_16" data-name="Rectangle 16" d="M3.413,0H22.519a3.413,3.413,0,0,1,3.413,3.413V22.519a3.413,3.413,0,0,1-3.413,3.413H3.414A3.414,3.414,0,0,1,0,22.519V3.413A3.413,3.413,0,0,1,3.413,0Z" transform="translate(154.591 242.847) rotate(-81.237)" fill="#213150"/>
        <rect id="Rectangle_17" data-name="Rectangle 17" width="25.932" height="25.932" rx="3.413" transform="translate(96.781 233.986) rotate(-81.237)" fill="#213150"/>
      </g>
      <g id="Group_25" data-name="Group 25">
        <rect id="Rectangle_18" data-name="Rectangle 18" width="25.932" height="25.932" rx="3.413" transform="translate(103.938 119.544) rotate(-10.632)" fill="#ffd582"/>
        <path id="Rectangle_19" data-name="Rectangle 19" d="M3.414,0H22.519a3.413,3.413,0,0,1,3.413,3.413V22.519a3.413,3.413,0,0,1-3.413,3.413H3.414A3.414,3.414,0,0,1,0,22.519V3.414A3.414,3.414,0,0,1,3.414,0Z" transform="translate(109.25 147.709) rotate(-10.632)" fill="#ffd582"/>
        <path id="Rectangle_20" data-name="Rectangle 20" d="M3.414,0H22.519a3.413,3.413,0,0,1,3.413,3.413V22.519a3.413,3.413,0,0,1-3.413,3.413H3.413A3.413,3.413,0,0,1,0,22.519V3.414A3.414,3.414,0,0,1,3.414,0Z" transform="translate(138.081 142.271) rotate(-10.632)" fill="#ffd582"/>
        <path id="Rectangle_21" data-name="Rectangle 21" d="M3.414,0H22.519a3.413,3.413,0,0,1,3.413,3.413V22.519a3.413,3.413,0,0,1-3.413,3.413H3.413A3.413,3.413,0,0,1,0,22.519V3.414A3.414,3.414,0,0,1,3.414,0Z" transform="translate(75.296 124.942) rotate(-10.632)" fill="#ffd582"/>
      </g>
      <g id="Group_26" data-name="Group 26">
        <rect id="Rectangle_22" data-name="Rectangle 22" width="25.932" height="25.932" rx="3.413" transform="matrix(0.962, -0.273, 0.273, 0.962, 176.586, 148.571)" fill="#f0626e"/>
        <path id="Rectangle_23" data-name="Rectangle 23" d="M3.413,0H22.519a3.413,3.413,0,0,1,3.413,3.413V22.519a3.413,3.413,0,0,1-3.413,3.413H3.414A3.414,3.414,0,0,1,0,22.519V3.413A3.413,3.413,0,0,1,3.413,0Z" transform="matrix(0.962, -0.273, 0.273, 0.962, 168.746, 120.998)" fill="#f0626e"/>
        <path id="Rectangle_24" data-name="Rectangle 24" d="M3.414,0H22.519a3.413,3.413,0,0,1,3.413,3.413V22.519a3.413,3.413,0,0,1-3.413,3.413H3.414A3.414,3.414,0,0,1,0,22.519V3.414A3.414,3.414,0,0,1,3.414,0Z" transform="matrix(0.962, -0.273, 0.273, 0.962, 184.424, 176.139)" fill="#f0626e"/>
        <path id="Rectangle_25" data-name="Rectangle 25" d="M3.413,0H22.519a3.413,3.413,0,0,1,3.413,3.413V22.519a3.413,3.413,0,0,1-3.413,3.413H3.414A3.414,3.414,0,0,1,0,22.519V3.413A3.413,3.413,0,0,1,3.413,0Z" transform="translate(212.645 168.115) rotate(-15.824)" fill="#f0626e"/>
      </g>
      <g id="Group_27" data-name="Group 27">
        <rect id="Rectangle_26" data-name="Rectangle 26" width="52.379" height="52.379" rx="6.894" transform="matrix(0.693, -0.721, 0.721, 0.693, 590.277, 180.594)" fill="#213150"/>
        <path id="Path_57" data-name="Path 57" d="M627.4,184.219a4.37,4.37,0,1,0-3.12-1.215A4.362,4.362,0,0,0,627.4,184.219Z" fill="#ffd582"/>
        <path id="Path_58" data-name="Path 58" d="M627.7,165.982h0a4.345,4.345,0,0,0,3.062-1.341h0a4.376,4.376,0,1,0-3.066,1.342Z" fill="#ffd582"/>
        <path id="Path_59" data-name="Path 59" d="M605.937,177.864a4.371,4.371,0,1,0,6.182-.125A4.342,4.342,0,0,0,605.937,177.864Z" fill="#ffd582"/>
        <path id="Path_60" data-name="Path 60" d="M645.437,174.437h0a4.371,4.371,0,0,0,.18,8.741h0a4.371,4.371,0,0,0-.179-8.741Z" fill="#ffd582"/>
        <path id="Path_61" data-name="Path 61" d="M626.916,193.718h0a4.37,4.37,0,1,0,3.121,1.218A4.344,4.344,0,0,0,626.912,193.718Z" fill="#ffd582"/>
      </g>
      <g id="Group_28" data-name="Group 28">
        <rect id="Rectangle_27" data-name="Rectangle 27" width="52.379" height="52.379" rx="6.894" transform="translate(520.362 192.757) rotate(-42.699)" fill="#dbccff"/>
        <path id="Path_62" data-name="Path 62" d="M543.551,193.017v0a4.342,4.342,0,0,0-1.155-3.137h0a4.373,4.373,0,1,0,1.155,3.14Z" fill="#213150"/>
        <path id="Path_63" data-name="Path 63" d="M554.1,215.456a4.372,4.372,0,1,0,.249-6.179A4.341,4.341,0,0,0,554.1,215.456Z" fill="#213150"/>
        <path id="Path_64" data-name="Path 64" d="M553.058,175.821v0a4.371,4.371,0,0,0,8.736.347v0a4.371,4.371,0,0,0-8.736-.347Z" fill="#213150"/>
        <path id="Path_65" data-name="Path 65" d="M571.189,195.47v0a4.368,4.368,0,1,0,1.4-3.042A4.338,4.338,0,0,0,571.189,195.474Z" fill="#213150"/>
      </g>
      <g id="Group_29" data-name="Group 29">
        <rect id="Rectangle_28" data-name="Rectangle 28" width="52.379" height="52.379" rx="6.894" transform="translate(571.866 270.807) rotate(-78.817)" fill="#f0626e"/>
        <path id="Path_66" data-name="Path 66" d="M604.363,260.016a4.37,4.37,0,1,0-.661-3.282A4.361,4.361,0,0,0,604.363,260.016Z" fill="#f9f2ff"/>
        <path id="Path_67" data-name="Path 67" d="M598.129,238.518a4.372,4.372,0,1,0,3.442,5.138A4.345,4.345,0,0,0,598.129,238.518Z" fill="#f9f2ff"/>
      </g>
    </g>
  </g>
</svg>
