<svg width="54" height="54" viewBox="0 0 54 54" fill="none" xmlns="http://www.w3.org/2000/svg">
<path d="M54 39.2636V47.0213C54 47.6216 53.5134 48.1082 52.9136 48.1082H33.9865V39.2636C33.9865 36.6434 36.1107 34.5188 38.7313 34.5188H49.2551C51.8758 34.5188 54 36.6434 54 39.2636Z" fill="#EB5777"/>
<path d="M41.4822 39.4581V48.1082H33.9865V39.2636C33.9865 36.643 36.1107 34.5188 38.7313 34.5188H39.6394C40.788 35.8445 41.4822 37.572 41.4822 39.4581Z" fill="#CE3F63"/>
<path d="M44.1065 37.1905C43.2133 37.1905 42.4891 36.4662 42.4891 35.573V31.0358H45.724V35.573C45.724 36.4662 44.9997 37.1905 44.1065 37.1905Z" fill="#E39F6E"/>
<path d="M35.5496 24.7085H52.6635L53.1151 22.5069C54.2843 16.8041 49.9275 11.4644 44.1066 11.4644C38.2856 11.4644 33.9292 16.8041 35.0984 22.5069L35.5496 24.7085Z" fill="#BA6F3C"/>
<path d="M53.6181 25.57C53.6181 26.773 52.6433 27.7478 51.4403 27.7478C50.2377 27.7478 49.263 26.773 49.263 25.57C49.263 24.3674 50.2377 23.3926 51.4403 23.3926C52.6433 23.3926 53.6181 24.3674 53.6181 25.57Z" fill="#E39F6E"/>
<path d="M38.9501 25.5704C38.9501 26.773 37.9758 27.7482 36.7723 27.7482C35.5697 27.7482 34.5946 26.773 34.5946 25.5704C34.5946 25.3867 34.6168 25.2074 34.6613 25.0369C34.8986 24.093 35.7535 23.3926 36.7723 23.3926C37.8044 23.3926 38.6683 24.1107 38.8924 25.074C38.9299 25.233 38.9501 25.3998 38.9501 25.5704Z" fill="#E39F6E"/>
<path d="M38.8924 25.074C38.2777 25.427 37.5662 25.6281 36.8078 25.6281C36.0242 25.6281 35.2904 25.4122 34.6613 25.0369C34.8986 24.093 35.7535 23.3926 36.7723 23.3926C37.8044 23.3926 38.6683 24.1107 38.8924 25.074Z" fill="#D88852"/>
<path d="M37.2527 19.4792L37.9992 25.4559L38.2823 27.7226C38.6494 30.6597 41.1468 32.8642 44.1061 32.8642C47.0667 32.8642 49.5641 30.6597 49.9304 27.7226L50.9599 19.4792H37.2527Z" fill="#F8C298"/>
<path d="M41.0121 21.4242C41.0121 23.3292 39.7382 24.9413 37.9992 25.4559L37.1987 19.0491H40.2763C40.7406 19.726 41.0121 20.5433 41.0121 21.4242Z" fill="#E39F6E"/>
<path d="M40.9185 26.2605C40.4785 26.2605 40.1164 25.9099 40.1045 25.4678L40.095 25.1226C40.0826 24.6727 40.4373 24.2982 40.8872 24.2858C41.3375 24.2718 41.7116 24.6282 41.724 25.0781L41.7334 25.4233C41.7458 25.8732 41.3911 26.2477 40.9412 26.2601C40.9334 26.2601 40.926 26.2605 40.9185 26.2605Z" fill="#AA5B26"/>
<path d="M47.3035 26.2605C46.8635 26.2605 46.5014 25.9099 46.489 25.4678L46.4796 25.1226C46.4672 24.6727 46.8219 24.2982 47.2722 24.2858C47.7225 24.2718 48.0966 24.6282 48.109 25.0781L48.1184 25.4233C48.1308 25.8732 47.7761 26.2477 47.3262 26.2601C47.3184 26.2601 47.3109 26.2605 47.3035 26.2605Z" fill="#AA5B26"/>
<path d="M44.1066 29.3195C43.0807 29.3195 42.1088 28.8226 41.5061 27.9904C41.242 27.6258 41.3236 27.1166 41.6882 26.8525C42.0528 26.5884 42.562 26.67 42.8261 27.0346C43.1232 27.4449 43.6019 27.6897 44.1066 27.6897C44.6113 27.6897 45.0904 27.4449 45.3874 27.0346C45.6515 26.67 46.1607 26.5884 46.5253 26.8525C46.89 27.1166 46.9715 27.6258 46.7074 27.9904C46.1047 28.8226 45.1324 29.3195 44.1066 29.3195Z" fill="#E39F6E"/>
<path d="M37.8514 48.9227C37.401 48.9227 37.0364 48.5581 37.0364 48.1082V40.7006C37.0364 40.2507 37.401 39.8857 37.8514 39.8857C38.3012 39.8857 38.6659 40.2507 38.6659 40.7006V48.1082C38.6663 48.5581 38.3012 48.9227 37.8514 48.9227Z" fill="black"/>
<path d="M50.9492 40.7002V48.1082H49.3194V40.7002C49.3194 40.2503 49.6844 39.8853 50.1343 39.8853C50.585 39.8853 50.9492 40.2503 50.9492 40.7002Z" fill="#CE3F63"/>
<path d="M35.9719 19.6485C35.9719 19.6485 37.4332 21.0979 41.3681 21.2029C41.6169 21.2095 41.8208 21.0093 41.8208 20.7605V20.1767C41.8208 20.1767 43.2517 21.1152 46.2835 21.2025C46.5323 21.2095 46.7363 21.0089 46.7363 20.76V20.4288C46.7363 20.4288 47.9154 21.1485 51.449 21.2054C51.6958 21.2091 51.8976 21.0093 51.8976 20.7629V18.6144C51.8976 18.333 51.6694 18.1052 51.3884 18.1052H37.5152C36.6628 18.1052 35.9719 18.7961 35.9719 19.6485Z" fill="#BA6F3C"/>
<path d="M41.3755 22.0178C41.3643 22.0178 41.3532 22.0174 41.3421 22.0174C38.7791 21.9486 37.1654 21.3364 36.2631 20.835C35.8697 20.6163 35.7284 20.1202 35.9467 19.7268C36.1655 19.3333 36.6615 19.192 37.055 19.4104C37.6297 19.7297 38.8858 20.2619 41.0059 20.3732V20.1767C41.0059 19.8772 41.1703 19.6015 41.434 19.4594C41.6972 19.3169 42.0178 19.3309 42.2678 19.4952C42.2744 19.4994 43.4651 20.2335 45.9234 20.3715C45.9411 20.0926 46.0898 19.8339 46.3379 19.7012C46.6007 19.5607 46.9052 19.5661 47.154 19.7284C47.2512 19.7783 48.3376 20.3027 51.1474 20.3835C51.5973 20.3963 51.9516 20.7712 51.9388 21.2215C51.9256 21.6709 51.5499 22.0248 51.1008 22.0125C49.2597 21.9597 48.0472 21.7274 47.3011 21.5123C47.2615 21.5647 47.2179 21.6145 47.1701 21.6611C46.9274 21.8967 46.5937 22.0257 46.2555 22.0166C44.5412 21.9672 43.2883 21.6545 42.4808 21.3665C42.4215 21.4736 42.3461 21.5725 42.2559 21.6602C42.0215 21.8885 41.7022 22.0178 41.3755 22.0178Z" fill="#AA5B26"/>
<path d="M20.0135 39.2636V48.1082H1.08641C0.486557 48.1082 0 47.6216 0 47.0213V39.2636C0 36.6434 2.12421 34.5188 4.74486 34.5188H15.2687C17.8893 34.5188 20.0135 36.6434 20.0135 39.2636Z" fill="#4FCEB7"/>
<path d="M20.0135 39.2636V48.1082H12.5178V39.4581C12.5178 37.572 13.212 35.8445 14.3606 34.5188H15.2687C17.8893 34.5188 20.0135 36.643 20.0135 39.2636Z" fill="#3DB4A0"/>
<path d="M10.1209 37.1905C9.22728 37.1905 8.50342 36.4662 8.50342 35.573V31.0358H11.7383V35.573C11.7383 36.4662 11.0141 37.1905 10.1209 37.1905Z" fill="#E39F6E"/>
<path d="M1.56347 24.7085H18.6778L19.1294 22.5069C20.2982 16.8041 15.9418 11.4644 10.1209 11.4644C4.29989 11.4644 -0.0564606 16.8041 1.11235 22.5069L1.56347 24.7085Z" fill="#BA6F3C"/>
<path d="M19.6324 25.5704C19.6324 26.773 18.6573 27.7482 17.4547 27.7482C16.2525 27.7482 15.2769 26.773 15.2769 25.5704C15.2769 25.3867 15.2991 25.2074 15.3436 25.0369C15.5809 24.093 16.4358 23.3926 17.4547 23.3926C18.4867 23.3926 19.3519 24.1107 19.5748 25.0748C19.6127 25.2342 19.6324 25.3998 19.6324 25.5704Z" fill="#E39F6E"/>
<path d="M19.5748 25.0748C18.9601 25.4266 18.2486 25.6281 17.4913 25.6281C16.7077 25.6281 15.9727 25.4122 15.3436 25.0369C15.5809 24.093 16.4358 23.3926 17.4547 23.3926C18.4871 23.3926 19.3519 24.1107 19.5748 25.0748Z" fill="#D88852"/>
<path d="M4.96445 25.57C4.96445 26.773 3.98969 27.7478 2.78709 27.7478C1.58409 27.7478 0.609329 26.773 0.609329 25.57C0.609329 24.3674 1.58409 23.3926 2.78709 23.3926C3.98969 23.3926 4.96445 24.3674 4.96445 25.57Z" fill="#E39F6E"/>
<path d="M3.26706 19.4792L4.29662 27.7226C4.66411 30.6597 7.16034 32.8642 10.1209 32.8642C13.0814 32.8642 15.5777 30.6597 15.9451 27.7226L16.2311 25.4357L16.9747 19.4792H3.26706Z" fill="#F8C298"/>
<path d="M13.7661 19.4792C13.4609 20.0617 13.2874 20.7225 13.2874 21.4242C13.2874 23.3036 14.5267 24.8989 16.2311 25.4357L16.9747 19.4796H13.7661V19.4792Z" fill="#E39F6E"/>
<path d="M6.9325 26.2605C6.49291 26.2605 6.13078 25.9099 6.11842 25.4678L6.10894 25.1226C6.09658 24.6727 6.4513 24.2982 6.90119 24.2858C7.35314 24.2718 7.72599 24.6282 7.73835 25.0781L7.74783 25.4233C7.76019 25.8732 7.40547 26.2477 6.95557 26.2601C6.94775 26.2601 6.94033 26.2605 6.9325 26.2605Z" fill="#AA5B26"/>
<path d="M13.3175 26.2605C12.8779 26.2605 12.5154 25.9099 12.5034 25.4678L12.4939 25.1226C12.4816 24.6727 12.8363 24.2982 13.2862 24.2858C13.7381 24.2718 14.1106 24.6282 14.1229 25.0781L14.1324 25.4233C14.1448 25.8732 13.7905 26.2477 13.3402 26.2601C13.3327 26.2601 13.3249 26.2605 13.3175 26.2605Z" fill="#AA5B26"/>
<path d="M10.1209 29.3195C9.09502 29.3195 8.12273 28.8226 7.52 27.9904C7.25591 27.6258 7.33749 27.1166 7.7021 26.8525C8.0667 26.5884 8.57592 26.67 8.84 27.0346C9.13705 27.4449 9.61619 27.6897 10.1209 27.6897C10.6256 27.6897 11.1043 27.4449 11.4013 27.0346C11.6654 26.67 12.1746 26.5884 12.5392 26.8525C12.9038 27.1166 12.9854 27.6258 12.7213 27.9904C12.1186 28.8226 11.1467 29.3195 10.1209 29.3195Z" fill="#E39F6E"/>
<path d="M4.68059 40.7002V48.1082H3.05118V40.7002C3.05118 40.2503 3.41496 39.8853 3.86568 39.8853C4.31557 39.8853 4.68059 40.2503 4.68059 40.7002Z" fill="#3DB4A0"/>
<path d="M16.1487 48.9227C15.6988 48.9227 15.3342 48.5581 15.3342 48.1082V40.7006C15.3342 40.2507 15.6988 39.8857 16.1487 39.8857C16.599 39.8857 16.9636 40.2507 16.9636 40.7006V48.1082C16.9636 48.5581 16.599 48.9227 16.1487 48.9227Z" fill="black"/>
<path d="M1.98578 19.6485C1.98578 19.6485 3.4471 21.0979 7.38199 21.2029C7.63083 21.2095 7.83517 21.0093 7.83517 20.7605V20.1767C7.83517 20.1767 9.26601 21.1152 12.2974 21.2025C12.5467 21.2095 12.7506 21.0089 12.7506 20.76V20.4288C12.7506 20.4288 13.9297 21.1485 17.4633 21.2054C17.7097 21.2091 17.9116 21.0093 17.9116 20.7629V18.6144C17.9116 18.333 17.6837 18.1052 17.4028 18.1052H3.5295C2.67709 18.1052 1.98578 18.7961 1.98578 19.6485Z" fill="#BA6F3C"/>
<path d="M17.4608 22.0199C17.4563 22.0199 17.4522 22.0199 17.4477 22.0199C15.4182 21.9874 14.1052 21.7402 13.315 21.5127C13.2759 21.5651 13.2322 21.6145 13.1844 21.6611C12.9418 21.8967 12.608 22.0261 12.2698 22.0166C10.5555 21.9672 9.30226 21.6545 8.49518 21.3665C8.43585 21.4736 8.36046 21.5725 8.26982 21.6606C8.02757 21.8963 7.69386 22.0273 7.35644 22.0174C5.07445 21.956 3.55998 21.4555 2.6911 21.0464C2.28364 20.8544 2.10896 20.3691 2.30095 19.9616C2.49252 19.5546 2.97825 19.3803 3.3853 19.5719C4.0659 19.8924 5.23594 20.2801 7.02026 20.3732V20.1767C7.02026 19.8772 7.18464 19.6015 7.44832 19.4594C7.71158 19.3169 8.0321 19.3309 8.28218 19.4952C8.28918 19.4994 9.47983 20.2335 11.9377 20.3715C11.9555 20.0926 12.1042 19.8339 12.3522 19.7012C12.615 19.5608 12.9195 19.5661 13.1679 19.7284C13.2689 19.7803 14.4319 20.3411 17.474 20.3905C17.9239 20.3975 18.2828 20.7683 18.2758 21.2186C18.2683 21.6639 17.905 22.0199 17.4608 22.0199Z" fill="#AA5B26"/>
<path d="M40.1782 39.4581V50.0181C40.1782 50.618 39.6921 51.1046 39.0918 51.1046H14.9082C14.3079 51.1046 13.8218 50.618 13.8218 50.0181V39.4581C13.8218 36.0065 16.6192 33.2086 20.0704 33.2086H33.9296C37.3808 33.2086 40.1782 36.0065 40.1782 39.4581Z" fill="#A9D2F7"/>
<path d="M18.9119 36.5902V38.2658C18.9119 38.6547 19.227 38.9699 19.616 38.9699C20.0848 38.9699 20.423 39.4198 20.292 39.8705L19.7255 41.8204C19.6642 42.0322 19.7058 42.2608 19.8376 42.4376L22.5003 46.0054V33.2086L19.1595 36.0547C19.0025 36.1881 18.9119 36.3842 18.9119 36.5902Z" fill="#5F9EEB"/>
<path d="M35.3877 36.5902V38.2658C35.3877 38.6547 35.0725 38.9699 34.6836 38.9699C34.2143 38.9699 33.8765 39.4198 34.0075 39.8705L34.5736 41.8204C34.6354 42.0322 34.5938 42.2608 34.4619 42.4376L31.7993 46.0054V33.2086L35.1401 36.0547C35.297 36.1881 35.3877 36.3842 35.3877 36.5902Z" fill="#5F9EEB"/>
<path d="M22.4999 33.2086H31.7997V51.105H22.4999V33.2086Z" fill="#627687"/>
<path d="M40.1782 39.4568V50.0181C40.1782 50.6184 39.6921 51.1046 39.0918 51.1046H38.0491V39.4581C38.0491 36.0073 35.2505 33.2086 31.7997 33.2086H33.93C37.3808 33.2086 40.1782 36.006 40.1782 39.4568Z" fill="#7FB7EA"/>
<path d="M27.15 36.7274C25.9733 36.7274 25.0196 35.7737 25.0196 34.5975V28.622H29.28V34.5975C29.28 35.7737 28.3262 36.7274 27.15 36.7274Z" fill="#F8C298"/>
<path d="M15.8805 20.2891H38.4186L39.0131 17.39C40.5527 9.88028 34.8154 2.84766 27.15 2.84766C19.4837 2.84766 13.7468 9.88028 15.2864 17.39L15.8805 20.2891Z" fill="#FFCF64"/>
<path d="M37.8633 13.3937C37.4134 13.3937 37.0484 13.7587 37.0484 14.2086V15.9571C36.4114 15.946 35.4618 15.8932 34.3705 15.7148V17.362C35.5434 17.5383 36.5416 17.5836 37.1827 17.589H37.1959C37.5893 17.589 37.9597 17.4365 38.2394 17.1593C38.5225 16.8787 38.6782 16.5046 38.6782 16.1058V14.2086C38.6782 13.7587 38.3136 13.3937 37.8633 13.3937Z" fill="#EFC40F"/>
<path d="M16.5726 13.3937C17.0225 13.3937 17.3871 13.7587 17.3871 14.2086V15.9571C18.0244 15.946 18.9737 15.8932 20.0654 15.7148V17.362C18.8925 17.5383 17.8943 17.5836 17.2528 17.589C17.2483 17.589 17.2441 17.589 17.24 17.589C16.8462 17.589 16.4762 17.4365 16.196 17.1593C15.9134 16.8787 15.7573 16.5046 15.7573 16.1058V14.2086C15.7577 13.7587 16.1223 13.3937 16.5726 13.3937Z" fill="#EFC40F"/>
<path d="M39.676 21.4242C39.676 23.0083 38.3919 24.292 36.8078 24.292C35.2241 24.292 33.9399 23.0083 33.9399 21.4242C33.9399 19.8405 35.2241 18.5563 36.8078 18.5563C38.3919 18.5563 39.676 19.8405 39.676 21.4242Z" fill="#F8C298"/>
<path d="M20.3592 21.4242C20.3592 23.0083 19.0754 24.292 17.4913 24.292C15.9077 24.292 14.6235 23.0083 14.6235 21.4242C14.6235 19.8405 15.9077 18.5563 17.4913 18.5563C19.0754 18.5563 20.3592 19.8405 20.3592 21.4242Z" fill="#F8C298"/>
<path d="M18.5942 17.1687L19.4796 24.2582C19.9629 28.1268 23.2513 31.0301 27.1496 31.0301C31.0482 31.0301 34.3363 28.1268 34.8195 24.2582L35.7049 17.1687C35.9698 15.0495 34.3173 13.1774 32.1816 13.1774H22.118C19.9822 13.1774 18.3293 15.0495 18.5942 17.1687Z" fill="#FFD6C0"/>
<path d="M22.9514 22.0751C22.5118 22.0751 22.1493 21.7245 22.1373 21.2824L22.125 20.8276C22.1126 20.3777 22.4673 20.0032 22.9172 19.9909C23.3638 19.9777 23.7416 20.3332 23.754 20.7831L23.7663 21.2375C23.7787 21.6878 23.424 22.0623 22.9741 22.0747C22.9667 22.0747 22.9588 22.0751 22.9514 22.0751Z" fill="#4FCEB7"/>
<path d="M31.3596 22.0751C30.92 22.0751 30.5575 21.7245 30.5455 21.2824L30.5332 20.8276C30.5208 20.3777 30.8755 20.0032 31.3254 19.9909C31.7716 19.9777 32.1498 20.3332 32.1622 20.7831L32.1749 21.2375C32.1873 21.6878 31.8326 22.0623 31.3827 22.0747C31.3749 22.0747 31.367 22.0751 31.3596 22.0751Z" fill="#4FCEB7"/>
<path d="M27.15 26.1039C25.8815 26.1039 24.6793 25.4892 23.934 24.4601C23.6699 24.0955 23.7515 23.5863 24.1161 23.3222C24.4807 23.0585 24.9904 23.1397 25.254 23.5043C25.6936 24.1116 26.4027 24.4741 27.15 24.4741C27.8974 24.4741 28.606 24.1116 29.0456 23.5043C29.3092 23.1397 29.8189 23.0581 30.1835 23.3222C30.5481 23.5863 30.6292 24.0955 30.3656 24.4601C29.6203 25.4892 28.4181 26.1039 27.15 26.1039Z" fill="#F8C298"/>
<path d="M19.7268 44.6602V51.1046H18.097V44.6602C18.097 44.2108 18.462 43.8457 18.9119 43.8457C19.3618 43.8457 19.7268 44.2108 19.7268 44.6602Z" fill="#7FB7EA"/>
<path d="M35.903 44.6602V51.1046H34.2732V44.6602C34.2732 44.2108 34.6382 43.8457 35.0881 43.8457C35.538 43.8457 35.903 44.2108 35.903 44.6602Z" fill="#7FB7EA"/>
<path d="M17.3883 11.9637V15.803C17.3883 16.1742 17.6907 16.4741 18.0623 16.4713C19.8112 16.456 24.0349 16.1511 27.2184 13.7488C30.4022 16.1511 34.6259 16.456 36.3748 16.4713C36.7464 16.4741 37.0484 16.1742 37.0484 15.803V11.9637H17.3883Z" fill="#FFCF64"/>
</svg>
