<svg xmlns="http://www.w3.org/2000/svg" width="472.004" height="318.703" viewBox="0 0 472.004 318.703">
  <g id="OBJECTS" transform="translate(-13.998 -92.631)">
    <g id="Group_2" data-name="Group 2">
      <rect id="Rectangle_2" data-name="Rectangle 2" width="58.607" height="4.469" rx="1.753" transform="translate(53.933 406.866)" fill="#adbec4"/>
      <rect id="Rectangle_3" data-name="Rectangle 3" width="18.582" height="4.469" rx="1.753" transform="translate(443.111 406.866)" fill="#adbec4"/>
      <rect id="Rectangle_4" data-name="Rectangle 4" width="58.607" height="4.469" rx="1.753" transform="translate(157.628 406.866)" fill="#adbec4"/>
      <rect id="Rectangle_5" data-name="Rectangle 5" width="58.607" height="4.469" rx="1.753" transform="translate(238.536 406.866)" fill="#adbec4"/>
      <rect id="Rectangle_6" data-name="Rectangle 6" width="78.62" height="4.469" rx="1.753" transform="translate(317.612 406.866)" fill="#adbec4"/>
    </g>
    <g id="Group_11" data-name="Group 11">
      <path id="Path_1" data-name="Path 1" d="M129.256,161.062s-5.82-3.959-14.331-.909S104.5,174.666,106.6,183.969s-9.623,41.064-9.623,41.064,6.091,8.566,27.379,5.288c0,0,15.873-28.846,14.694-49.555S129.256,161.062,129.256,161.062Z" fill="#0e3944"/>
      <path id="Path_2" data-name="Path 2" d="M135.976,196.846c8-2.558,12.9,4.1,17.48,16.5s6.125,13.641,6.125,13.641l17.693,11.368-1.47,6.625s-16.839-6.593-20.91-10.787-15.783-25.435-15.783-25.435Z" fill="#ef6e4b"/>
      <path id="Path_3" data-name="Path 3" d="M96.984,276.941s-3.471,17.579-2.9,44.04c0,0-13.678,20.17-2.39,77.718h5.921s4.837-48.963,8.538-62.23,17.367-17.338,18.107-57.678Z" fill="#ff8b66"/>
      <path id="Path_4" data-name="Path 4" d="M69.922,328.631c-3.44-11.339-12.283-30.33-34.969-56.072a3.37,3.37,0,0,0-3.182.42c-1.931,1.18-1.931,2.566-1.931,2.566S41.216,300.336,48.47,318.5A16.082,16.082,0,0,0,63.4,328.631Z" fill="#ff8b66"/>
      <path id="Path_5" data-name="Path 5" d="M111.224,350.556s.077,8.461-5.474,8.605c-7.838.211-8.127-8.327-17.009-8.049s-27.2,2.5-33.03-11.381c-3.009-7.172,1.11-16.376-8.6-23.315s-5-14.711,0-18.874-2.153-8.7,3.054-10.825a5.093,5.093,0,0,1,3.6-.067,8.35,8.35,0,0,1,1.887.955,18.244,18.244,0,0,1,4.686,5.018c14.71-40.291,40.9-45.609,40.9-45.609l25.9,8.937C127.755,318.636,111.224,350.556,111.224,350.556Z" fill="#164353"/>
      <path id="Path_6" data-name="Path 6" d="M135.976,196.846a33.921,33.921,0,0,1-14.639.733c-8.6-1.3-11.39-6.7-17.432-3.228-9.071,5.215-4.826,23.165-2.549,32.5.85,3.479,1.926,12.621-.123,20.166,0,0,12.078,9.4,25.9,8.931l7.542-16.4S151.079,219.918,135.976,196.846Z" fill="#cfd8dc"/>
      <path id="Path_7" data-name="Path 7" d="M120.628,181.79a37.077,37.077,0,0,1-2.136,16.216s4.484,6.621,8.764,2.264a42.785,42.785,0,0,1,5.2-16.586C135.675,177.788,120.628,181.79,120.628,181.79Z" fill="#ef6e4b"/>
      <g id="Group_6" data-name="Group 6">
        <path id="Path_8" data-name="Path 8" d="M113.755,182.079s-3.783-2.394-3.356,1.3c.495,4.278,4.667,5.112,5.112,3.616S113.755,182.079,113.755,182.079Z" fill="#ff8b66"/>
        <path id="Path_9" data-name="Path 9" d="M135.457,177.448s2.4-3.778,3.59-.256c1.377,4.08-2.042,6.614-3.082,5.451S135.457,177.448,135.457,177.448Z" fill="#ff8b66"/>
        <path id="Path_10" data-name="Path 10" d="M127.646,194.866c-6.862,1.536-11.738-2.079-14.747-15.52-1.553-6.934,1.023-11.977,8.708-13.7s11.874,1.807,13.427,8.741C138.268,188.833,134.734,193.279,127.646,194.866Z" fill="#ff8b66"/>
        <path id="Path_11" data-name="Path 11" d="M133.835,179.692a1.666,1.666,0,1,1-2-.578A1.492,1.492,0,0,1,133.835,179.692Z" fill="#db614d"/>
        <path id="Path_12" data-name="Path 12" d="M119.806,183.228A1.665,1.665,0,1,1,118,182.2,1.488,1.488,0,0,1,119.806,183.228Z" fill="#db614d"/>
        <g id="Group_3" data-name="Group 3">
          <path id="Path_13" data-name="Path 13" d="M129.057,173.429a.347.347,0,0,1-.194-.059,4.034,4.034,0,0,0-2.854-.363.352.352,0,0,1-.175-.681,4.7,4.7,0,0,1,3.419.459.352.352,0,0,1-.2.644Z" fill="#0e3944"/>
        </g>
        <g id="Group_4" data-name="Group 4">
          <path id="Path_14" data-name="Path 14" d="M116.138,176.322a.355.355,0,0,1-.181-.051.35.35,0,0,1-.119-.482,4.7,4.7,0,0,1,2.9-1.873.357.357,0,0,1,.41.279.352.352,0,0,1-.279.411,4.064,4.064,0,0,0-2.427,1.545A.349.349,0,0,1,116.138,176.322Z" fill="#0e3944"/>
        </g>
        <path id="Path_15" data-name="Path 15" d="M129.358,177.194c.19.852-.039,1.629-.512,1.734s-1.012-.5-1.2-1.35.038-1.629.512-1.735S129.167,176.341,129.358,177.194Z" fill="#1a4850"/>
        <path id="Path_16" data-name="Path 16" d="M119.825,179.245c.191.852-.039,1.629-.512,1.735s-1.012-.5-1.2-1.351.039-1.629.512-1.735S119.634,178.393,119.825,179.245Z" fill="#1a4850"/>
        <path id="Path_17" data-name="Path 17" d="M122.907,187.315s4.407-.359,6.349-2c0,0-.534,3.443-2.932,3.682A3.5,3.5,0,0,1,122.907,187.315Z" fill="#1a4850"/>
        <path id="Path_18" data-name="Path 18" d="M126.956,177.287s.155-2.239,1.013-2.273,1.886,1.624,1.886,1.624l1.073-.918-1.182.432s-1.054-1.733-1.87-1.554C126.715,174.852,126.956,177.287,126.956,177.287Z" fill="#1a4850"/>
        <path id="Path_19" data-name="Path 19" d="M120.351,179.036s-1.1-1.959-1.885-1.624-1.013,2.273-1.013,2.273l-1.363-.373,1.254-.114s.214-2.017,1.029-2.2C119.532,176.73,120.351,179.036,120.351,179.036Z" fill="#1a4850"/>
        <g id="Group_5" data-name="Group 5">
          <path id="Path_20" data-name="Path 20" d="M125.13,183.34l-.353-.67a.876.876,0,0,0,.56-.994.939.939,0,0,0-.654-.747c-.137-.007-.255.11-.347.354l-.71-.264a1.092,1.092,0,0,1,1.115-.846,1.665,1.665,0,0,1,1.338,1.348A1.636,1.636,0,0,1,125.13,183.34Z" fill="#db614d"/>
        </g>
        <path id="Path_21" data-name="Path 21" d="M114.3,184.5s-2.116-7.786-.86-13.292c0,0,5.969-8.312,17.49-4.2a46.476,46.476,0,0,1,5.11,13.2s.43-2.766-.716-8.926-6.612-9.987-14.106-8.755S105.7,171.213,114.3,184.5Z" fill="#0e3944"/>
      </g>
      <path id="Path_22" data-name="Path 22" d="M126.378,165.276s.457,2.033-1.52,7.266a2.159,2.159,0,0,0-3.087,0c-1.665,1.486-5.047.989-6.2,1.793a3.56,3.56,0,0,0-1.154,2.639,7.278,7.278,0,0,1,0-5.028,10.073,10.073,0,0,0-1.949,6.383s-3.047-.492-2.909-5.519,7.285-13.16,15.3-12.633,9.924,13.22,9.924,13.22a2.337,2.337,0,0,0-1.875-.319A16.626,16.626,0,0,0,130.928,167a9,9,0,0,1,0,5.081,7.261,7.261,0,0,0-3.993-.805S128.022,169.153,126.378,165.276Z" fill="#0e3944"/>
      <path id="Path_23" data-name="Path 23" d="M101.87,195.955c3.9-3.075,6.939.837,7.684,6.247s-6.31,37.331-11.75,36.154c-2.1-.454-2.957-8.815-2.957-8.815a192,192,0,0,0,3.5-22.483C98.985,200.85,99.836,197.559,101.87,195.955Z" fill="#ff8b66"/>
      <path id="Path_24" data-name="Path 24" d="M90.519,233.845c-5.252-5.006-14.668-21.611-17.061-30.071l3.986-1.6s12,17.17,17.474,21.5,7.4,9.152,4.951,13.281S91.625,234.9,90.519,233.845Z" fill="#ff8b66"/>
      <g id="Group_7" data-name="Group 7">
        <path id="Path_25" data-name="Path 25" d="M75.1,192.7c-.275,5.43,4.151,6.717,2.187,10.885a2.844,2.844,0,0,1-1.663,1.545,3.366,3.366,0,0,1-3.474-.893,38.377,38.377,0,0,0-7.087-5.367c-1.968-1.136-.853-1.445-.853-1.445-.191-.09-.376-.165-.562-.24-1.4-.588-2.527-.81-1.508-1.435,1.145-.712,5.208.772,5.208.772-5.288-3.521-6.723-2.663-5.757-3.411,1.317-1.024,6.344,1.331,6.494,1.4-2.793-2.641-4.819-3.239-3.71-3.638s6.65,3.6,8.667,5.1c.454.337.733.553.733.553C73.7,192.09,75.1,192.7,75.1,192.7Z" fill="#ff8b66"/>
        <path id="Path_26" data-name="Path 26" d="M73.037,195.975c.454.337.733.553.733.553a3.681,3.681,0,0,0,.279,3.654A3.286,3.286,0,0,1,73.037,195.975Z" fill="#ef6e4b"/>
        <path id="Path_27" data-name="Path 27" d="M68.4,199.093c-.468-.257-3.135-1.759-4.2-1.67-.191-.09-.376-.165-.562-.24C64.356,196.243,67.871,198.708,68.4,199.093Z" fill="#ef6e4b"/>
      </g>
      <g id="Group_8" data-name="Group 8">
        <path id="Path_28" data-name="Path 28" d="M89.365,279.668A1.067,1.067,0,1,1,88.3,278.6,1.067,1.067,0,0,1,89.365,279.668Z" fill="#6097b2"/>
        <path id="Path_29" data-name="Path 29" d="M108.4,287.013a1.068,1.068,0,1,1-1.067-1.067A1.068,1.068,0,0,1,108.4,287.013Z" fill="#6097b2"/>
        <path id="Path_30" data-name="Path 30" d="M124.629,290.952a1.067,1.067,0,1,1-1.067-1.067A1.068,1.068,0,0,1,124.629,290.952Z" fill="#6097b2"/>
        <path id="Path_31" data-name="Path 31" d="M99.7,265.732a1.067,1.067,0,1,1-1.067-1.067A1.068,1.068,0,0,1,99.7,265.732Z" fill="#6097b2"/>
        <circle id="Ellipse_1" data-name="Ellipse 1" cx="1.067" cy="1.067" r="1.067" transform="translate(101.16 274.806)" fill="#6097b2"/>
        <path id="Path_32" data-name="Path 32" d="M120.178,281.654a1.068,1.068,0,1,1-1.067-1.067A1.067,1.067,0,0,1,120.178,281.654Z" fill="#6097b2"/>
        <path id="Path_33" data-name="Path 33" d="M122.5,264.16a1.068,1.068,0,1,1-1.068-1.067A1.068,1.068,0,0,1,122.5,264.16Z" fill="#6097b2"/>
        <circle id="Ellipse_2" data-name="Ellipse 2" cx="1.067" cy="1.067" r="1.067" transform="translate(109.298 259.452)" fill="#6097b2"/>
        <path id="Path_34" data-name="Path 34" d="M79.921,300.487a1.067,1.067,0,1,1-1.067-1.067A1.068,1.068,0,0,1,79.921,300.487Z" fill="#6097b2"/>
        <path id="Path_35" data-name="Path 35" d="M64.711,295.949a1.067,1.067,0,1,1-1.068-1.067A1.068,1.068,0,0,1,64.711,295.949Z" fill="#6097b2"/>
        <path id="Path_36" data-name="Path 36" d="M55.644,287.605a1.073,1.073,0,0,1-1.965-.589.8.8,0,0,1,.078-.366A8.35,8.35,0,0,1,55.644,287.605Z" fill="#6097b2"/>
        <circle id="Ellipse_3" data-name="Ellipse 3" cx="1.067" cy="1.067" r="1.067" transform="translate(83.236 313.339)" fill="#6097b2"/>
        <path id="Path_37" data-name="Path 37" d="M58.072,329.534a1.067,1.067,0,1,1-1.067-1.068A1.067,1.067,0,0,1,58.072,329.534Z" fill="#6097b2"/>
        <circle id="Ellipse_4" data-name="Ellipse 4" cx="1.067" cy="1.067" r="1.067" transform="translate(67.09 319.297)" fill="#6097b2"/>
        <circle id="Ellipse_5" data-name="Ellipse 5" cx="1.067" cy="1.067" r="1.067" transform="translate(50.48 311.184)" fill="#6097b2"/>
        <path id="Path_38" data-name="Path 38" d="M66.022,344.2a1.068,1.068,0,1,1-1.067-1.067A1.068,1.068,0,0,1,66.022,344.2Z" fill="#6097b2"/>
        <path id="Path_39" data-name="Path 39" d="M76.184,288.081a1.067,1.067,0,1,1-1.068-1.068A1.068,1.068,0,0,1,76.184,288.081Z" fill="#6097b2"/>
        <path id="Path_40" data-name="Path 40" d="M86.438,270.106a1.068,1.068,0,1,1-1.067-1.067A1.068,1.068,0,0,1,86.438,270.106Z" fill="#6097b2"/>
        <path id="Path_41" data-name="Path 41" d="M98.043,255.147a1.068,1.068,0,1,1-1.068-1.068A1.068,1.068,0,0,1,98.043,255.147Z" fill="#6097b2"/>
        <path id="Path_42" data-name="Path 42" d="M74.525,276.941a1.067,1.067,0,1,1-1.067-1.067A1.067,1.067,0,0,1,74.525,276.941Z" fill="#6097b2"/>
        <path id="Path_43" data-name="Path 43" d="M87.506,259.452a1.067,1.067,0,1,1-1.068-1.067A1.068,1.068,0,0,1,87.506,259.452Z" fill="#6097b2"/>
        <path id="Path_44" data-name="Path 44" d="M67.09,307.51a1.067,1.067,0,1,1-1.068-1.067A1.068,1.068,0,0,1,67.09,307.51Z" fill="#6097b2"/>
        <path id="Path_45" data-name="Path 45" d="M53.682,298.084a1.067,1.067,0,1,1-1.067-1.067A1.067,1.067,0,0,1,53.682,298.084Z" fill="#6097b2"/>
        <circle id="Ellipse_6" data-name="Ellipse 6" cx="1.067" cy="1.067" r="1.067" transform="translate(90.433 293.815)" fill="#6097b2"/>
        <circle id="Ellipse_7" data-name="Ellipse 7" cx="1.067" cy="1.067" r="1.067" transform="translate(112.5 299.42)" fill="#6097b2"/>
        <path id="Path_46" data-name="Path 46" d="M113.567,270.106a1.068,1.068,0,1,1-1.067-1.067A1.068,1.068,0,0,1,113.567,270.106Z" fill="#6097b2"/>
        <path id="Path_47" data-name="Path 47" d="M126.4,272.344a1.068,1.068,0,1,1-1.067-1.067A1.067,1.067,0,0,1,126.4,272.344Z" fill="#6097b2"/>
        <path id="Path_48" data-name="Path 48" d="M100.768,308.578A1.067,1.067,0,1,1,99.7,307.51,1.067,1.067,0,0,1,100.768,308.578Z" fill="#6097b2"/>
        <circle id="Ellipse_8" data-name="Ellipse 8" cx="1.067" cy="1.067" r="1.067" transform="translate(89.365 326.496)" fill="#6097b2"/>
        <circle id="Ellipse_9" data-name="Ellipse 9" cx="1.067" cy="1.067" r="1.067" transform="translate(72.982 329.534)" fill="#6097b2"/>
        <circle id="Ellipse_10" data-name="Ellipse 10" cx="1.067" cy="1.067" r="1.067" transform="translate(118.043 313.339)" fill="#6097b2"/>
        <path id="Path_49" data-name="Path 49" d="M105.43,322.5a1.068,1.068,0,1,1-1.067-1.068A1.067,1.067,0,0,1,105.43,322.5Z" fill="#6097b2"/>
        <path id="Path_50" data-name="Path 50" d="M83.236,346.333a1.068,1.068,0,1,1-1.067-1.067A1.067,1.067,0,0,1,83.236,346.333Z" fill="#6097b2"/>
        <circle id="Ellipse_11" data-name="Ellipse 11" cx="1.067" cy="1.067" r="1.067" transform="translate(97.566 339.708)" fill="#6097b2"/>
        <circle id="Ellipse_12" data-name="Ellipse 12" cx="1.067" cy="1.067" r="1.067" transform="translate(113.427 333.42)" fill="#6097b2"/>
        <path id="Path_51" data-name="Path 51" d="M108.4,352.849a1.068,1.068,0,1,1-1.067-1.067A1.067,1.067,0,0,1,108.4,352.849Z" fill="#6097b2"/>
      </g>
      <g id="Group_9" data-name="Group 9">
        <path id="Path_52" data-name="Path 52" d="M107.238,409.056H89.707c-1.144-3.264.966-6.54.611-9.415-.611-4.863,2.22-2.176,2.22-2.176.5-5.23,7.85-6.218,7.772-3.886-.122,3.43.544,5.551,1.521,6.972,1.976,2.853,5.218,2.831,5.773,4.874.056.2.1.4.133.577C108.281,408.556,107.238,409.056,107.238,409.056Z" fill="#164353"/>
        <path id="Path_53" data-name="Path 53" d="M107.737,406c-3.63.844-12-.255-12.334-2.364-.322-2.043,4.185-3,6.428-3.087,1.976,2.853,5.218,2.831,5.773,4.874C107.66,405.625,107.7,405.825,107.737,406Z" fill="#205260"/>
      </g>
      <g id="Group_10" data-name="Group 10">
        <path id="Path_54" data-name="Path 54" d="M35.171,273.26c-1.865-1.7-4.9,1.111-4.9,1.111s1.632,2.42.577,3.4-2.276-1.255-4.352-.278a4.074,4.074,0,0,0-.511.289,24.026,24.026,0,0,0-4.674,4.541c-.277.311-.544.6-.788.855-1.588,1.665-5.685,2.642-6.451-1.8s4.23-9.648,9.715-14.433S32.818,265,32.818,265a8.629,8.629,0,0,1,1.243,3.264c0,1.244,1.11,1.865,1.732,3.053A1.507,1.507,0,0,1,35.171,273.26Z" fill="#164353"/>
        <path id="Path_55" data-name="Path 55" d="M25.989,277.779a24.026,24.026,0,0,0-4.674,4.541c-2.054.489-3.9.344-4.185-1.588-.7-4.663,8.6-10.591,7.86-7.316A5.828,5.828,0,0,0,25.989,277.779Z" fill="#205260"/>
      </g>
    </g>
    <g id="Group_24" data-name="Group 24">
      <path id="Path_56" data-name="Path 56" d="M350.621,401.475a6.788,6.788,0,0,1-2.377-2.714,27.181,27.181,0,0,1,0-7.654c.617-3.922-1.091-7.125-6.642-8.327-5.4-1.17-8.6,1.431-7.353,12.28v0c-.821,4.508-.991,9.654.881,13.992h16.613S354.364,403.44,350.621,401.475Z" fill="#cfd8dc"/>
      <path id="Path_57" data-name="Path 57" d="M365.2,343a50.4,50.4,0,0,1-6.107,21.927c-6.218,11.306-13.9,26.822-13.9,26.822s-5.122,5-8.377-3.279c0,0,2.3-28.817,7.571-39.364S365.2,343,365.2,343Z" fill="#ff8b66"/>
      <path id="Path_58" data-name="Path 58" d="M444.856,307.745s9.894,41.61,16.188,52.586c0,0-1.448,4.592-8.263,5.98,0,0-21.526-31.642-22.914-44.965S444.856,307.745,444.856,307.745Z" fill="#ff8b66"/>
      <g id="Group_13" data-name="Group 13">
        <path id="Path_59" data-name="Path 59" d="M449.641,317.526c-2.632,6.34-22.96,6.684-22.96,6.684l-1.555-2.287-.411-.6-3.175-4.685s-33.685-33.041-40.247-30.266h-.011a3.193,3.193,0,0,0-.555.322c-4.507,3.22-4.929,20.862-10.259,50.473a52.058,52.058,0,0,1-2.5,8.349c-.1.244-.188.477-.277.7-.489,1.255-.833,2.054-.833,2.054-20.562,8.327-27.346-8.127-27.346-8.127s.245-.477.6-1.243c.078-.167.167-.356.255-.556,1.077-2.376,2.8-6.495,2.776-8.671q-.033-3.58-.055-6.894c0-.2,0-.389-.012-.578-.033-7.116-.022-13.3.023-18.674v-.566c.022-2.343.055-4.53.1-6.573v-.577c.177-9.36.477-15.611.8-19.774.011-.189.033-.389.044-.566.567-7.006,1.166-7.694,1.166-7.694l-4.119-28.634h44.943s6.75,6.762,15.51,15.688c.189.178.367.355.544.544,3.176,3.231,6.606,6.739,10.048,10.3.145.145.278.278.4.411l4.052,4.186c.167.166.322.344.489.51,4.508,4.675,8.882,9.282,12.624,13.312.133.134.255.267.377.4,5.118,5.54,9.015,9.97,10.359,12.035,3.564,5.452,6.339,12.546,7.871,16.932v.011c.078.2.145.377.211.566C449.241,316.172,449.641,317.526,449.641,317.526Z" fill="#8b383e"/>
        <g id="Group_12" data-name="Group 12">
          <path id="Path_60" data-name="Path 60" d="M351.938,272.061A12.161,12.161,0,0,1,344,276.036c.011-.189.033-.389.044-.566a11.521,11.521,0,0,0,7.472-3.775,12.539,12.539,0,0,0,2.576-8.605l.555-.066A12.968,12.968,0,0,1,351.938,272.061Z" fill="#662c33"/>
          <path id="Path_61" data-name="Path 61" d="M402.088,255.374c-.177.011-.344.022-.521.022-5,0-10.215-5.462-10.481-5.74l.4-.388c.066.077,5.262,5.518,10.058,5.562C401.733,255.008,401.911,255.185,402.088,255.374Z" fill="#662c33"/>
          <path id="Path_62" data-name="Path 62" d="M367.97,345.516c-.1.244-.188.477-.277.7a26.477,26.477,0,0,1-9.171,1.721c-8.882,0-15.033-5.14-18.408-9.037.078-.167.167-.356.255-.556C344.688,343.406,353.915,350.878,367.97,345.516Z" fill="#662c33"/>
          <path id="Path_63" data-name="Path 63" d="M380.039,276.058a46.683,46.683,0,0,1,1.243,10.314,3.193,3.193,0,0,0-.555.322c-.022-16.764-9.726-29.843-9.837-29.988l.444-.333a57.743,57.743,0,0,1,8.56,19.108,5.088,5.088,0,0,0,2.221-3.187c1.4-5.884-4.963-15.5-5.018-15.6l.455-.311c.266.411,6.55,9.915,5.107,16.033A5.642,5.642,0,0,1,380.039,276.058Z" fill="#662c33"/>
          <path id="Path_64" data-name="Path 64" d="M430.078,284.5c-1.654,1.8-3.209,3.331-3.353,3.464l-.3.3-.144-.4c-2.176-5.7-16.165-18.041-16.31-18.164l-.166-.155,2.331-3.864c.145.145.278.278.4.411l-1.954,3.242a13.618,13.618,0,0,0,6.006.944c.167.166.322.344.489.51a8.63,8.63,0,0,1-1.455.123,15.079,15.079,0,0,1-4.3-.744c3.175,2.864,13.045,12.013,15.31,17.109.877-.866,1.988-2.01,3.065-3.176C429.834,284.23,429.956,284.363,430.078,284.5Z" fill="#662c33"/>
          <path id="Path_65" data-name="Path 65" d="M353.315,322.678l-.222.044a28.363,28.363,0,0,1-5.629.578,16.519,16.519,0,0,1-4.374-.522c0-.2,0-.389-.012-.578,3.664,1.055,8.56.245,9.671.034l-.933-23.105a7.5,7.5,0,0,1-3.486,3.953,6.749,6.749,0,0,1-3.087.688,9.943,9.943,0,0,1-2.142-.244v-.566a7.215,7.215,0,0,0,4.974-.378,7.573,7.573,0,0,0,3.575-4.652c-1.855.278-5.6-.666-8.449-1.543v-.577c3.075.932,7.238,2.009,8.737,1.487l.356-.122Z" fill="#662c33"/>
          <path id="Path_66" data-name="Path 66" d="M448.519,314.04a28.168,28.168,0,0,1-20.029,8.06,32.292,32.292,0,0,1-3.364-.177l-.411-.6c12.38,1.421,20.141-4.385,23.593-7.849C448.386,313.674,448.453,313.851,448.519,314.04Z" fill="#662c33"/>
        </g>
      </g>
      <path id="Path_67" data-name="Path 67" d="M394.339,117.4s-1.236-2.843-6.453-2.845c-4.021,0-5.56,2.221-5.56,2.221-2.406,7.032-4.991,33.955-5.917,34.913-.469.486-30.295,20.574-30.295,20.574,16.186.3,26.285,20.255,26.285,20.255.523-6.556,18.8-32.537,19-34.853C391.768,153.3,399.5,133.782,394.339,117.4Z" fill="#ce364c"/>
      <path id="Path_68" data-name="Path 68" d="M342.559,258.18s-.15,5.617,1.667,5.987a51.106,51.106,0,0,0,33.644-2.993c17.024-7.739,19.985-13.476,14.989-17.731S342.559,258.18,342.559,258.18Z" fill="#ce364c"/>
      <path id="Path_69" data-name="Path 69" d="M335.738,176.155s-15.489-1.835-24.371,2.009c0,0-2.477,10.992,9.725,35.591s9.372,40.092,23.134,45.924c12.2,5.17,48.17-10.216,49.3-15.319,2.844-12.846-19.152-35.392-20.54-48.455S358.83,163.2,335.738,176.155Z" fill="#f24052"/>
      <path id="Path_70" data-name="Path 70" d="M311.367,178.164c-10.825,3.844-23,16-23.021,21.856s10.157,8.117,10.157,8.117l16.681-8.117s4.772-3.331,1.734-13.041S311.367,178.164,311.367,178.164Z" fill="#ce364c"/>
      <g id="Group_14" data-name="Group 14">
        <path id="Path_71" data-name="Path 71" d="M355.845,189a18.37,18.37,0,0,1-9.738-2.941,5.2,5.2,0,0,1-2.37-3.194c-.612-3.845,3.132-5.8,3.292-5.881l.505.988c-.131.068-3.184,1.677-2.7,4.719a4.165,4.165,0,0,0,1.917,2.463,16.463,16.463,0,0,0,10.761,2.6,3.654,3.654,0,0,0,2.754-1.513,2.521,2.521,0,0,0,.069-1.978l1.02-.439a3.613,3.613,0,0,1-.107,2.934,4.651,4.651,0,0,1-3.543,2.089A10.723,10.723,0,0,1,355.845,189Z" fill="#cfd8dc"/>
      </g>
      <g id="Group_15" data-name="Group 15">
        <path id="Path_72" data-name="Path 72" d="M342.118,200.711c-2.4,0-6.372-1-6.93-4.931a19.553,19.553,0,0,1,.06-5.142c.238-2.168.425-3.881-.838-5.933-2.086-3.387-4.926-3.615-5.046-3.623l.067-1.108c.142.008,3.521.247,5.924,4.149,1.463,2.377,1.236,4.446,1,6.636a18.281,18.281,0,0,0-.064,4.865c.6,4.242,6.01,3.977,6.239,3.965l.066,1.108C342.443,200.706,342.284,200.711,342.118,200.711Z" fill="#cfd8dc"/>
      </g>
      <path id="Path_73" data-name="Path 73" d="M345.488,180.785s8.188-5.577,6.245-11.614-28.312-5.621-35.112,1.6,14.711,12.007,14.711,12.007C333,179.418,343.637,179.048,345.488,180.785Z" fill="#ce364c"/>
      <path id="Path_74" data-name="Path 74" d="M330.766,179.84c-3.885-1.319-6.188-4.123-5.355-7.361s17.535-3.325,20.7-.737S344.819,184.611,330.766,179.84Z" fill="#a02e44"/>
      <path id="Path_75" data-name="Path 75" d="M328.917,170.739s3.437,5.872,1.849,9.1c0,0,11.793,4.072,11.793-2.527,0,0-2.223-4.945-1.385-8.142Z" fill="#ef6e4b"/>
      <g id="Group_19" data-name="Group 19">
        <path id="Path_76" data-name="Path 76" d="M324.985,165.61s-5.794-9.279-5.257-18.143c.269-4.431,2.548-6.168,2.548-6.168s-1.84-2.557.132-6.467c0,0,2.729,3.158,12.307,2.162,9.236-.961,10.157,5.624,10.157,5.624,6.6.981,2.148,20.951-2.459,22.992Z" fill="#ffb878"/>
        <path id="Path_77" data-name="Path 77" d="M322.527,157.042s-3.33-3.323-3.74.562c-.475,4.5,3.612,6.313,4.412,4.882S322.527,157.042,322.527,157.042Z" fill="#ff8b66"/>
        <path id="Path_78" data-name="Path 78" d="M345.846,157.276s3.33-3.323,3.74.562c.475,4.5-3.613,6.314-4.412,4.882S345.846,157.276,345.846,157.276Z" fill="#ff8b66"/>
        <path id="Path_79" data-name="Path 79" d="M333.835,173.345c-7.389,0-11.559-4.827-11.559-19.3,0-7.466,3.8-12.046,12.075-12.046s11.763,4.579,11.763,12.046C346.114,169.6,341.469,173.345,333.835,173.345Z" fill="#ff8b66"/>
        <path id="Path_80" data-name="Path 80" d="M343.667,159.205a1.75,1.75,0,1,1-1.917-1.051A1.565,1.565,0,0,1,343.667,159.205Z" fill="#db614d"/>
        <path id="Path_81" data-name="Path 81" d="M328.468,159.61a1.75,1.75,0,1,1-1.614-1.473A1.565,1.565,0,0,1,328.468,159.61Z" fill="#db614d"/>
        <g id="Group_16" data-name="Group 16">
          <path id="Path_82" data-name="Path 82" d="M340.413,151.444a.366.366,0,0,1-.281-.072,4.228,4.228,0,0,0-2.969-.58.374.374,0,0,1-.43-.3.368.368,0,0,1,.3-.431,4.931,4.931,0,0,1,3.553.721.369.369,0,0,1-.168.657Z" fill="#ffb878"/>
        </g>
        <g id="Group_17" data-name="Group 17">
          <path id="Path_83" data-name="Path 83" d="M326.271,151.495a.362.362,0,0,1-.24-.132.371.371,0,0,1,.051-.52,4.933,4.933,0,0,1,3.529-.829.37.37,0,0,1,.308.421.377.377,0,0,1-.422.309,4.254,4.254,0,0,0-2.946.671A.374.374,0,0,1,326.271,151.495Z" fill="#ffb878"/>
        </g>
        <path id="Path_84" data-name="Path 84" d="M339.649,155.615c0,.917-.413,1.661-.923,1.661s-.923-.744-.923-1.661.413-1.662.923-1.662S339.649,154.7,339.649,155.615Z" fill="#1a4850"/>
        <path id="Path_85" data-name="Path 85" d="M329.781,155.615c0,.917-.413,1.661-.923,1.661s-.923-.744-.923-1.661.413-1.662.923-1.662S329.781,154.7,329.781,155.615Z" fill="#1a4850"/>
        <path id="Path_86" data-name="Path 86" d="M324.543,143.6a50.353,50.353,0,0,0,19.164,2.072s2.407,3,2.115,13.587c0,0,6.61-19.07-12.688-19.07s-10.6,18.647-10.6,18.647S320.953,147.172,324.543,143.6Z" fill="#ffb878"/>
        <g id="Group_18" data-name="Group 18">
          <path id="Path_87" data-name="Path 87" d="M334.3,160.549l-.553-.557,1.461-1.452c-1.417-2-1.409-6.641-1.408-6.848l.785.005c0,.049-.008,5.038,1.439,6.606l.257.278Z" fill="#db614d"/>
        </g>
        <path id="Path_88" data-name="Path 88" d="M329.4,162.966s7.272.307,10.944-.665a4.874,4.874,0,0,1-4.987,5.552C329.4,168.13,329.4,162.966,329.4,162.966Z" fill="#1a4850"/>
      </g>
      <path id="Path_89" data-name="Path 89" d="M360.476,182.96c1.388-.258,1.249,3.374,0,2.321S359.088,183.218,360.476,182.96Z" fill="#cfd8dc"/>
      <path id="Path_90" data-name="Path 90" d="M343.74,200.559c-.212,1.395-3.6.074-2.193-.761S343.951,199.163,343.74,200.559Z" fill="#cfd8dc"/>
      <path id="Path_91" data-name="Path 91" d="M328.843,208.137s-2.2,5.651-2.078,8.844,1.17,2.776,1.17,2.776a3.448,3.448,0,0,0-1.988,2.5c-.316,1.84,4.33,3.192,4.649,3.192s3.6-1.249,3.6-1.249l.687-10.443-2.9-1.823Z" fill="#ef6e4b"/>
      <path id="Path_92" data-name="Path 92" d="M330.6,207.4a45.652,45.652,0,0,1,5.566,4.025c1.554,1.527.667,13.323,0,13.878s-5.782,1.7-6.763,1.058.382-4.111.382-4.111,2.569-.555,2.2.416a2.546,2.546,0,0,0,0,1.8l1.055-.417a12.246,12.246,0,0,1,0-4.579c.517-1.943-3.617-3.993-4.118-7.548S330.6,207.4,330.6,207.4Z" fill="#ff8b66"/>
      <path id="Path_93" data-name="Path 93" d="M289.013,201.658c-1.285-5.547,4.22-7.509,11.879-6.563,8.882,1.1,27.123,3.42,31.088,13.042,0,0,1.295,3.8-2.057,5.618C320.554,218.851,291.425,212.077,289.013,201.658Z" fill="#ce364c"/>
      <path id="Path_94" data-name="Path 94" d="M316.8,197.983s-10.586-4.4-15.859-4.843S308.231,197.3,316.8,197.983Z" fill="#a02e44"/>
      <g id="Group_20" data-name="Group 20">
        <path id="Path_95" data-name="Path 95" d="M396.149,102.681a23.8,23.8,0,0,0-2.121,4.452c-.555,2.975-.877,4.618-1.921,5.984s-.488,3.775-.488,3.775-4.042,2.076-7.439-.489c0,0,.355-2.387,0-3.064-.7-1.354-2.942-2.076-3.708-4.807a21.419,21.419,0,0,0-3.065-5.8s.656-1.421,1.855-.555,1.976,3.064,2.631,3.286a1.682,1.682,0,0,0,.4.089.085.085,0,0,1,.033.011,1.614,1.614,0,0,0,1.321-.344.208.208,0,0,0,.078-.066c1.1-1.277,1.354-5.03,1.31-6.707-.067-2.331.022-5.551,1.443-5.007s.122,1.843,1.222,6.984l.532.066c.1.367,1.077-3.119,1.311-6.395.166-2.253,1.643-1.421,1.965-.71s-.167,2.953-.267,4.585c-.077,1.077-.166,2.2-.222,2.865l.622.344c2.243-3.908,1.477-5.529,2.787-5.607s.832,3.22.133,4.474a12.355,12.355,0,0,0-.822,2.787c2.3-2.654,2.043-4.041,3.1-3.875C397.925,99.139,396.948,101.77,396.149,102.681Z" fill="#ff8b66"/>
        <path id="Path_96" data-name="Path 96" d="M386.223,108.8c-.777-2.143-3.553-3.12-3.9-3.231a1.614,1.614,0,0,0,1.321-.344A3.9,3.9,0,0,1,386.223,108.8Z" fill="#ef6e4b"/>
      </g>
      <g id="Group_21" data-name="Group 21">
        <path id="Path_97" data-name="Path 97" d="M337.993,392.771s-1.536-3.135-.166-4.482,2.982,1.151,5.321.6,2.882-2.218,3.49.047S346.505,398.322,337.993,392.771Z" fill="#cfd8dc"/>
        <path id="Path_98" data-name="Path 98" d="M346.8,392.632s-6.284,2.226-9.542,0l.828,2.72s6.83.723,7.772-1Z" fill="#adbec4"/>
        <path id="Path_99" data-name="Path 99" d="M346.715,396.011s-5.753-.8-8.529.631v1.348s7.5-1.75,9.926,0Z" fill="#adbec4"/>
        <path id="Path_100" data-name="Path 100" d="M337.91,400.791a5.245,5.245,0,0,1,4.616-2.914,9.131,9.131,0,0,1,5.862,1.732S342.837,397.322,337.91,400.791Z" fill="#adbec4"/>
      </g>
      <g id="Group_23" data-name="Group 23">
        <path id="Path_101" data-name="Path 101" d="M486,363.013a46.676,46.676,0,0,1-26.08,17.576c-4.364-3.487-4.475-7.617-4.475-7.617s-4.208-3.752-4.763-5.551,3.609-7.217,6.107-6.661a5.038,5.038,0,0,1,3.175,2.564c-2.065-4.652-.411-6.273,2.52-5.873,3.054.411.167,1.132,2.354,3.586a2.885,2.885,0,0,0,.522.455,3.6,3.6,0,0,0,1.421.567,6.531,6.531,0,0,0,1.566.077,8.133,8.133,0,0,0,.888-.089,11.9,11.9,0,0,0,1.743-.422,15.616,15.616,0,0,0,2.809-1.21c3.819-2.087,5.429-2.8,8.338-2.054s2.853,2.932,2.853,2.932Z" fill="#cfd8dc"/>
        <path id="Path_102" data-name="Path 102" d="M486,363.013a46.676,46.676,0,0,1-26.08,17.576c7.672-3.3,14.722-7.617,19.54-12.935S486,363.013,486,363.013Z" fill="#adbec4"/>
        <g id="Group_22" data-name="Group 22">
          <path id="Path_103" data-name="Path 103" d="M465.362,361.492a3.6,3.6,0,0,0,1.421.567,3.736,3.736,0,0,0-3.131,3.2l-1.243-.4C462.675,361.725,465.151,361.5,465.362,361.492Z" fill="#adbec4"/>
          <path id="Path_104" data-name="Path 104" d="M467.327,365.567l-1.3.044a3.436,3.436,0,0,1,.755-3.552,6.531,6.531,0,0,0,1.566.077A3.7,3.7,0,0,0,467.327,365.567Z" fill="#adbec4"/>
          <path id="Path_105" data-name="Path 105" d="M470.536,364.856l-1.288.167a3.586,3.586,0,0,1-.011-2.976,11.9,11.9,0,0,0,1.743-.422A3.775,3.775,0,0,0,470.536,364.856Z" fill="#adbec4"/>
        </g>
      </g>
      <path id="Path_106" data-name="Path 106" d="M346.914,227.946s2.851,15.386-2.914,21.517-1.952,1.093-.232-6.812S344.178,226.419,346.914,227.946Z" fill="#ce364c"/>
      <path id="Path_107" data-name="Path 107" d="M373.522,221.079s9.088,2.986,13.842,11.379C387.364,232.458,381.016,218.792,373.522,221.079Z" fill="#ce364c"/>
    </g>
    <g id="Group_33" data-name="Group 33">
      <g id="Group_25" data-name="Group 25">
        <path id="Path_108" data-name="Path 108" d="M137.473,106.767a23.847,23.847,0,0,1,4.723,1.417c2.578,1.586,4.012,2.451,5.725,2.594s2.4,3.082,2.4,3.082,6.725,1.471,7.1-2.769c0,0-3.76-5.321-4.023-6.039-.535-1.428.436-3.574-1.074-5.976a21.439,21.439,0,0,1-2.238-6.162s-1.493-.468-1.656,1c-.162,1.486.944,3.522.669,4.156a1.693,1.693,0,0,1-.2.356.08.08,0,0,0-.015.032,1.616,1.616,0,0,1-1.142.748.205.205,0,0,1-.1.013c-1.684-.042-4.637-2.372-5.85-3.531-1.683-1.614-4.129-3.71-4.68-2.292s1.284,1.328,4.356,5.594l-.308.44c.2.32-3.036-1.3-5.62-3.323-1.782-1.389-2.156.264-1.846.98s2.3,1.859,3.578,2.881c.85.665,1.741,1.352,2.272,1.758l-.163.692c-4.4-.962-5.089-2.618-6.026-1.7s1.827,2.779,3.227,3.1a12.375,12.375,0,0,1,2.617,1.262c-3.51-.078-4.367-1.2-4.952-.306C133.656,105.706,136.262,106.748,137.473,106.767Z" fill="#ff8b66"/>
        <path id="Path_109" data-name="Path 109" d="M148.671,103.518c-1.067-2.015.073-4.728.221-5.058a1.616,1.616,0,0,1-1.142.748A3.9,3.9,0,0,0,148.671,103.518Z" fill="#ef6e4b"/>
      </g>
      <g id="Group_26" data-name="Group 26">
        <path id="Path_110" data-name="Path 110" d="M335.329,106.767a23.861,23.861,0,0,0-4.724,1.417c-2.578,1.586-4.012,2.451-5.724,2.594s-2.4,3.082-2.4,3.082-6.725,1.471-7.105-2.769c0,0,3.76-5.321,4.023-6.039.534-1.428-.436-3.574,1.074-5.976a21.439,21.439,0,0,0,2.238-6.162s1.493-.468,1.656,1c.162,1.486-.944,3.522-.669,4.156a1.694,1.694,0,0,0,.2.356.073.073,0,0,1,.014.032,1.618,1.618,0,0,0,1.142.748.21.21,0,0,0,.1.013c1.684-.042,4.637-2.372,5.85-3.531,1.683-1.614,4.129-3.71,4.68-2.292s-1.284,1.328-4.356,5.594l.308.44c-.2.32,3.035-1.3,5.619-3.323,1.783-1.389,2.157.264,1.846.98s-2.3,1.859-3.577,2.881c-.85.665-1.741,1.352-2.272,1.758l.162.692c4.4-.962,5.09-2.618,6.027-1.7s-1.828,2.779-3.227,3.1a12.352,12.352,0,0,0-2.617,1.262c3.51-.078,4.367-1.2,4.951-.306C339.146,105.706,336.54,106.748,335.329,106.767Z" fill="#ff8b66"/>
        <path id="Path_111" data-name="Path 111" d="M324.131,103.518c1.066-2.015-.073-4.728-.222-5.058a1.618,1.618,0,0,0,1.142.748A3.9,3.9,0,0,1,324.131,103.518Z" fill="#ef6e4b"/>
      </g>
      <path id="Path_112" data-name="Path 112" d="M276.231,310.613l-12.919-79.991-25.869,2.889-25.868-2.889-12.919,79.991-6.205,77.581s1.973,6.428,14.878,1.987c0,0,9.573-71.958,11.054-73.542s16.683-48.586,16.683-48.586h4.755s15.2,47,16.683,48.586,11.054,73.542,11.054,73.542c12.9,4.441,14.877-1.987,14.877-1.987Z" fill="#0e3944"/>
      <path id="Path_113" data-name="Path 113" d="M229.294,153.159c1.634,1.59,9.673,4.459,13.918,0l2.879,2.828s-3.282,7.718-9.042,7.988-9.923-6.867-9.923-6.867Z" fill="#0c476b"/>
      <path id="Path_114" data-name="Path 114" d="M252.061,152.288c9.622-4.142,40.709-15.154,40.709-15.154s20.9-26.182,25.16-30.068c0,0,4.626.833,5.979,6.592,0,0-13.456,28.814-20.771,37.063s-44.362,26.09-44.362,26.09Z" fill="#0c476b"/>
      <path id="Path_115" data-name="Path 115" d="M218.383,151.694c2.862-1.81,17.234,7.8,17.234,7.8s18.684-9.922,23.069-8c0,0,3.951,5.288,5.539,18.882s1.693,69.536,1.693,69.536a97.557,97.557,0,0,1-29.553,4.444c-19.37,0-29.791-5.555-29.791-5.555S203.117,161.349,218.383,151.694Z" fill="#ffb878"/>
      <path id="Path_116" data-name="Path 116" d="M230.053,150.241s2.069,6.509,0,9.017c0,0,2.149,4.509,6.012,4.709,4.462.23,6.011-4.709,6.011-4.709s-2.36-6.287,0-8.5Z" fill="#ef6e4b"/>
      <g id="Group_30" data-name="Group 30">
        <path id="Path_117" data-name="Path 117" d="M224.894,143.834s-4.355-8.382-3.492-17.339,14.358-11.012,23.454-6.611c0,0-2.7-2.64-1.644-3.374s2.879,3.961,2.879,3.961,2.873-.88,3.313,0-2.944,1.362-2.944,1.362,5.87,3.255.386,20.578Z" fill="#8b383e"/>
        <path id="Path_118" data-name="Path 118" d="M224.239,138.526s-3.247-3.24-3.647.548c-.463,4.388,3.523,6.156,4.3,4.76S224.239,138.526,224.239,138.526Z" fill="#ff8b66"/>
        <path id="Path_119" data-name="Path 119" d="M246.977,138.755s3.248-3.241,3.647.547c.463,4.389-3.523,6.157-4.3,4.761S246.977,138.755,246.977,138.755Z" fill="#ff8b66"/>
        <path id="Path_120" data-name="Path 120" d="M235.266,154.422c-7.205,0-11.271-4.706-11.271-18.821,0-7.281,3.7-11.747,11.774-11.747s11.47,4.466,11.47,11.747C247.239,150.768,242.709,154.422,235.266,154.422Z" fill="#ff8b66"/>
        <path id="Path_121" data-name="Path 121" d="M244.852,140.636a1.706,1.706,0,1,1-1.868-1.026A1.526,1.526,0,0,1,244.852,140.636Z" fill="#db614d"/>
        <path id="Path_122" data-name="Path 122" d="M230.033,141.03a1.706,1.706,0,1,1-1.575-1.437A1.527,1.527,0,0,1,230.033,141.03Z" fill="#db614d"/>
        <g id="Group_27" data-name="Group 27">
          <path id="Path_123" data-name="Path 123" d="M241.557,133.311a.357.357,0,0,1-.26-.111,4.118,4.118,0,0,0-2.773-1,.366.366,0,0,1-.371-.349.358.358,0,0,1,.348-.371,4.809,4.809,0,0,1,3.316,1.225.359.359,0,0,1-.26.608Z" fill="#8b383e"/>
        </g>
        <g id="Group_28" data-name="Group 28">
          <path id="Path_124" data-name="Path 124" d="M227.991,133.311a.356.356,0,0,1-.248-.1.361.361,0,0,1-.013-.509,4.809,4.809,0,0,1,3.316-1.225.359.359,0,0,1,.348.371.368.368,0,0,1-.371.349,4.15,4.15,0,0,0-2.771,1A.362.362,0,0,1,227.991,133.311Z" fill="#8b383e"/>
        </g>
        <path id="Path_125" data-name="Path 125" d="M240.934,137.134c0,.9-.4,1.621-.9,1.621s-.9-.726-.9-1.621.4-1.62.9-1.62S240.934,136.239,240.934,137.134Z" fill="#1a4850"/>
        <path id="Path_126" data-name="Path 126" d="M231.313,137.134c0,.9-.4,1.621-.9,1.621s-.9-.726-.9-1.621.4-1.62.9-1.62S231.313,136.239,231.313,137.134Z" fill="#1a4850"/>
        <path id="Path_127" data-name="Path 127" d="M231.313,146.707s6.353.818,9.621-.75c0,0-1.847,4.326-5.318,3.937A4.935,4.935,0,0,1,231.313,146.707Z" fill="#1a4850"/>
        <path id="Path_128" data-name="Path 128" d="M246.488,140.354s-.225-7.836-3.276-13.859c0,0-5.378,2.485-6.561,1.9s1.128-1.9,1.128-1.9-8.874,2.925-9.407,2.338,2.941-2.338,2.941-2.338l-5.528,1.9s-1.7,7.051-1,11.961c0,0-2.376-4.1-2.669-6.93s.95-10.9,9.277-11.486,13,1.3,15.066,5.126S248.267,135.59,246.488,140.354Z" fill="#8b383e"/>
        <g id="Group_29" data-name="Group 29">
          <path id="Path_129" data-name="Path 129" d="M236.522,144.444a6.673,6.673,0,0,1-1.627-.241l.205-.737c.756.208,1.941.333,2.2.028.089-.107.054-.353-.1-.675-1.041-2.215-1.258-7.822-1.267-8.059l.766-.029c0,.057.219,5.688,1.194,7.761a1.329,1.329,0,0,1-.009,1.495A1.756,1.756,0,0,1,236.522,144.444Z" fill="#db614d"/>
        </g>
      </g>
      <path id="Path_130" data-name="Path 130" d="M244.494,155.222s13.04,40.48,14.282,73.417c0,0,4.706,1.295,10.006-5.921s2.147-64.379-8.006-73.9C260.776,148.821,256.17,147.771,244.494,155.222Z" fill="#105e99"/>
      <path id="Path_131" data-name="Path 131" d="M246.619,162.3s2.334-5.423,1.3-9.142-4.7,0-4.7,0S244.694,159.248,246.619,162.3Z" fill="#0c476b"/>
      <path id="Path_132" data-name="Path 132" d="M220.445,152.288c-9.621-4.142-40.709-15.154-40.709-15.154s-20.95-26.945-25.212-30.831a11.979,11.979,0,0,0-5.632,9.159s13.162,27.01,20.476,35.259,44.363,26.09,44.363,26.09Z" fill="#0c476b"/>
      <path id="Path_133" data-name="Path 133" d="M228.013,155.222s-13.04,40.48-14.282,73.417c0,0-4.707,1.295-10.006-5.921s-2.147-64.379,8-73.9C211.73,148.821,216.336,147.771,228.013,155.222Z" fill="#105e99"/>
      <path id="Path_134" data-name="Path 134" d="M225.887,162.3s-2.334-5.423-1.3-9.142,4.7,0,4.7,0S227.813,159.248,225.887,162.3Z" fill="#0c476b"/>
      <g id="Group_31" data-name="Group 31">
        <path id="Path_135" data-name="Path 135" d="M293.938,409.056H268.047c-1.809-10.292,1.077-20.6,1.077-20.6l11.836-2.032c1.076,6.506,2.376,9.071,4.174,10.392h.011c1.31.955,2.876,1.265,4.83,1.943a6.211,6.211,0,0,1,4,3.719A11.005,11.005,0,0,1,293.938,409.056Z" fill="#662c33"/>
        <path id="Path_136" data-name="Path 136" d="M293.972,402.483c-6.384.8-20.407,2.165-19.552-1.532.711-3.087,6.628-3.919,10.714-4.13h.011c1.31.955,2.876,1.265,4.83,1.943A6.211,6.211,0,0,1,293.972,402.483Z" fill="#8b383e"/>
      </g>
      <g id="Group_32" data-name="Group 32">
        <path id="Path_137" data-name="Path 137" d="M207.227,409.056H181.336a12.021,12.021,0,0,1-.444-4.985,6.271,6.271,0,0,1,4.408-5.307c2.243-.778,3.964-1.066,5.374-2.388,1.532-1.443,2.675-4.107,3.641-9.947l11.836,2.032S209.026,398.764,207.227,409.056Z" fill="#662c33"/>
        <path id="Path_138" data-name="Path 138" d="M180.892,404.071a6.271,6.271,0,0,1,4.408-5.307c2.243-.778,3.964-1.066,5.374-2.388,3.275,1.011,7.86,2.865,9.281,5.674C201.932,405.9,186.8,405.292,180.892,404.071Z" fill="#8b383e"/>
      </g>
    </g>
    <g id="Group_41" data-name="Group 41">
      <g id="Group_34" data-name="Group 34">
        <path id="Path_139" data-name="Path 139" d="M393.107,407.2a14.175,14.175,0,0,1-.112,1.854H361.542c0-.622.011-1.244.044-1.854a57.778,57.778,0,0,1,2.954-15.366l7.86-3.375a12.575,12.575,0,0,0,4.608,8.326,11.172,11.172,0,0,0,1.8,1.155c.289.156.578.3.877.433a15.166,15.166,0,0,0,2.01.744,49.134,49.134,0,0,0,7.55,1.321C392.6,400.962,393.107,404.837,393.107,407.2Z" fill="#164353"/>
        <path id="Path_140" data-name="Path 140" d="M393.107,407.2a14.175,14.175,0,0,1-.112,1.854H361.542c0-.622.011-1.244.044-1.854Z" fill="#225866"/>
        <path id="Path_141" data-name="Path 141" d="M378.806,397.942l-4.363,1.4-.921-1.6,3.486-.955A11.172,11.172,0,0,0,378.806,397.942Z" fill="#225866"/>
        <path id="Path_142" data-name="Path 142" d="M381.693,399.119l-2.942,1.954-1.81-.711,2.742-1.987A15.166,15.166,0,0,0,381.693,399.119Z" fill="#225866"/>
      </g>
      <g id="Group_35" data-name="Group 35">
        <path id="Path_143" data-name="Path 143" d="M272.932,407.2a7.87,7.87,0,0,1-.355,1.854h-20.95a9.434,9.434,0,0,1-.589-1.854c-2.065-10.026,11.858-22.294,11.858-22.294l4.419,5.9s-.511,9.437,3.23,11.4A4.785,4.785,0,0,1,272.932,407.2Z" fill="#164353"/>
        <path id="Path_144" data-name="Path 144" d="M251.038,407.2h21.894a7.87,7.87,0,0,1-.355,1.854h-20.95A9.434,9.434,0,0,1,251.038,407.2Z" fill="#225866"/>
        <path id="Path_145" data-name="Path 145" d="M269.588,401.454s-8.827-2.013-12.851.593V400.59S264.161,396.982,269.588,401.454Z" fill="#225866"/>
        <path id="Path_146" data-name="Path 146" d="M267.839,399.215s-5.636-2.577-11.1,0l.624-1.47S263.89,395.276,267.839,399.215Z" fill="#225866"/>
      </g>
      <path id="Path_147" data-name="Path 147" d="M383.614,318.07c.011,8.427-7.472,77.13-7.472,77.13a43.707,43.707,0,0,1-13.479-.755c-2.054-34.818-2.254-64.761-2.254-64.761L324.548,302.8l-.089-.066s-.133.61-.377,1.7c-1.777,7.883-9.293,40.9-12.424,48.463-3.564,8.616-42.531,44.846-42.531,44.846-7.239-1-13.381-6.242-13.381-6.242,13.989-23.2,33.063-46.476,33.063-46.476,1.488-8.36,2.554-26.957,3.187-40.857.011-.211.022-.433.033-.644.422-9.415.633-16.521.633-16.521l-6.573-13.478,41.757-15.344,9.359,11.98s2.143,1.987,5.518,5.162l.466.433C355.724,287.583,383.614,314.3,383.614,318.07Z" fill="#8bbddb"/>
      <g id="Group_36" data-name="Group 36">
        <path id="Path_148" data-name="Path 148" d="M292,304.17c.011-.211.022-.433.033-.644,8.793-4.774,7.316-12.391,7.294-12.468l.544-.111C299.889,291.024,301.466,299.207,292,304.17Z" fill="#6097b2"/>
        <path id="Path_149" data-name="Path 149" d="M323.9,297.419a47.347,47.347,0,0,1,.644,5.385l-.089-.066s-.133.61-.377,1.7c-.389-13.056-5.773-20.773-5.84-20.861l.455-.322c.056.066,3.453,4.974,5.1,13.534,6.351-5.641.133-17.2.067-17.309l.488-.267C324.415,279.333,331,291.568,323.9,297.419Z" fill="#6097b2"/>
        <path id="Path_150" data-name="Path 150" d="M343.189,275.758c-.011.011-.033.011-.044.023a2.4,2.4,0,0,1-.866.144c-3.075,0-8.238-4.308-8.482-4.519l.366-.422c1.677,1.421,6.351,4.83,8.56,4.341Z" fill="#6097b2"/>
      </g>
      <path id="Path_151" data-name="Path 151" d="M289.013,201.658s12.7-2.044,19.066,2.014,14.72,14.646,14.72,14.646-9.921,1.31-11.044,8.048C311.755,226.366,304.549,209.2,289.013,201.658Z" fill="#adbec4"/>
      <path id="Path_152" data-name="Path 152" d="M269.9,208.283c-5.373,2.9-14.355,13.81-14.76,20.517-.4,6.541,4.449,12.557,7.716,17.671,10.193,15.959,20.925,30.06,25.485,48.778.029.119,23.315,9.359,50.644-23.491,0,0-15.442-20.777-20.777-38.466-2.172-7.2-4.381-14.849-8.552-21.2a22.7,22.7,0,0,0-20.648-10.439C282.087,202.22,275.2,205.421,269.9,208.283Z" fill="#cfd8dc"/>
      <path id="Path_153" data-name="Path 153" d="M267.65,201.589s3.437,5.872,1.849,9.1c0,0,11.792,4.071,11.792-2.527,0,0-2.222-4.945-1.385-8.143Z" fill="#ef6e4b"/>
      <path id="Path_154" data-name="Path 154" d="M293.854,241.8s-6.559,1.864-8.215,4.186-3.128,7.53-3.128,7.53h11.343l2.133-3.924,2.5-5.23Z" fill="#ef6e4b"/>
      <g id="Group_40" data-name="Group 40">
        <path id="Path_155" data-name="Path 155" d="M283.01,195.041s4.606-1.931,1.626-15.783c-1.974-9.178-4.817-10.546-6.655-10.627,0,0-2.248-3.387-10.045-1.766a14.487,14.487,0,0,0-11.477,10.355c-1.958,6.264,1.958,19.692,7.115,21.028Z" fill="#164353"/>
        <path id="Path_156" data-name="Path 156" d="M284.1,185.681s2.9-4.04,4-.058c1.27,4.613-2.683,7.208-3.762,5.852S284.1,185.681,284.1,185.681Z" fill="#ff8b66"/>
        <path id="Path_157" data-name="Path 157" d="M259.815,189.938s-4.046-2.893-3.8,1.23c.279,4.776,4.856,5.964,5.443,4.333S259.815,189.938,259.815,189.938Z" fill="#ff8b66"/>
        <path id="Path_158" data-name="Path 158" d="M275.109,204.632c7.707-1.271,11.227-7.023,8.736-22.124-1.285-7.789-6.036-11.912-14.669-10.488s-11.482,6.8-10.2,14.591C261.656,202.836,267.146,205.946,275.109,204.632Z" fill="#ff8b66"/>
        <path id="Path_159" data-name="Path 159" d="M262.42,191.575a1.851,1.851,0,1,0,1.818-1.426A1.655,1.655,0,0,0,262.42,191.575Z" fill="#db614d"/>
        <path id="Path_160" data-name="Path 160" d="M278.344,189.382a1.85,1.85,0,1,0,1.43-1.815A1.654,1.654,0,0,0,278.344,189.382Z" fill="#db614d"/>
        <g id="Group_37" data-name="Group 37">
          <path id="Path_161" data-name="Path 161" d="M264.59,183.164a.391.391,0,0,1-.323-.61,5.227,5.227,0,0,1,3.333-1.9.387.387,0,0,1,.438.336.393.393,0,0,1-.335.439,4.492,4.492,0,0,0-2.79,1.561A.389.389,0,0,1,264.59,183.164Z" fill="#1a4850"/>
        </g>
        <g id="Group_38" data-name="Group 38">
          <path id="Path_162" data-name="Path 162" d="M279.1,180.77a.389.389,0,0,1-.235-.079,4.482,4.482,0,0,0-3.141-.583.385.385,0,0,1-.459-.307.391.391,0,0,1,.307-.459,5.221,5.221,0,0,1,3.763.726.39.39,0,0,1-.235.7Z" fill="#1a4850"/>
        </g>
        <path id="Path_163" data-name="Path 163" d="M265.994,187.138c.158.958.717,1.663,1.248,1.575s.835-.935.677-1.893-.717-1.661-1.248-1.574S265.836,186.181,265.994,187.138Z" fill="#1a4850"/>
        <path id="Path_164" data-name="Path 164" d="M276.287,185.44c.158.957.717,1.662,1.249,1.575s.835-.935.677-1.892-.717-1.663-1.249-1.575S276.129,184.483,276.287,185.44Z" fill="#1a4850"/>
        <path id="Path_165" data-name="Path 165" d="M279.177,194.131s-6.687,1.794-10.395,1.081c0,0,2.563,3.229,6.222,2.3S279.177,194.131,279.177,194.131Z" fill="#1a4850"/>
        <path id="Path_166" data-name="Path 166" d="M279.493,175.5s-8.7,6.3-19.621,6.779l.31,9.721S250,173.247,270.134,169.925,284.4,187.551,284.4,187.551,283.781,178.517,279.493,175.5Z" fill="#0e3944"/>
        <g id="Group_39" data-name="Group 39">
          <path id="Path_167" data-name="Path 167" d="M272.377,191.519l-.056-.84c.012,0,1.173-.091,1.475-.81.125-.3-.37-1.24-.807-2.072a15.911,15.911,0,0,1-1.68-4.195l.826-.166a15.188,15.188,0,0,0,1.6,3.97c.647,1.235,1.115,2.127.837,2.789A2.683,2.683,0,0,1,272.377,191.519Z" fill="#db614d"/>
        </g>
        <path id="Path_168" data-name="Path 168" d="M284.213,175.524c-14.634-6.35-28.445,6.817-28.445,6.817s-1.61-10.669,1.21-13.167a16.8,16.8,0,0,1,2.343-1.743c6.461-4.075,15.055-4,19-2.6a4.8,4.8,0,0,1,1.788,1C282.436,168.252,284.213,175.524,284.213,175.524Z" fill="#ce364c"/>
        <path id="Path_169" data-name="Path 169" d="M282.436,173.149a34.607,34.607,0,0,0-23.748,5.151s-.733-6.883.633-10.869c6.461-4.075,15.055-4,19-2.6C280.615,167.453,282.436,173.149,282.436,173.149Z" fill="#cfd8dc"/>
        <path id="Path_170" data-name="Path 170" d="M256.978,181.087s1.948-8.275,4.573-10.606c4.367-3.877,16.636-5.209,23.085-2.878s0,9.377,0,9.377S274.358,169.618,256.978,181.087Z" fill="#a02e44"/>
      </g>
      <path id="Path_171" data-name="Path 171" d="M275.956,236.073a40.961,40.961,0,0,0,13.577,12.358s10.7-9.289,24.576-8.453c0,0-11.5,20.748-21.375,23.046-5.188,1.207-23.952-11.218-23.952-11.218S272.528,238.6,275.956,236.073Z" fill="#ff8b66"/>
      <path id="Path_172" data-name="Path 172" d="M257.459,221.969c4.6-7.484,15.2,3.579,18.81,11.479s6.242,9.576,6.242,9.576-10.6,4.426-10.52,12.368C271.991,255.392,247.428,238.3,257.459,221.969Z" fill="#adbec4"/>
      <path id="Path_173" data-name="Path 173" d="M289.533,245.013s6.454-6.332,27.676-14.6l-2.741-8.62c2.435-3.2,6.911-3.2,6.911-3.2s10.873,15.354,9,19.94C329.211,241.4,306.532,244.4,289.533,245.013Z" fill="#ef6e4b"/>
      <path id="Path_174" data-name="Path 174" d="M312.774,232.485a5.664,5.664,0,0,1,.952-2.014c.784-1.107.572-3.122.853-3.747s1.951-3.177,3.059-3.673,2.562-1.309,2.871.1-1.985,1.008-3.015,3.031a8.93,8.93,0,0,1,4.041-.306c1.788.423,2.295,2.058.086,2a9.914,9.914,0,0,0-4.031,1.212s2.3.345,1.925,1.4C319,231.957,316.2,231.056,312.774,232.485Z" fill="#ff8b66"/>
    </g>
    <g id="Group_55" data-name="Group 55">
      <path id="Path_175" data-name="Path 175" d="M155.819,261.392c1.9,4.857,9.668,13.184,9.668,13.184s18.984-11.38,27.742-6.592,15.718,7.709,21.4,5.624-18.676-46.38-18.676-46.38l-31.579-12.051s-.689,7.987-4.3,9.406-7.455,14.6-7.2,17.1S155.819,261.392,155.819,261.392Z" fill="#3e6575"/>
      <path id="Path_176" data-name="Path 176" d="M191.349,274.865s-8.142,15.962-24.954,36.4c0,0-1.723,24.309-46.179,62.556l-4.654-3.661s26.475-41.471,31.77-54.186-2.927-24.365,21.435-56.526Z" fill="#ef6e4b"/>
      <path id="Path_177" data-name="Path 177" d="M165.432,246.62c-7.01,13.427-9.362,30.593-9.362,30.593l-3.192,8.053a89.8,89.8,0,0,0,24.4,8.327l5.244-13.879Z" fill="#662c33"/>
      <path id="Path_178" data-name="Path 178" d="M201.991,273.608s3.471,17.579,2.9,44.04c0,0,13.678,20.17,2.39,77.718h-5.921s-4.837-48.962-8.538-62.23-17.367-17.338-18.107-57.678Z" fill="#ff8b66"/>
      <g id="Group_43" data-name="Group 43">
        <path id="Path_179" data-name="Path 179" d="M205.462,292.479s-11.136,2-30.754,1.077l-.311-2.21-.077-.566-2.032-14.3a38.482,38.482,0,0,1-3.831-6.129c-.233-.444-.455-.9-.677-1.376-2.642-5.629-4.985-13.812-2.354-22.35l4.142.189.577.033L184,247.48l.588.034,4.552.21.711.034,2.953.133s15.011,13.512,12.335,38.493l.189,3.475.022.566Z" fill="#8b383e"/>
        <g id="Group_42" data-name="Group 42">
          <path id="Path_180" data-name="Path 180" d="M170.145,246.847c-.389,1.144-3.009,9.626-1.688,23.5-.233-.444-.455-.9-.677-1.376-.988-12.69,1.288-20.607,1.788-22.161.066-.189.1-.277.1-.289l.521.189C170.189,246.725,170.167,246.77,170.145,246.847Z" fill="#662c33"/>
          <path id="Path_181" data-name="Path 181" d="M205.351,290.425c-3.941,1.01-10.625,1.288-16.976,1.288-5.7,0-11.1-.233-13.978-.367l-.077-.566c4.985.244,18.108.755,26.568-.166l-.544-8.938a56.311,56.311,0,0,0-6.062-25.48c-7.705-1.4-9.826-7.106-10.281-8.716-.067-.255-.1-.411-.1-.422l.544-.088c0,.01.044.21.144.544a11.845,11.845,0,0,0,9.371,8.049,55.17,55.17,0,0,0-4.819-7.839c-.244-.333-.4-.521-.41-.533l.422-.355c.022.022.277.333.7.922,2.576,3.5,11.269,16.654,11.047,33.9l.544,8.893a29.37,29.37,0,0,0,3.886-.688Z" fill="#662c33"/>
        </g>
      </g>
      <path id="Path_182" data-name="Path 182" d="M176.984,186.385c-4.419-2.434-36.262,10.054-36.262,10.054s-4.711,8.4-1.775,11.7,13.356,1.842,16.548,0,11.647-3.236,11.647-3.236Z" fill="#8bbddb"/>
      <path id="Path_183" data-name="Path 183" d="M205.143,159.876a16.643,16.643,0,0,1,8.984,10.117c2.406,7.578-4.787,26.763-2.3,35.582s2.1,25.473-5.664,28.989-23.686-2.776-27.1-12.4-1.943-46.075,4.628-58.473S203.561,157.539,205.143,159.876Z" fill="#f24052"/>
      <path id="Path_184" data-name="Path 184" d="M197.584,192.572c1.735,1.87,6.2-1.463,6.2-1.463s-.091,16.536-4.9,17.8S181.827,195.887,182.331,192,193.737,188.424,197.584,192.572Z" fill="#8bbddb"/>
      <path id="Path_185" data-name="Path 185" d="M179.057,188.436a33.922,33.922,0,0,0,13.331,6.091c8.47,1.964,13.06-2.018,17.392,3.443,6.5,8.2-4.076,23.308-9.642,31.138-2.074,2.92-6.453,11.017-7.337,18.785,0,0-14.7,4.269-27.369-1.273l-.946-18.029S156.5,204.294,179.057,188.436Z" fill="#0e3944"/>
      <path id="Path_186" data-name="Path 186" d="M194.251,205.976s6.715-16,8.659-17.024,6.876,1.431,7.867,3.62,0,6.964,0,6.964S205.481,193.491,194.251,205.976Z" fill="#8bbddb"/>
      <path id="Path_187" data-name="Path 187" d="M226.413,273.605c-3.053,6.25-10.548,8.049-10.548,8.049s-.566-.866-1.521-2.421c-.1-.155-.211-.333-.311-.51-5.9-9.56-23.915-40.147-23.559-56.057a41.514,41.514,0,0,1,12.812-29.444c6.295,1.5,8.283,3.22,8.283,3.22a77.787,77.787,0,0,1,.177,23.826c-1.943,13-5.473,16.443-3.7,17.42s0,2.909,0,2.909,10.448,14.555,12.4,19.085c1.265,2.953,3.419,7.971,4.763,11.1.088.223.177.445.266.644C226.046,272.75,226.413,273.605,226.413,273.605Z" fill="#6097b2"/>
      <path id="Path_188" data-name="Path 188" d="M208.266,196.439s-7.481,5.545-3.123,14.017l20.734,21.465c-11.38,12.126-12.508,17.1-20.734,22.695l3.123,4.836s28.81-22.142,28.853-27.531C237.137,229.614,219.521,201.706,208.266,196.439Z" fill="#ff8b66"/>
      <path id="Path_189" data-name="Path 189" d="M204.689,254.618a61.974,61.974,0,0,0-6.441,1.06c-2.489.623-5.807,1.245-5.911,1.763s5.5,0,5.5,0-4.562,1.875-4.666,2.6,5.807-.523,5.807-.523-3.733,2.281-3.526,2.9,4.806-.934,4.806-.934a14.486,14.486,0,0,1-1.742,3.215s.891.489,2.7-1.518,4.694-1.363,6.978-3.144S206.769,254.35,204.689,254.618Z" fill="#ff8b66"/>
      <path id="Path_190" data-name="Path 190" d="M183.5,191.1s-5.691,3.677-9.285,12.559-14.935,25.6-17.592,29.915-.806,27.819-.806,27.819-3.331-14.249-4.811-19.8,4.78-19.268,5.721-20,5.751.6,4.826-4.966,11.984-29.569,15.429-30.245C176.984,186.385,182.5,187.422,183.5,191.1Z" fill="#6097b2"/>
      <path id="Path_191" data-name="Path 191" d="M165.9,192.3a4.217,4.217,0,0,1-.344.556,14.406,14.406,0,0,1-3.686,3.33s-4.342,6.085-4.386,6.784c-.044.6-7.539,6.04-10.869,5.929h-.011a1.647,1.647,0,0,1-1.1-.378c-1.976-1.865,6.729-17.52,8.649-20.895.122-.222.222-.388.289-.5.044-.089.078-.145.078-.145s-1.533-5.706,4.863-4.641c5.318.877,6.372,5.108,6.928,7.939A3.024,3.024,0,0,1,165.9,192.3Z" fill="#6097b2"/>
      <path id="Path_192" data-name="Path 192" d="M143.574,198.216c4.393-5.774,19.851-16.974,27.993-20.29l2.036,3.784s-15.734,13.832-19.43,19.749-8.275,8.365-12.649,6.394S142.65,199.431,143.574,198.216Z" fill="#ff8b66"/>
      <path id="Path_193" data-name="Path 193" d="M164.372,191.113l-.833.954-.422.489-1.377,1.576s-3.464,4.2-3.33,5.885c.1,1.21-6.573,6.628-11.791,8.882-2.121.921-4.008,1.321-5.108.688-3.774-2.176-2.931-8.715-.788-13.145,1.865-3.864,10.115-8.849,12.235-10.07a5.463,5.463,0,0,1,.489-.289l.011-.011.788-3.064s2.876-1.732,5.141-.667c0,0-5,.211-4.175,2.154C156.056,186.449,162.984,191.046,164.372,191.113Z" fill="#8bbddb"/>
      <g id="Group_44" data-name="Group 44">
        <path id="Path_194" data-name="Path 194" d="M182.513,175.091c-5.029,2.066-4.308,6.618-8.915,6.618-2.854,0-3.231-3.265-3.231-3.265a35.158,35.158,0,0,0,2.287-9.8c.189-2.265.944-1.388.944-1.388,0-.211-.011-.411-.022-.611-.067-1.521-.345-2.631.655-1.976,1.132.733,1.521,5.041,1.521,5.041.932-6.284-.455-7.217.633-6.662,1.487.755,1.5,6.306,1.5,6.473,1.2-3.653.878-5.74,1.71-4.907s-.422,7.549-.921,10.014c-.111.555-.189.9-.189.9C182.469,173.57,182.513,175.091,182.513,175.091Z" fill="#ff8b66"/>
        <path id="Path_195" data-name="Path 195" d="M178.672,174.625c-.111.555-.189.9-.189.9a3.68,3.68,0,0,0-3.186,1.81A3.287,3.287,0,0,1,178.672,174.625Z" fill="#ef6e4b"/>
        <path id="Path_196" data-name="Path 196" d="M173.875,171.761c.034-.533.256-3.586-.277-4.508,0-.211-.011-.411-.022-.611C174.73,166.887,174,171.117,173.875,171.761Z" fill="#ef6e4b"/>
      </g>
      <path id="Path_197" data-name="Path 197" d="M177,198.248s3.4-9.212,4.48-11.269,6.713-1.7,10.975-.909,5.133,6.5,5.133,6.5S184.618,186.453,177,198.248Z" fill="#8bbddb"/>
      <path id="Path_198" data-name="Path 198" d="M198.882,180.118a37.061,37.061,0,0,0-4.007,15.857s-6.614,4.495-8.981-1.135a42.772,42.772,0,0,0,1.3-17.333C186.379,170.839,198.882,180.118,198.882,180.118Z" fill="#ef6e4b"/>
      <g id="Group_48" data-name="Group 48">
        <path id="Path_199" data-name="Path 199" d="M185.894,169.685s-1.21-4.31-3.364-1.28c-2.495,3.51.048,6.922,1.379,6.108S185.894,169.685,185.894,169.685Z" fill="#ff8b66"/>
        <path id="Path_200" data-name="Path 200" d="M205.12,180.767s4.312-1.2,2.839,2.213c-1.708,3.953-5.944,3.548-5.938,1.988S205.12,180.767,205.12,180.767Z" fill="#ff8b66"/>
        <path id="Path_201" data-name="Path 201" d="M187.659,188.483c-6.127-3.45-7.331-9.4-.572-21.4,3.486-6.191,8.775-8.215,15.637-4.351s7.614,9.289,4.127,15.481C199.589,191.108,193.988,192.047,187.659,188.483Z" fill="#ff8b66"/>
        <path id="Path_202" data-name="Path 202" d="M202.412,181.349a1.666,1.666,0,1,1-1.1-1.766A1.49,1.49,0,0,1,202.412,181.349Z" fill="#db614d"/>
        <path id="Path_203" data-name="Path 203" d="M189.621,174.588a1.665,1.665,0,1,1-.651-1.975A1.488,1.488,0,0,1,189.621,174.588Z" fill="#db614d"/>
        <g id="Group_45" data-name="Group 45">
          <path id="Path_204" data-name="Path 204" d="M203.289,173.589a.351.351,0,0,1-.341-.265,4.031,4.031,0,0,0-1.877-2.18.351.351,0,0,1,.325-.623,4.7,4.7,0,0,1,2.233,2.63.351.351,0,0,1-.254.427A.322.322,0,0,1,203.289,173.589Z" fill="#1a4850"/>
        </g>
        <g id="Group_46" data-name="Group 46">
          <path id="Path_205" data-name="Path 205" d="M194.875,167.6a.354.354,0,0,1-.182-.05,4.039,4.039,0,0,0-2.838-.475.351.351,0,0,1-.2-.672,4.681,4.681,0,0,1,3.406.546.351.351,0,0,1-.182.651Z" fill="#1a4850"/>
        </g>
        <path id="Path_206" data-name="Path 206" d="M200.757,176.5c-.429.76-1.119,1.184-1.541.946s-.418-1.048.01-1.809,1.119-1.184,1.541-.946S201.186,175.735,200.757,176.5Z" fill="#1a4850"/>
        <path id="Path_207" data-name="Path 207" d="M192.167,171.889c-.429.761-1.119,1.185-1.541.947s-.418-1.048.01-1.809,1.119-1.185,1.542-.946S192.6,171.128,192.167,171.889Z" fill="#1a4850"/>
        <path id="Path_208" data-name="Path 208" d="M189.191,179.7s3.515,2.682,6.055,2.764c0,0-2.7,2.2-4.643.773A3.5,3.5,0,0,1,189.191,179.7Z" fill="#1a4850"/>
        <path id="Path_209" data-name="Path 209" d="M198.91,174.959s1.614-1.56,2.274-1.011.315,2.469.315,2.469l1.411.036-1.167-.47s.376-1.994-.35-2.407C200.36,172.988,198.91,174.959,198.91,174.959Z" fill="#1a4850"/>
        <path id="Path_210" data-name="Path 210" d="M192.832,171.838s.5-2.188-.315-2.468-2.273,1.011-2.273,1.011l-.763-1.189,1.007.755s1.51-1.356,2.239-.949C193.766,169.577,192.832,171.838,192.832,171.838Z" fill="#1a4850"/>
        <path id="Path_211" data-name="Path 211" d="M204.351,165.3a3.507,3.507,0,0,0-5.226-.628c-3.031,2.422-9.868,6.3-13.231,5.017s7.358-15.61,16.667-11.414,8.471,17.857,4.6,22.2-2.04.3-2.04.3a48.715,48.715,0,0,1,1.552-10.245C207.966,166.439,204.351,165.3,204.351,165.3Z" fill="#f24052"/>
        <g id="Group_47" data-name="Group 47">
          <path id="Path_212" data-name="Path 212" d="M194.033,178.3a2.182,2.182,0,0,1-.531-.069l.186-.735a.875.875,0,0,0,1.082-.364.938.938,0,0,0,.014-.992c-.1-.1-.262-.09-.494.031l-.352-.672a1.09,1.09,0,0,1,1.395.118,1.667,1.667,0,0,1,.092,1.9A1.556,1.556,0,0,1,194.033,178.3Z" fill="#db614d"/>
        </g>
      </g>
      <g id="Group_50" data-name="Group 50">
        <path id="Path_213" data-name="Path 213" d="M238.9,231.071c-.366,5.384-13.689,22.915-15.91,23.537a5.909,5.909,0,0,0-1.721.855c-.233.167-.466.344-.688.522a16.81,16.81,0,0,0-2.221,2.2c-3.886-.255-14.8-5.307-11.291-6.417a2.685,2.685,0,0,0,.7-.367,4.063,4.063,0,0,0,.455-.355c4.13-3.464,12.168-17.52,12.224-18.586.044-1.165,1.432-1.387,1.432-1.387s-7.583-11.136-11.98-12.48-6.617-6.661-6.617-6.661c-4.341-18.375,8.283-15.488,8.283-15.488C220.873,201.982,239.269,225.675,238.9,231.071Z" fill="#8bbddb"/>
        <g id="Group_49" data-name="Group 49">
          <path id="Path_214" data-name="Path 214" d="M221.272,255.463c-.233.167-.466.344-.688.522a27.789,27.789,0,0,1-12.812-4.586,4.063,4.063,0,0,0,.455-.355A27.008,27.008,0,0,0,221.272,255.463Z" fill="#3e6575"/>
        </g>
      </g>
      <g id="Group_51" data-name="Group 51">
        <path id="Path_215" data-name="Path 215" d="M165.9,192.3a4.217,4.217,0,0,1-.344.556,14.392,14.392,0,0,1-2.443-.3,18.356,18.356,0,0,1-8.96-4.93c-.455-.444-.855-.866-1.2-1.254a5.463,5.463,0,0,1,.489-.289c.288.322.621.677,1,1.044a17.671,17.671,0,0,0,9.093,4.94A13.476,13.476,0,0,0,165.9,192.3Z" fill="#3e6575"/>
      </g>
      <g id="Group_52" data-name="Group 52">
        <path id="Path_216" data-name="Path 216" d="M225.48,271.428a15.646,15.646,0,0,1-11.136,7.8c-.1-.155-.211-.333-.311-.51a15.242,15.242,0,0,0,11.181-7.939C225.3,271.007,225.391,271.229,225.48,271.428Z" fill="#3e6575"/>
      </g>
      <g id="Group_53" data-name="Group 53">
        <path id="Path_217" data-name="Path 217" d="M124.436,372.45a19.536,19.536,0,0,0-2.831,3.875c-1.444,2.509.144,4.819-6.84,10.637,0,0-14.089-8.25-20.45-18.853a4.1,4.1,0,0,1,3.186-3.741c1.654-.378,6.206,1.754,10.581,2.576a17.972,17.972,0,0,0,1.854.255,10.752,10.752,0,0,0,2.242-.011,6.631,6.631,0,0,0,1.888-.455h.011a5.608,5.608,0,0,0,3.275-3.942s3.742,2.132,1.244,5.74C118.6,368.531,123.037,366.588,124.436,372.45Z" fill="#cfd8dc"/>
        <path id="Path_218" data-name="Path 218" d="M114.765,386.962s-14.089-8.25-20.45-18.853c0,0,2.364-.5,4.318,3.009S115.909,382.621,114.765,386.962Z" fill="#adbec4"/>
        <path id="Path_219" data-name="Path 219" d="M114.821,370.286c-1.144,1.809-1.121-1.533-2.643-3.1a6.631,6.631,0,0,0,1.888-.455h.011C114.754,367.465,115.72,368.875,114.821,370.286Z" fill="#adbec4"/>
        <path id="Path_220" data-name="Path 220" d="M110.391,370.385c-1.21,1.144-1.6-1.842-2.309-3.441a17.972,17.972,0,0,0,1.854.255C110.646,368.165,111.313,369.508,110.391,370.385Z" fill="#adbec4"/>
      </g>
      <g id="Group_54" data-name="Group 54">
        <path id="Path_221" data-name="Path 221" d="M211.113,409.056H191.184a11.724,11.724,0,0,1,0-5.829c.356-1.321,2.421-2.554,4.341-4.275a15.3,15.3,0,0,0,1.521-1.543,8.954,8.954,0,0,0,1.011-1.454,7.244,7.244,0,0,0,.821-2.077,9.112,9.112,0,0,0-.666-5.417s6.784-1.422,9.2,2.276c0,0,.233-1.71,2.387-.567a31.6,31.6,0,0,0,.111,6.306C210.336,399.341,213.012,400.174,211.113,409.056Z" fill="#cfd8dc"/>
        <path id="Path_222" data-name="Path 222" d="M205.928,397.054a.885.885,0,0,1-.666.3.967.967,0,0,1-.588-.2,7.275,7.275,0,0,0-6.617-1.2,7.244,7.244,0,0,0,.821-2.077c1.333-.488,3.842-.777,6.939,1.866A.911.911,0,0,1,205.928,397.054Z" fill="#adbec4"/>
        <path id="Path_223" data-name="Path 223" d="M204.252,400.362l-.111.167a.909.909,0,0,1-1.221.3c-1.355-.8-4.4-2.31-7.4-1.877a15.3,15.3,0,0,0,1.521-1.543,7.927,7.927,0,0,1,7.006,1.743A.929.929,0,0,1,204.252,400.362Z" fill="#adbec4"/>
      </g>
    </g>
  </g>
</svg>
