<svg xmlns="http://www.w3.org/2000/svg" xmlns:xlink="http://www.w3.org/1999/xlink" width="461" height="364.956" viewBox="0 0 461 364.956">
  <defs>
    <linearGradient id="linear-gradient" x1="0.875" y1="0.982" x2="0.099" y2="-0.08" gradientUnits="objectBoundingBox">
      <stop offset="0" stop-color="#702fc1"/>
      <stop offset="1" stop-color="#59a3ee"/>
    </linearGradient>
    <linearGradient id="linear-gradient-2" x1="1.086" y1="1.117" x2="-0.039" y2="-0.404" gradientUnits="objectBoundingBox">
      <stop offset="0" stop-color="#a0255a"/>
      <stop offset="1" stop-color="#bb6fb0"/>
    </linearGradient>
    <clipPath id="clip-path">
      <path id="Path_26" data-name="Path 26" d="M55.209,327.257s19.239,22.184-10.887,60.428c1.624,4.541,8.182,5.258,8.182,5.258s32.426-21.4,32.426-65.686" fill="#5d6e83"/>
    </clipPath>
    <linearGradient id="linear-gradient-3" x1="-0.19" y1="1.042" x2="0.972" y2="-0.233" gradientUnits="objectBoundingBox">
      <stop offset="0" stop-color="#702580"/>
      <stop offset="1" stop-color="#ff7b52"/>
    </linearGradient>
    <linearGradient id="linear-gradient-4" x1="-0.302" y1="1.466" x2="1.205" y2="-0.654" xlink:href="#linear-gradient-3"/>
    <clipPath id="clip-path-2">
      <path id="Path_40" data-name="Path 40" d="M398.183,285.8a13.743,13.743,0,0,1-5.87-16.645,4.158,4.158,0,0,1,1.648-2.178c1.939-1.075,4.117.741,6.13,1.671,4.8,2.22,10.3-.811,14.6-3.9s9.345-6.53,14.441-5.1c3.81,1.07,6.378,4.625,8.049,8.212s2.793,7.494,5.2,10.637c2.752,3.6,6.881,5.811,10.539,8.481a42.7,42.7,0,0,1,16.961,26.283c1.926,10.506-.852,21.926-7.924,29.931a15.423,15.423,0,0,1-6.123,4.564,15.7,15.7,0,0,1-5.8.706,51.835,51.835,0,0,1-13.423-2.5c-6.538-2-13.1-4.877-17.544-10.07-3.175-3.708-5.055-8.359-6.34-13.068a63.943,63.943,0,0,1-2.214-18.948c.179-5.309,1-10.757-.538-15.84" fill="url(#linear-gradient)"/>
    </clipPath>
    <linearGradient id="linear-gradient-6" x1="1.656" y1="3.491" x2="-0.009" y2="-0.744" xlink:href="#linear-gradient"/>
    <clipPath id="clip-path-3">
      <path id="Path_48" data-name="Path 48" d="M431.49,348.188c-2.248,0-27.116,5.921-28.3,16.974s33.553,20.131,33.553,20.131l5.131-6.611-17.42-11.942Z" fill="#eb9b46"/>
    </clipPath>
    <clipPath id="clip-path-4">
      <path id="Path_55" data-name="Path 55" d="M160.758,393.848s-18.5-9.647-1.5-34.248C172.758,377.5,160.758,393.848,160.758,393.848Z" fill="#314963"/>
    </clipPath>
    <clipPath id="clip-path-5">
      <path id="Path_58" data-name="Path 58" d="M341.136,390.714s-6.152-20.145,19.585-27.129C360.9,390.272,341.136,390.714,341.136,390.714Z" fill="#314963"/>
    </clipPath>
    <clipPath id="clip-path-6">
      <path id="Path_61" data-name="Path 61" d="M168.254,395.424s21.038,1.046,21.526-25.617C163.855,376.146,168.254,395.424,168.254,395.424Z" fill="#314963"/>
    </clipPath>
  </defs>
  <g id="OBJECTS" transform="translate(-18.975 -39.591)">
    <g id="Group_21" data-name="Group 21">
      <path id="Path_1" data-name="Path 1" d="M241.417,154.128c6.606-8.877,5.963-22.235,1.587-32.4-3.417-7.936-11.943-12.505-16.336-19.945-4.709-7.973-4-17.9-6.048-26.93-3.48-15.323-15.687-28.217-30.643-33.039S157.85,40.189,145.3,49.639s-20.323,24.792-21.059,40.489c-.993,21.154,10.2,41.413,25.4,56.161,13.166,12.777,28.408,20.128,45.952,24.8C212.61,175.628,231.329,167.683,241.417,154.128Z" fill="#f4af4a" opacity="0.2"/>
      <path id="Path_2" data-name="Path 2" d="M379.276,142.724c-.588-14.043,7.851-29.041,21.468-32.523,10.362-2.65,21.362,1.61,30.068,7.823A70.632,70.632,0,0,1,453.7,145.575c2.941,6.324,4.953,13.272,4.349,20.219s-4.161,13.881-10.235,17.307c-12.788,7.212-36.552,3.739-49.064-3.075C386.969,173.611,379.8,155.261,379.276,142.724Z" fill="#abd5e6" opacity="0.4"/>
      <path id="Path_3" data-name="Path 3" d="M272.507,360.862a130.858,130.858,0,0,1-35.492,4.005c-14.847-.157-30.539-2.418-42.079-11.76-13.8-11.168-18.678-32.031-11.271-48.161,7.753-16.884,25.656-26.121,40.249-37.621,35.014-27.593,53.723-74.5,47.307-118.619-3.559-24.472-13.974-50.541-3.05-72.726,10.077-20.463,37.21-29.243,58.7-21.59s36.415,28.972,39.961,51.5c3.8,24.123-3.174,51.6,11.3,71.27,17.725,24.082,55.711,20.534,79.438,38.732,15.483,11.875,22.992,32.229,22.369,51.731s-8.538,38.179-19.178,54.535c-5.452,8.382-11.812,16.44-20.229,21.838-8.867,5.687-19.434,8.056-29.852,9.62-13.932,2.093-28.574,3.448-42.666,2.475-9.661-.666-15.045-4.92-23.427-8.684C321.186,336.9,294.671,354.879,272.507,360.862Z" fill="#abd5e6" opacity="0.4"/>
      <g id="Group_5" data-name="Group 5">
        <path id="Path_4" data-name="Path 4" d="M276.685,365.644l.494,2.59s-11.168,4.837-11.044,5.577,18.951,0,18.951,0l-.616-8.167Z" fill="#24313c"/>
        <path id="Path_5" data-name="Path 5" d="M307.362,365.644l.007,2.59s12.1,4.837,12.121,5.577-18.952,0-18.952,0l-.96-8.167Z" fill="#24313c"/>
        <g id="Group_4" data-name="Group 4">
          <path id="Path_6" data-name="Path 6" d="M259.828,274.3s5.817,58.294,16.15,92.417c8.334-.211,9.334-.211,9.334-.211l-8-75.581h6l15.27,75.792h9.73s-7.236-60.423-11.031-95.408C279.233,262.945,259.828,274.3,259.828,274.3Z" fill="#314963"/>
          <g id="Group_3" data-name="Group 3">
            <path id="Path_7" data-name="Path 7" d="M270.342,216.174l16-3.332s6.475,2.207,7.3,10.578c0,0,1.748,30.8,3.667,49.12-28.4,3.967-37.484,1.761-37.484,1.761s-.68-35.377,2.441-49.186C263.462,219.84,266.089,220.641,270.342,216.174Z" fill="#66b688"/>
            <path id="Path_8" data-name="Path 8" d="M269.978,235.174c-21.8.333-36.511,25.867-36.511,25.867s-.089,3.533-9.089.852c15.614-39.044,45.964-45.719,45.964-45.719S273.645,224.174,269.978,235.174Z" fill="#66b688"/>
            <path id="Path_9" data-name="Path 9" d="M286.341,212.842s26.637-2.6,57.971,12.2c1,4.135-2,7.535-2,7.535s-39.286-11.733-57.81,1.6C280.978,228.507,286.341,212.842,286.341,212.842Z" fill="#66b688"/>
            <g id="Group_2" data-name="Group 2">
              <g id="Group_1" data-name="Group 1">
                <path id="Path_10" data-name="Path 10" d="M288.214,185.832s4.4,20.16-3.939,22.014-19.688.141-22.245-2.781c-1.826-2.085-2.086-23.172-.232-28.038S284.275,177.027,288.214,185.832Z" fill="#ffc0c8"/>
                <path id="Path_11" data-name="Path 11" d="M289,201.31s-1.79-9.452-8.461-6.537a25.252,25.252,0,0,1-2.231-12.743s-12.173,5.069-22.337-.682c-1.466-23.053,27.821-7.619,27.821-7.619S298.383,166.757,289,201.31Z" fill="url(#linear-gradient-2)"/>
                <path id="Path_12" data-name="Path 12" d="M285.053,196.927a2.488,2.488,0,0,1-1.778-1.987,10.163,10.163,0,0,1,.073-4.2c.679-2.49,8.183-3.719,3.942,7.37C286.215,198.948,286,197.186,285.053,196.927Z" fill="#ffc0c8"/>
              </g>
              <path id="Path_13" data-name="Path 13" d="M286.341,202.646v10.2l-11.2,10.578-4.693-5.294-.109-15.48" fill="#ffc0c8"/>
            </g>
          </g>
        </g>
      </g>
      <path id="Path_14" data-name="Path 14" d="M158.606,354.764a171.506,171.506,0,0,1-79.268,6.165c-10.649-1.689-21.477-4.555-29.924-11.165-10.105-7.908-19.439-18.409-23.989-30.309-6.369-16.657-7.918-36.181-5.1-53.764,2.023-12.64,8.167-24.214,12.493-36.279a130.535,130.535,0,0,0,7.041-56.366c-1.458-15.131-5.246-31.744,3.1-44.529,5.66-8.677,16.177-13.574,26.63-14.125s20.805,2.816,29.957,7.824c9.727,5.321,18.545,12.731,23.87,22.358,3.955,7.15,5.836,15.2,8.459,22.918,10.787,31.752,33.931,57.625,53.731,84.835,7.722,10.612,15.1,21.765,18.736,34.324a64.921,64.921,0,0,1-10.769,56.7C181.361,359.251,158.606,354.764,158.606,354.764Z" fill="#f4af4a" opacity="0.2"/>
      <path id="Path_15" data-name="Path 15" d="M440.539,378.759l8.871,3.018-1.646,11.888-5.3.183c-.586-.66,1.737-3.018,1.737-3.018v-4.578l-7.59-2.372" fill="#314963"/>
      <path id="Path_16" data-name="Path 16" d="M420.7,387.355l7.59,7.041-3.109,5.3h-8.041s0-2.469,4.932-3.658l-6.218-4.115" fill="#314963"/>
      <path id="Path_17" data-name="Path 17" d="M231.818,301.148a20.9,20.9,0,0,1,13.2,4.672,20.167,20.167,0,0,0,7.618,3.83V263.037H206.149a20.144,20.144,0,0,1,3.7-7.143,20.987,20.987,0,0,0-16.313-34.189h0a20.987,20.987,0,0,0-16.315,34.189,20.114,20.114,0,0,1,3.7,7.143H134.442v98.112a20.084,20.084,0,0,0,20.083,20.083h98.112V334.619a20.167,20.167,0,0,0-7.618,3.83,20.987,20.987,0,0,1-34.188-16.314h0A20.987,20.987,0,0,1,231.818,301.148Z" fill="#f4af4a"/>
      <path id="Path_18" data-name="Path 18" d="M370.522,263.037a20.167,20.167,0,0,0,3.83,7.618,20.986,20.986,0,1,1-32.629,0,20.167,20.167,0,0,0,3.83-7.618H298.94v46.488a20.114,20.114,0,0,1-7.143-3.7,20.987,20.987,0,0,0-34.189,16.315h0A20.987,20.987,0,0,0,291.8,338.449a20.13,20.13,0,0,1,7.143-3.705v46.488h98.112a20.084,20.084,0,0,0,20.083-20.083V263.037Z" fill="#69798c"/>
      <path id="Path_19" data-name="Path 19" d="M417.254,165.013a20.083,20.083,0,0,0-20.083-20.083H299.059v46.612a20.15,20.15,0,0,0,7.618-3.829,20.987,20.987,0,0,1,34.188,16.314h0a20.986,20.986,0,0,1-34.188,16.314,20.15,20.15,0,0,0-7.618-3.829v46.613h45.6a19.238,19.238,0,0,1-3.47,6.611,21.831,21.831,0,1,0,33.941,0,19.237,19.237,0,0,1-3.47-6.611h45.6Z" fill="#ffa077"/>
      <g id="Group_9" data-name="Group 9">
        <path id="Path_20" data-name="Path 20" d="M130.182,236.349l1.676-9.473s1.653-.7,2.049-.485.072,4.069.072,4.069,3.874-8.358,4.459-8.432,1.377.359,1.4.705-2.233,5.527-2.233,5.527,3.6-5.579,4.139-5.461,1.355.444,1.323,1-3.053,5.2-3.053,5.2a41.753,41.753,0,0,1,3.882-3.174c.346-.024,1.161.755.917,1.257s-3.183,3.966-3.183,3.966a20.555,20.555,0,0,1,3.252-2.025c.443,0,1.046.725.83,1.121s-8.539,8.025-8.539,8.025l-2.378,3.046Z" fill="#ffc0c8"/>
        <path id="Path_21" data-name="Path 21" d="M61.207,263.366s32.2,11.5,68.759-30.456c3.314.146,6.067,5.2,6.067,5.2s-26.627,61.757-76.36,44.01" fill="#eb9b46"/>
        <path id="Path_22" data-name="Path 22" d="M115.292,381.772l-.991,8.721,16,2.056s-1.564-4.689-7.871-5.165l.992-6.606" fill="#314963"/>
        <path id="Path_23" data-name="Path 23" d="M46.16,387.492l-9.029,7.19,4.514,9.865h9.748s-.552-2.843-5.233-3.177a85.239,85.239,0,0,1,5.233-9.7Z" fill="#314963"/>
        <g id="Group_7" data-name="Group 7">
          <path id="Path_24" data-name="Path 24" d="M55.209,327.257s19.239,22.184-10.887,60.428c1.624,4.541,8.182,5.258,8.182,5.258s32.426-21.4,32.426-65.686" fill="#5d6e83"/>
          <g id="Group_6" data-name="Group 6" clip-path="url(#clip-path)">
            <path id="Path_25" data-name="Path 25" d="M54.666,312.242c-.92-1.1-2.707-.179-3.686.871a19.8,19.8,0,0,0,5.76,31.267c6.853,3.365,15.1,2.491,22.294-.061,3.776-1.339,7.726-3.457,9.116-7.214a15.887,15.887,0,0,0,.553-6.216,37.428,37.428,0,0,0-1.349-10.009c-1.768-5.427-6.006-9.828-10.99-12.611a42.29,42.29,0,0,0-16.355-4.661" fill="#1d262d" opacity="0.2" style="mix-blend-mode: multiply;isolation: isolate"/>
          </g>
        </g>
        <path id="Path_27" data-name="Path 27" d="M187.818,215.745a20.89,20.89,0,0,1-.766,13.983,20.159,20.159,0,0,0-1.529,8.387L230.25,224.99l-13.09-44.607a20.156,20.156,0,0,1,7.9,1.543,20.986,20.986,0,0,0,28.212-25.28h0a20.987,20.987,0,0,0-37.4-6.027,20.129,20.129,0,0,1-5.811,5.566l-13.09-44.607L102.827,139.2A20.084,20.084,0,0,0,89.211,164.13l27.626,94.141,44.727-13.125a20.173,20.173,0,0,0-5.819-6.231,20.986,20.986,0,0,1,6.027-37.4h0A20.985,20.985,0,0,1,187.818,215.745Z" fill="#314963"/>
        <g id="Group_8" data-name="Group 8">
          <path id="Path_28" data-name="Path 28" d="M52.065,246.067s-3.7-4.087-4.391-12.429-.005-14.83,2.315-16.452,5.1,0,5.1,0,.463-4.171,3.476-4.635,3.707,1.854,3.707,1.854a4.875,4.875,0,0,1,4.867-3.939c4.171,0,5.561,4.171,9.732,3.939s11.354,1.159,11.586,5.561-10.659,8.3-10.659,8.3Z" fill="url(#linear-gradient-3)"/>
          <path id="Path_29" data-name="Path 29" d="M52.772,230.162s-4.4,20.16,3.939,22.014,19.688.141,22.245-2.781c1.826-2.085,2.086-23.172.232-28.038S56.711,221.357,52.772,230.162Z" fill="#ffc0c8"/>
          <path id="Path_30" data-name="Path 30" d="M50.454,236.151s7.647,4.439,10.2,1.195,0-12.282,0-12.282,16.29,2.339,21.087-3.012c-1.882-9.269-22.477-2.623-22.477-2.623S47.919,223.363,50.454,236.151Z" fill="url(#linear-gradient-4)"/>
          <path id="Path_31" data-name="Path 31" d="M57.406,239.663a11.606,11.606,0,0,0,.232-5.562c-.695-2.549-8.574-3.707-5.561,5.1C54.162,241.748,57.406,239.663,57.406,239.663Z" fill="#ffc0c8"/>
        </g>
        <path id="Path_32" data-name="Path 32" d="M54.645,246.976v10.195s4.1,7.415,10.589,6.489,5.33-5.33,5.33-5.33l.08-11.354" fill="#ffc0c8"/>
        <path id="Path_33" data-name="Path 33" d="M119.065,214.357l-.766-9.59s1.423-1.1,1.861-.986,1.095,3.919,1.095,3.919,1.642-9.064,2.189-9.283,1.424,0,1.533.329-.766,5.911-.766,5.911,2.08-6.307,2.627-6.328,1.423.088,1.533.635-1.642,5.8-1.642,5.8a41.563,41.563,0,0,1,2.956-4.051c.328-.109,1.313.438,1.2.985s-2.08,4.641-2.08,4.641a20.571,20.571,0,0,1,2.636-2.779c.429-.11,1.195.437,1.086.875s-6.24,9.919-6.24,9.919l-1.533,3.547Z" fill="#ffc0c8"/>
        <path id="Path_34" data-name="Path 34" d="M351.662,328.152l-7.683-4.422s-1.473.753-1.555,1.16,2.831,2.459,2.831,2.459-8.2-2.21-8.594-1.841-.561,1.185-.331,1.406,5.225,1.7,5.225,1.7-6.073-.757-6.306-.31-.489,1.22-.076,1.527a43.827,43.827,0,0,0,5.479.923,38.3,38.3,0,0,0-4.539.863c-.221.23-.154,1.266.345,1.391s4.685.1,4.685.1a19.023,19.023,0,0,0-3.354,1.1c-.261.315-.108,1.169.3,1.251s10.722-1.282,10.722-1.282l3.558.123Z" fill="#ffc0c8"/>
        <path id="Path_35" data-name="Path 35" d="M54.645,257.171s-21.772,11.288-3.252,61.863a89.985,89.985,0,0,0,33.537-3.005s-3.475-29.268-5.329-40.471a37.02,37.02,0,0,0-8.957-18.387Z" fill="#f4af4a"/>
        <path id="Path_36" data-name="Path 36" d="M59.673,259.968s34.063,3.012,58.857-46.809c3.244-.695,7.184,3.505,7.184,3.505s-10.2,66.476-62.8,61.841" fill="#f4af4a"/>
        <path id="Path_37" data-name="Path 37" d="M84.93,316.029c55.195,5.212,38.936,65.778,38.936,65.778s-5.1,2.353-9.021,0c1.025-36.087-13.111-42.823-29.915-45.1-17.308,5.077-33.433-.253-33.537-17.669Z" fill="#69798c"/>
      </g>
      <g id="Group_12" data-name="Group 12">
        <g id="Group_11" data-name="Group 11">
          <path id="Path_38" data-name="Path 38" d="M398.183,285.8a13.743,13.743,0,0,1-5.87-16.645,4.158,4.158,0,0,1,1.648-2.178c1.939-1.075,4.117.741,6.13,1.671,4.8,2.22,10.3-.811,14.6-3.9s9.345-6.53,14.441-5.1c3.81,1.07,6.378,4.625,8.049,8.212s2.793,7.494,5.2,10.637c2.752,3.6,6.881,5.811,10.539,8.481a42.7,42.7,0,0,1,16.961,26.283c1.926,10.506-.852,21.926-7.924,29.931a15.423,15.423,0,0,1-6.123,4.564,15.7,15.7,0,0,1-5.8.706,51.835,51.835,0,0,1-13.423-2.5c-6.538-2-13.1-4.877-17.544-10.07-3.175-3.708-5.055-8.359-6.34-13.068a63.943,63.943,0,0,1-2.214-18.948c.179-5.309,1-10.757-.538-15.84" fill="url(#linear-gradient)"/>
          <g id="Group_10" data-name="Group 10" clip-path="url(#clip-path-2)">
            <path id="Path_39" data-name="Path 39" d="M465.353,318.37c8.415,9.442,4.943,20.466,1.094,28.4-3.327,6.855-11.189,10.636-18.8,10.974s-15.048-2.216-22.06-5.2c-11.273-4.8-22.933-11.839-26.828-23.456-3.622-10.8,5.035-43.122,21.266-38.054,7.559,2.36,6.739,10.6,16.8,15.387C446.73,311.13,456.51,308.45,465.353,318.37Z" fill="#1d262d" opacity="0.2" style="mix-blend-mode: multiply;isolation: isolate"/>
          </g>
        </g>
        <path id="Path_41" data-name="Path 41" d="M400.319,276.21c-4.393,3.374-4.99,24.768-1.109,27.626s21.624,0,21.624,0,2.772-12.13,1.663-22.378S407.527,270.674,400.319,276.21Z" fill="#ffc0c8"/>
        <path id="Path_42" data-name="Path 42" d="M395.8,274.028c2.761,6.739,8.637,11.938,15.359,14.743s14.225,3.368,21.464,2.57a29.1,29.1,0,0,0-35.908-21.016" fill="url(#linear-gradient-6)"/>
        <path id="Path_43" data-name="Path 43" d="M408.856,302.367l2.269,6.557,12.312-2.506-1.174-12.07" fill="#ffc0c8"/>
        <path id="Path_44" data-name="Path 44" d="M416.873,291.672s-.627-5.248,2.723-5.172,6.125,8.336,0,9.065" fill="#ffc0c8"/>
      </g>
      <path id="Path_45" data-name="Path 45" d="M411.125,308.924s-6.253,23.5,4.325,29c7.93,4.124,13.891,15.929,13.891,15.929l23.434-11.8s-2.662-8.185-10.9-19.779c-8.968-12.621-18.437-15.85-18.437-15.85Z" fill="#314963"/>
      <g id="Group_14" data-name="Group 14">
        <path id="Path_46" data-name="Path 46" d="M431.49,348.188c-2.248,0-27.116,5.921-28.3,16.974s33.553,20.131,33.553,20.131l5.131-6.611-17.42-11.942Z" fill="#eb9b46"/>
        <g id="Group_13" data-name="Group 13" clip-path="url(#clip-path-3)">
          <path id="Path_47" data-name="Path 47" d="M393.259,375.052c9.813.034,19.682-.092,29.343-1.815s19.179-5.123,26.974-11.085a66.434,66.434,0,0,0-53.466,2.354" fill="#1d262d" opacity="0.2" style="mix-blend-mode: multiply;isolation: isolate"/>
        </g>
      </g>
      <path id="Path_49" data-name="Path 49" d="M452.775,342.048s6.109,23.628-8.5,25.975c-13.991,2.25-37.968,0-37.968,0l16.206,19.307-7.067,5.858s-29.521-17-29.521-31.193c0-13.018,36.588-15.129,36.588-15.129Z" fill="#f4af4a"/>
      <path id="Path_50" data-name="Path 50" d="M411.125,308.924s-15.407,23.234-60.33,17.69c-.678,5.773.7,8.171.7,8.171s47.179,15.246,68.495-11.088" fill="#314963"/>
      <path id="Path_51" data-name="Path 51" d="M222.014,261.8c-.528.55.24,5.977.631,6.51s1.641,0,1.641,0l.568-3.137s.341,3.3.795,3.6,1.59.385,1.931,0,0-3.359,0-3.359.853,3.383,1.246,3.508,1.286.268,1.5.036a30.593,30.593,0,0,0,.465-4.126,16.019,16.019,0,0,0,.5,3.251,2.3,2.3,0,0,0,1.607-.214,42.882,42.882,0,0,0,.572-4.836h2.465a6.157,6.157,0,0,0-1.143-2.1,11.747,11.747,0,0,0-5.323-1.821C227.683,259.049,222.525,261.27,222.014,261.8Z" fill="#ffc0c8"/>
      <path id="Path_52" data-name="Path 52" d="M160.758,397.008" fill="#fff"/>
      <g id="Group_16" data-name="Group 16">
        <path id="Path_53" data-name="Path 53" d="M160.758,393.848s-18.5-9.647-1.5-34.248C172.758,377.5,160.758,393.848,160.758,393.848Z" fill="#314963"/>
        <g id="Group_15" data-name="Group 15" clip-path="url(#clip-path-4)">
          <path id="Path_54" data-name="Path 54" d="M159.3,390.446a30.316,30.316,0,0,0,2.792,7.642c-2.183-2.252-5.286-3.414-7.537-5.6a14.5,14.5,0,0,1-3.845-7.5,35.935,35.935,0,0,1-.486-8.522,39.427,39.427,0,0,1,.824-7.669,34.963,34.963,0,0,1,2.575-6.971,19.913,19.913,0,0,1,3.237-5.14c.434-.468,1.283-1.594,2-1.269.651.3.473,1.572.41,2.094C158.673,362.385,156.758,379,159.3,390.446Z" fill="#1d262d" opacity="0.2" style="mix-blend-mode: multiply;isolation: isolate"/>
        </g>
      </g>
      <g id="Group_18" data-name="Group 18">
        <path id="Path_56" data-name="Path 56" d="M341.136,390.714s-6.152-20.145,19.585-27.129C360.9,390.272,341.136,390.714,341.136,390.714Z" fill="#314963"/>
        <g id="Group_17" data-name="Group 17" clip-path="url(#clip-path-5)">
          <path id="Path_57" data-name="Path 57" d="M362.721,356.967l-2.008,7.92s-10.065,17.268-23.4,29c18.161-2.519,21.661-4.47,21.661-4.47l6-18.409Z" fill="#1d262d" opacity="0.2" style="mix-blend-mode: multiply;isolation: isolate"/>
        </g>
      </g>
      <g id="Group_20" data-name="Group 20">
        <path id="Path_59" data-name="Path 59" d="M168.254,395.424s21.038,1.046,21.526-25.617C163.855,376.146,168.254,395.424,168.254,395.424Z" fill="#314963"/>
        <g id="Group_19" data-name="Group 19" clip-path="url(#clip-path-6)">
          <path id="Path_60" data-name="Path 60" d="M195.709,366.252l-7.19,3.881s-14.288,13.977-22.406,29.776c-1.992-18.227-.955-22.1-.955-22.1L181.544,367.5Z" fill="#1d262d" opacity="0.2" style="mix-blend-mode: multiply;isolation: isolate"/>
        </g>
      </g>
      <path id="Path_62" data-name="Path 62" d="M332.258,390.714s-18.812-12.049-7.37-37.924C340.492,374.14,332.258,390.714,332.258,390.714Z" fill="#314963"/>
      <path id="Path_63" data-name="Path 63" d="M237.052,387.721s-14.1,1.01-12.555-21.15C242.375,374.179,237.052,387.721,237.052,387.721Z" fill="#314963"/>
    </g>
  </g>
</svg>
