<svg width="54" height="54" viewBox="0 0 54 54" fill="none" xmlns="http://www.w3.org/2000/svg">
<g clip-path="url(#clip0)">
<path d="M31.841 53.9424C30.4227 53.9424 29.273 52.7927 29.273 51.3745L29.2731 30.826C29.2731 29.4078 30.4227 28.2805 31.841 28.2805C33.2592 28.2805 34.4089 29.4078 34.4089 30.826V51.3745C34.4089 52.7927 33.2592 53.9424 31.841 53.9424Z" fill="#42464A"/>
<path d="M25.642 53.9182C24.2238 53.9182 23.0741 52.7684 23.0741 51.3502V30.8241C23.0741 29.4059 24.2238 28.2562 25.642 28.2562C27.0603 28.2562 28.21 29.4059 28.21 30.8241V51.3501C28.2099 52.7684 27.0603 53.9182 25.642 53.9182Z" fill="#50555A"/>
<path d="M39.6278 15.3215C39.6139 12.5432 37.3066 10.2828 34.4847 10.2828C32.5504 10.2828 26.0566 10.2828 22.9963 10.2828C20.1743 10.2828 17.8671 12.5432 17.8532 15.3215C17.8532 15.3251 17.8532 15.3287 17.8532 15.3323V31.0539C17.8532 32.2358 18.8113 33.1938 19.9931 33.1938C21.175 33.1938 22.1331 32.2358 22.1331 31.0539V15.3394C22.1376 14.9324 22.5479 14.5627 22.9963 14.5627H23.0739V30.8262H34.4089V14.5626H34.4846C34.933 14.5626 35.3433 14.9324 35.3478 15.3393V31.0538C35.3478 32.2356 36.3059 33.1937 37.4877 33.1937C38.6696 33.1937 39.6277 32.2356 39.6277 31.0538V15.3322C39.6279 15.3287 39.6279 15.325 39.6278 15.3215Z" fill="#373C41"/>
<path d="M39.6278 15.3215C39.6139 12.5432 37.3067 10.2828 34.4848 10.2828C33.4247 10.2828 29.8177 10.2828 28.7419 10.2828L28.7405 18.8518L28.7419 30.8262H34.4089V14.5626H34.4847C34.933 14.5626 35.3434 14.9324 35.3478 15.3393V31.0538C35.3478 32.2356 36.3059 33.1937 37.4878 33.1937C38.6697 33.1937 39.6277 32.2356 39.6277 31.0538V15.3322C39.6279 15.3287 39.6279 15.325 39.6278 15.3215Z" fill="#292D30"/>
<path d="M28.7404 8.92685C31.1898 8.92685 33.1755 6.94116 33.1755 4.49169C33.1755 2.04221 31.1898 0.0565214 28.7404 0.0565214C26.2909 0.0565214 24.3052 2.04221 24.3052 4.49169C24.3052 6.94116 26.2909 8.92685 28.7404 8.92685Z" fill="#BA6746"/>
<path d="M17.8531 29.95V31.0538C17.8531 32.2357 18.8112 33.1938 19.9931 33.1938C21.1749 33.1938 22.133 32.2357 22.133 31.0538V29.95H17.8531Z" fill="white"/>
<path d="M35.3479 29.95V31.0538C35.3479 32.2357 36.306 33.1938 37.4879 33.1938C38.6697 33.1938 39.6278 32.2357 39.6278 31.0538V29.95H35.3479Z" fill="white"/>
<path d="M17.8531 30.9987V31.0537C17.8531 32.2356 18.8112 33.1937 19.9931 33.1937C21.1749 33.1937 22.133 32.2356 22.133 31.0537V30.9987H17.8531Z" fill="#BA6746"/>
<path d="M35.3479 30.9987V31.0537C35.3479 32.2356 36.306 33.1937 37.4879 33.1937C38.6697 33.1937 39.6278 32.2356 39.6278 31.0537V30.9987H35.3479Z" fill="#BA6746"/>
<path d="M25.4749 10.2828L28.7404 18.8517L32.0061 10.2828H25.4749Z" fill="white"/>
<path d="M30.1603 13.2126L29.4313 11.8868L30.06 10.7433C30.1737 10.5365 30.0238 10.2827 29.7876 10.2827H27.6918C27.4559 10.2827 27.3056 10.5363 27.4194 10.7433L28.0502 11.8907L27.3232 13.2128C27.223 13.3949 27.1904 13.6066 27.2311 13.8105L27.6854 16.0835L28.7404 18.8517L29.7991 16.0736L30.2522 13.8106C30.2931 13.6066 30.2605 13.3948 30.1603 13.2126Z" fill="#78BEFF"/>
<path d="M30.1603 13.2126L29.4313 11.8868L30.06 10.7433C30.1737 10.5365 30.0238 10.2827 29.7876 10.2827H28.7404V18.8517L29.7991 16.0736L30.2522 13.8106C30.2931 13.6066 30.2605 13.3948 30.1603 13.2126Z" fill="#5AAAE5"/>
<path d="M33.1081 16.8808H30.2812V17.7526H33.1081V16.8808Z" fill="#373C41"/>
<path d="M0 27.0715V41.1009V52.6299C0 53.3547 0.587565 53.9424 1.31256 53.9424C2.03755 53.9424 2.62511 53.3547 2.62511 52.6299V47.9403H11.1338V52.6299C11.1338 53.3547 11.7214 53.9424 12.4463 53.9424C13.1713 53.9424 13.7589 53.3547 13.7589 52.6299L13.771 40.1686L2.62511 40.1461V27.0715C2.62511 26.3466 2.03755 25.7589 1.31256 25.7589C0.587565 25.7589 0 26.3467 0 27.0715ZM2.62501 42.7711H11.1337V45.3153H2.62501V42.7711Z" fill="#80391B"/>
<path d="M18.7478 52.3432L16.0179 40.7099H6.71455C5.57011 40.7099 4.64252 39.7822 4.64252 38.6379C4.64252 37.4934 5.57022 36.5658 6.71455 36.5658H17.6601C18.6221 36.5658 19.4575 37.2281 19.6774 38.1645L22.7824 51.3965C23.0437 52.5106 22.3526 53.6257 21.2384 53.887C20.1197 54.1498 19.0081 53.4528 18.7478 52.3432Z" fill="#414B82"/>
<path d="M8.62764 21.4725C10.9062 21.4725 12.7534 19.6254 12.7534 17.3468C12.7534 15.0683 10.9062 13.2211 8.62764 13.2211C6.34907 13.2211 4.50192 15.0683 4.50192 17.3468C4.50192 19.6254 6.34907 21.4725 8.62764 21.4725Z" fill="#FFB69E"/>
<path d="M45.3647 21.6479C47.5686 21.6479 49.3551 19.8614 49.3551 17.6575C49.3551 15.4537 47.5686 13.6671 45.3647 13.6671C43.1609 13.6671 41.3743 15.4537 41.3743 17.6575C41.3743 19.8614 43.1609 21.6479 45.3647 21.6479Z" fill="#FFB69E"/>
<path d="M52.6873 25.759C51.9624 25.759 51.3748 26.3467 51.3748 27.0715V40.1461L40.2291 40.1686L40.2412 52.6298C40.2412 53.3547 40.8288 53.9424 41.5537 53.9424C42.2786 53.9424 42.8663 53.3547 42.8663 52.6298V47.9403H51.375V52.6298C51.375 53.3547 51.9625 53.9424 52.6875 53.9424C53.4125 53.9424 54.0001 53.3547 54.0001 52.6298V27.0714C53.9999 26.3467 53.4122 25.759 52.6873 25.759ZM51.3748 45.3153H42.8661V42.7711H51.3748V45.3153Z" fill="#80391B"/>
<path d="M28.2177 34.8092H25.8396V53.9434H28.2177V34.8092Z" fill="#632C15"/>
<path d="M8.33888 53.4048C7.49144 52.6358 7.42784 51.3255 8.19682 50.478L14.134 43.9351L5.92544 40.5543C4.86728 40.1185 4.36282 38.9074 4.79862 37.8494C5.23431 36.7913 6.44551 36.2867 7.50357 36.7226L18.44 41.2268C19.7679 41.7736 20.1483 43.4739 19.1854 44.535L11.2657 53.2628C10.4989 54.108 9.18854 54.1758 8.33888 53.4048Z" fill="#5F6E9B"/>
<path d="M36.1147 35.335H17.9429C17.2862 35.335 16.7539 34.8027 16.7539 34.1461C16.7539 33.4894 17.2862 32.9571 17.9429 32.9571H36.1147C36.7713 32.9571 37.3036 33.4894 37.3036 34.1461C37.3036 34.8027 36.7713 35.335 36.1147 35.335Z" fill="#C8A06E"/>
<path d="M30.8175 53.9424H23.2399C22.5833 53.9424 22.051 53.4101 22.051 52.7535C22.051 52.0968 22.5833 51.5645 23.2399 51.5645H30.8175C31.4741 51.5645 32.0064 52.0968 32.0064 52.7535C32.0064 53.4101 31.4741 53.9424 30.8175 53.9424Z" fill="#965028"/>
<path d="M14.3187 36.566L4.64188 38.8791L3.84127 25.9492C3.75362 24.5344 4.82613 23.315 6.24036 23.2212L10.8328 22.9165C12.2515 22.8224 13.4779 23.8961 13.5721 25.315L14.3187 36.566Z" fill="#64AFFF"/>
<path d="M12.2114 32.7684L7.13052 26.0678C6.55435 25.308 6.70316 24.2249 7.46306 23.6486C8.22275 23.0723 9.30612 23.2213 9.88219 23.9811L14.4037 29.9441L20.365 29.5725C21.3181 29.5136 22.1365 30.2368 22.1959 31.1884C22.2551 32.1402 21.5316 32.9598 20.58 33.0193L13.6948 33.4483C13.1154 33.4843 12.5597 33.2279 12.2114 32.7684Z" fill="#FFB69E"/>
<path d="M11.955 26.7147L9.8823 23.9812C9.30623 23.2214 8.22297 23.0724 7.46317 23.6487C6.70327 24.2248 6.55445 25.3079 7.13063 26.0679L9.22787 28.8336L11.955 26.7147Z" fill="#78BEFF"/>
<path d="M39.5325 52.7194L33.5421 39.9012C33.2653 39.2856 33.3058 38.5736 33.6505 37.9934C33.9954 37.4131 34.6011 37.037 35.2741 36.9856L47.0676 36.0845C48.2104 35.9971 49.2043 36.8516 49.2915 37.9926C49.3787 39.1337 48.5244 40.1293 47.3834 40.2165L38.5317 40.893L43.3125 51.0204C43.7817 52.0641 43.3159 53.2906 42.2721 53.7598C41.2296 54.2284 40.0024 53.7646 39.5325 52.7194Z" fill="#5F6E9B"/>
<path d="M39.6888 36.6483L49.2876 38.3484L50.1296 26.2785C50.1773 25.5958 49.9512 24.9223 49.5013 24.4068C49.0513 23.8912 48.4146 23.5758 47.7319 23.5306L43.1596 23.2271C41.7409 23.1329 40.5145 24.2067 40.4203 25.6256L39.6888 36.6483Z" fill="#AABEEB"/>
<path d="M38.9482 31.1545C38.6357 31.1545 38.3243 31.0697 38.0494 30.9022L32.1587 27.3119C31.3445 26.8157 31.0868 25.7532 31.583 24.9389C32.0792 24.1245 33.1418 23.8668 33.9561 24.363L39.0563 27.4715L45.8367 24.3049C46.7009 23.9013 47.7283 24.2746 48.1318 25.1387C48.5353 26.0027 48.1621 27.0304 47.298 27.4338L39.6787 30.9921C39.4464 31.1008 39.1971 31.1545 38.9482 31.1545Z" fill="#FFB69E"/>
<path d="M48.1317 25.1389C47.7282 24.2749 46.7008 23.9015 45.8366 24.305L42.3532 25.9319L43.9667 28.9897L47.2978 27.4342C48.162 27.0305 48.5353 26.003 48.1317 25.1389Z" fill="#96A5D7"/>
</g>
<defs>
<clipPath id="clip0">
<rect width="54" height="54" fill="white"/>
</clipPath>
</defs>
</svg>
