<svg xmlns="http://www.w3.org/2000/svg" width="430.478" height="268.658" viewBox="0 0 430.478 268.658">
  <g id="OBJECTS" transform="translate(-34.761 -191.484)">
    <path id="Path_2" data-name="Path 2" d="M449.454,428.572H50.546a15.785,15.785,0,0,0-15.785,15.785h0a15.785,15.785,0,0,0,15.785,15.785H449.454a15.785,15.785,0,0,0,15.785-15.785h0A15.785,15.785,0,0,0,449.454,428.572Z" fill="#c0c1c4"/>
    <g id="Group_4" data-name="Group 4" transform="translate(0 125.09)">
      <path id="Path_8" data-name="Path 8" d="M250,317.914H159.24L236.8,66.394h26.4l77.56,251.52Z" transform="translate(0 0)" fill="#fff" opacity="0.25"/>
    </g>
    <g id="Group_5" data-name="Group 5">
      <path id="Path_9" data-name="Path 9" d="M73.739,372.405H187.745V336.739H311.757v53.5h114.5v53.5H73.739Z" fill="#ca684b"/>
      <rect id="Rectangle_5" data-name="Rectangle 5" width="114.504" height="7.043" transform="translate(311.757 390.239)" opacity="0.1"/>
      <rect id="Rectangle_6" data-name="Rectangle 6" width="124.012" height="107" transform="translate(187.745 336.739)" fill="#ff8b5a"/>
      <rect id="Rectangle_7" data-name="Rectangle 7" width="134.018" height="5.667" transform="translate(182.742 331.072)" fill="#d35930"/>
      <rect id="Rectangle_8" data-name="Rectangle 8" width="119.507" height="5.667" transform="translate(311.757 384.572)" fill="#a14828"/>
      <rect id="Rectangle_9" data-name="Rectangle 9" width="119.009" height="5.667" transform="translate(68.736 366.739)" fill="#a14828"/>
      <path id="Path_10" data-name="Path 10" d="M68.736,366.739l20.012-13.5h99v13.5Z" fill="#5e3e2f"/>
      <path id="Path_11" data-name="Path 11" d="M182.742,331.072l20.012-13.5h93.994l20.012,13.5Z" fill="#5e3e2f"/>
      <path id="Path_12" data-name="Path 12" d="M311.757,384.572v-13.5h99.5l20.012,13.5Z" fill="#5e3e2f"/>
      <text id="_1" data-name="1" transform="translate(235.03 416.89)" fill="#fffffa" font-size="70" font-family="Montserrat-Black, Montserrat" font-weight="800"><tspan x="0" y="0">1</tspan></text>
      <text id="_2" data-name="2" transform="translate(119.847 428.572)" fill="#fffffa" font-size="50" font-family="Montserrat-Black, Montserrat" font-weight="800"><tspan x="0" y="0">2</tspan></text>
      <text id="_3" data-name="3" transform="translate(354.341 434.572)" fill="#fffffa" font-size="50" font-family="Montserrat-Black, Montserrat" font-weight="800"><tspan x="0" y="0">3</tspan></text>
      <rect id="Rectangle_10" data-name="Rectangle 10" width="114.006" height="7.043" transform="translate(73.739 372.405)" opacity="0.1"/>
      <rect id="Rectangle_11" data-name="Rectangle 11" width="11.214" height="90.5" transform="translate(176.531 353.239)" opacity="0.1"/>
      <rect id="Rectangle_12" data-name="Rectangle 12" width="11.214" height="72.667" transform="translate(311.757 371.072)" opacity="0.1"/>
      <rect id="Rectangle_13" data-name="Rectangle 13" width="124.012" height="12.422" transform="translate(187.745 336.739)" opacity="0.1"/>
    </g>
    <g id="Group_10" data-name="Group 10">
      <g id="Group_6" data-name="Group 6">
        <path id="Path_13" data-name="Path 13" d="M207.33,274.5h-.214a3,3,0,0,1-3-3h0a3,3,0,0,1,3-3h.071a3.506,3.506,0,0,0,1.254-6.82c-14.474-6.061-16.771-35.636-16.986-38.989l-.2-3.191h29.865v6H197.732c1.073,9.557,4.7,27.157,13.027,30.645a9.644,9.644,0,0,1,6.047,8.833A9.5,9.5,0,0,1,207.33,274.5Z" fill="#bf7406"/>
      </g>
      <g id="Group_7" data-name="Group 7">
        <path id="Path_14" data-name="Path 14" d="M292.171,274.5h.214a3,3,0,0,0,3-3h0a3,3,0,0,0-3-3h-.07a3.506,3.506,0,0,1-1.255-6.82c14.475-6.061,16.772-35.636,16.986-38.989l.205-3.191H278.385v6h23.384c-1.072,9.557-4.694,27.157-13.026,30.645a9.644,9.644,0,0,0-6.048,8.833A9.5,9.5,0,0,0,292.171,274.5Z" fill="#bf7406"/>
      </g>
      <g id="Group_9" data-name="Group 9">
        <path id="Path_15" data-name="Path 15" d="M258.278,307.882H241.313l3-34.268h10.962Z" fill="#bf7406"/>
        <g id="Group_8" data-name="Group 8">
          <path id="Path_16" data-name="Path 16" d="M278.35,319.754H221.241a33.673,33.673,0,0,1,27.954-14.9h1.2a33.673,33.673,0,0,1,27.954,14.9Z" fill="#f3a000"/>
          <rect id="Rectangle_14" data-name="Rectangle 14" width="19.313" height="6" transform="translate(240.094 309.572)" fill="#bf7406"/>
          <path id="Path_17" data-name="Path 17" d="M240.094,309.572h11.531l-1.875,6h-9.656Z" fill="#fff" opacity="0.1"/>
          <path id="Path_18" data-name="Path 18" d="M254.5,309.572l-.75,6h5.657v-6Z" fill="#fff" opacity="0.1"/>
          <rect id="Rectangle_15" data-name="Rectangle 15" width="57.109" height="4.568" transform="translate(221.241 319.754)" fill="#c97b07"/>
        </g>
        <path id="Rectangle_16" data-name="Rectangle 16" d="M0,0H69.868a0,0,0,0,1,0,0V39.5A34.934,34.934,0,0,1,34.934,74.436h0A34.934,34.934,0,0,1,0,39.5V0A0,0,0,0,1,0,0Z" transform="translate(214.862 212.309)" fill="#f3a000"/>
        <rect id="Rectangle_17" data-name="Rectangle 17" width="79.874" height="6.062" rx="3.031" transform="translate(209.859 206.246)" fill="#e48b07"/>
        <path id="Path_19" data-name="Path 19" d="M275.088,222.1v34.257c0,2.519,3.915,2.523,3.915,0V222.1C279,219.577,275.088,219.573,275.088,222.1Z" fill="#fff" opacity="0.2"/>
        <path id="Path_20" data-name="Path 20" d="M277.562,264.429c.24-2.506-3.677-2.49-3.915,0a6.959,6.959,0,0,1-2.773,4.879,2.02,2.02,0,0,0-.7,2.679,1.972,1.972,0,0,0,2.678.7l.289-.209a2.185,2.185,0,0,0,.322-.285A11.2,11.2,0,0,0,277.562,264.429Z" fill="#fff" opacity="0.2"/>
      </g>
      <path id="Rectangle_18" data-name="Rectangle 18" d="M0,0H44a0,0,0,0,1,0,0V45.854a22,22,0,0,1-22,22h0a22,22,0,0,1-22-22V0A0,0,0,0,1,0,0Z" transform="translate(223.088 212.309)" fill="#fff" opacity="0.2"/>
    </g>
    <g id="Group_15" data-name="Group 15">
      <g id="Group_11" data-name="Group 11">
        <path id="Path_21" data-name="Path 21" d="M101.415,316.316h-.184a2.587,2.587,0,0,1-2.588-2.588h0a2.587,2.587,0,0,1,2.588-2.587h.061a3.024,3.024,0,0,0,1.082-5.883c-12.486-5.228-14.468-30.74-14.653-33.632l-.176-2.753h25.762v5.176H93.136c.925,8.244,4.049,23.426,11.237,26.435a8.318,8.318,0,0,1,5.217,7.619A8.192,8.192,0,0,1,101.415,316.316Z" fill="#5f686f"/>
      </g>
      <g id="Group_12" data-name="Group 12">
        <path id="Path_22" data-name="Path 22" d="M174.6,316.316h.185a2.587,2.587,0,0,0,2.587-2.588h0a2.587,2.587,0,0,0-2.587-2.587h-.062a3.024,3.024,0,0,1-1.082-5.883c12.486-5.228,14.468-30.74,14.653-33.632l.176-2.753H162.708v5.176h20.171c-.925,8.244-4.049,23.426-11.237,26.435a8.317,8.317,0,0,0-5.216,7.619A8.191,8.191,0,0,0,174.6,316.316Z" fill="#5f686f"/>
      </g>
      <g id="Group_14" data-name="Group 14">
        <path id="Path_23" data-name="Path 23" d="M145.363,345.115H130.729l2.589-29.56h9.456Z" fill="#727b84"/>
        <g id="Group_13" data-name="Group 13">
          <path id="Path_24" data-name="Path 24" d="M162.677,355.356H113.415A29.045,29.045,0,0,1,137.528,342.5h1.036a29.043,29.043,0,0,1,24.113,12.853Z" fill="#d2d3d5"/>
          <rect id="Rectangle_19" data-name="Rectangle 19" width="16.659" height="5.176" transform="translate(129.678 346.573)" fill="#5f686f"/>
          <path id="Path_25" data-name="Path 25" d="M129.678,346.573h9.947l-1.617,5.176h-8.33Z" fill="#fff" opacity="0.1"/>
          <path id="Path_26" data-name="Path 26" d="M142.1,346.573l-.647,5.176h4.879v-5.176Z" fill="#fff" opacity="0.1"/>
          <rect id="Rectangle_20" data-name="Rectangle 20" width="49.263" height="3.94" transform="translate(113.415 355.356)" fill="#808893"/>
        </g>
        <path id="Rectangle_21" data-name="Rectangle 21" d="M0,0H60.268a0,0,0,0,1,0,0V34.075A30.134,30.134,0,0,1,30.134,64.21h0A30.134,30.134,0,0,1,0,34.075V0A0,0,0,0,1,0,0Z" transform="translate(107.912 262.672)" fill="#d2d3d5"/>
        <rect id="Rectangle_22" data-name="Rectangle 22" width="68.9" height="5.229" rx="2.615" transform="translate(103.596 257.443)" fill="#808893"/>
        <path id="Path_27" data-name="Path 27" d="M159.863,271.115v29.55a1.69,1.69,0,0,0,3.378,0v-29.55A1.69,1.69,0,0,0,159.863,271.115Z" fill="#fff" opacity="0.2"/>
        <path id="Path_28" data-name="Path 28" d="M162,307.632c.207-2.162-3.172-2.148-3.377,0a6.008,6.008,0,0,1-2.392,4.209,1.742,1.742,0,0,0-.606,2.31,1.7,1.7,0,0,0,2.311.606l.249-.18a1.9,1.9,0,0,0,.277-.246A9.664,9.664,0,0,0,162,307.632Z" fill="#fff" opacity="0.2"/>
      </g>
      <path id="Path_29" data-name="Path 29" d="M133.985,321.2h0a18.977,18.977,0,0,1-18.977-18.977V262.672h37.955v39.555A18.977,18.977,0,0,1,133.985,321.2Z" fill="#fff" opacity="0.2"/>
    </g>
    <g id="Group_22" data-name="Group 22">
      <g id="Group_17" data-name="Group 17">
        <g id="Group_16" data-name="Group 16">
          <path id="Path_30" data-name="Path 30" d="M334.918,333.821h-.185a2.588,2.588,0,0,1-2.587-2.588h0a2.588,2.588,0,0,1,2.587-2.588h.062a3.024,3.024,0,0,0,1.082-5.882c-12.486-5.229-14.468-30.741-14.653-33.633l-.176-2.753H346.81v5.176H326.639c.925,8.244,4.049,23.426,11.237,26.435a8.317,8.317,0,0,1,5.216,7.619A8.191,8.191,0,0,1,334.918,333.821Z" fill="#bd6c1a"/>
        </g>
      </g>
      <g id="Group_19" data-name="Group 19">
        <g id="Group_18" data-name="Group 18">
          <path id="Path_31" data-name="Path 31" d="M408.1,333.821h.184a2.588,2.588,0,0,0,2.588-2.588h0a2.588,2.588,0,0,0-2.588-2.588h-.061a3.023,3.023,0,0,1-1.082-5.882c12.486-5.229,14.468-30.741,14.653-33.633l.176-2.753H396.211v5.176h20.171c-.925,8.244-4.049,23.426-11.237,26.435a8.318,8.318,0,0,0-5.217,7.619A8.192,8.192,0,0,0,408.1,333.821Z" fill="#bd6c1a"/>
        </g>
      </g>
      <g id="Group_21" data-name="Group 21">
        <path id="Path_32" data-name="Path 32" d="M378.866,362.619H364.232l2.589-29.56h9.456Z" fill="#a65f17"/>
        <g id="Group_20" data-name="Group 20">
          <path id="Path_33" data-name="Path 33" d="M396.18,372.86H346.918a29.043,29.043,0,0,1,24.113-12.853h1.036A29.045,29.045,0,0,1,396.18,372.86Z" fill="#da9246"/>
          <rect id="Rectangle_23" data-name="Rectangle 23" width="16.659" height="5.176" transform="translate(363.181 364.077)" fill="#bd6c1a"/>
          <path id="Path_34" data-name="Path 34" d="M363.181,364.077h9.947l-1.617,5.176h-8.33Z" fill="#fff" opacity="0.1"/>
          <path id="Path_35" data-name="Path 35" d="M375.608,364.077l-.647,5.176h4.879v-5.176Z" fill="#fff" opacity="0.1"/>
          <rect id="Rectangle_24" data-name="Rectangle 24" width="49.263" height="3.94" transform="translate(346.918 372.86)" fill="#bd6c1a"/>
        </g>
        <path id="Path_36" data-name="Path 36" d="M371.549,344.386h0a30.133,30.133,0,0,1-30.134-30.134V280.177h60.268v34.075A30.133,30.133,0,0,1,371.549,344.386Z" fill="#da9246"/>
        <path id="Path_37" data-name="Path 37" d="M403.384,274.947h-63.67a2.615,2.615,0,0,0-2.615,2.615h0a2.615,2.615,0,0,0,2.615,2.615h63.67A2.615,2.615,0,0,0,406,277.562h0A2.615,2.615,0,0,0,403.384,274.947Z" fill="#bd6c1a"/>
        <path id="Path_38" data-name="Path 38" d="M393.366,288.62v29.55a1.69,1.69,0,0,0,3.378,0V288.62A1.69,1.69,0,0,0,393.366,288.62Z" fill="#fff" opacity="0.2"/>
        <path id="Path_39" data-name="Path 39" d="M395.5,325.136c.206-2.162-3.172-2.148-3.377,0a6.006,6.006,0,0,1-2.392,4.209,1.742,1.742,0,0,0-.606,2.31,1.7,1.7,0,0,0,2.311.606l.249-.18a1.9,1.9,0,0,0,.277-.246A9.665,9.665,0,0,0,395.5,325.136Z" fill="#fff" opacity="0.2"/>
      </g>
      <path id="Path_40" data-name="Path 40" d="M367.488,338.708h0a18.977,18.977,0,0,1-18.977-18.977V280.177h37.955v39.554A18.977,18.977,0,0,1,367.488,338.708Z" fill="#fff" opacity="0.2"/>
    </g>
  </g>
</svg>
