<svg xmlns="http://www.w3.org/2000/svg" width="500" height="372.609" viewBox="0 0 500 372.609">
  <g id="Group_35" data-name="Group 35" transform="translate(0 -54.952)">
    <g id="Background_Complete" data-name="Background Complete">
      <g id="Group_1" data-name="Group 1">
        <rect id="Rectangle_1" data-name="Rectangle 1" width="500" height="0.25" transform="translate(0 382.398)" fill="#ebebeb"/>
        <rect id="Rectangle_2" data-name="Rectangle 2" width="33.122" height="0.25" transform="translate(416.779 398.494)" fill="#ebebeb"/>
        <rect id="Rectangle_3" data-name="Rectangle 3" width="12.887" height="0.25" transform="translate(260.335 395.36)" fill="#ebebeb"/>
        <rect id="Rectangle_4" data-name="Rectangle 4" width="27.14" height="0.25" transform="translate(322.527 396.416)" fill="#ebebeb"/>
        <rect id="Rectangle_5" data-name="Rectangle 5" width="56.111" height="0.25" transform="translate(359.667 389.208)" fill="#ebebeb"/>
        <rect id="Rectangle_6" data-name="Rectangle 6" width="26.527" height="0.25" transform="translate(52.459 400.777)" fill="#ebebeb"/>
        <rect id="Rectangle_7" data-name="Rectangle 7" width="23" height="0.25" transform="translate(87.889 400.777)" fill="#ebebeb"/>
        <rect id="Rectangle_8" data-name="Rectangle 8" width="60.814" height="0.25" transform="translate(131 395.235)" fill="#ebebeb"/>
        <path id="Path_1" data-name="Path 1" d="M237.014,337.8H43.915a5.714,5.714,0,0,1-5.708-5.708V60.66a5.715,5.715,0,0,1,5.708-5.708h193.1a5.715,5.715,0,0,1,5.707,5.708V332.091A5.714,5.714,0,0,1,237.014,337.8ZM43.915,55.2a5.464,5.464,0,0,0-5.458,5.458V332.091a5.464,5.464,0,0,0,5.458,5.458h193.1a5.463,5.463,0,0,0,5.457-5.458V60.66a5.463,5.463,0,0,0-5.457-5.458Z" fill="#ebebeb"/>
        <path id="Path_2" data-name="Path 2" d="M453.31,337.8h-193.1a5.713,5.713,0,0,1-5.707-5.708V60.66a5.714,5.714,0,0,1,5.707-5.708h193.1a5.715,5.715,0,0,1,5.709,5.708V332.091A5.715,5.715,0,0,1,453.31,337.8ZM260.212,55.2a5.463,5.463,0,0,0-5.457,5.458V332.091a5.463,5.463,0,0,0,5.457,5.458h193.1a5.464,5.464,0,0,0,5.459-5.458V60.66A5.464,5.464,0,0,0,453.31,55.2Z" fill="#ebebeb"/>
      </g>
      <g id="Group_11" data-name="Group 11">
        <g id="Group_3" data-name="Group 3">
          <path id="Path_3" data-name="Path 3" d="M264.9,296.391c-2-5.75-17.8,2.069-24.205,11.6-4.269,6.345-6.876,13.12-8.094,22.219.146-10.382.312-21.538.474-32.065,1.3-2.625,4.256-8.677,6.385-13.472,7.1-16,23.992-21.958,29.827-32.06,7.645-13.237,7.6-33.092,1.093-40.257-5.656-6.226-24.386,35.875-26.5,40.579a125.065,125.065,0,0,0-10.726,39.816c.155-9.887.3-18.965.425-25.97.4-22.846.892-30.195,1.119-32.456.782-1.1,1.705-2.391,2.241-3.081,4.533-5.836,14.589-12.782,19.615-21.265,7.339-12.386,6.153-27.209,1.006-32.729-5.382-5.771-14.9,7.869-19.948,21.385s-2.893,26.451-4.31,37.676c-.3,2.2-.6,10.563-.886,22.162-1.533-12.48-4.585-20.841-10.242-28.632-6.958-9.583-12.964-21.252-18.7-19.744s-2.647,16.949,1.888,27.788c4.04,9.654,23.965,19.282,26.9,27.043-.346,15.722-.655,35.64-.874,54.185-1.571-9.579-.491-10.383-6.928-25.048-3.827-8.719-19.516-19.471-21.387-13.48-1.836,5.878.973,17.312,6.9,25.242,4.778,6.4,15.379,6.389,17.832,10.358.572.926,2.464,4.476,3.545,6.517-.256,22.64-.371,42.625-.243,49.439l1.028.069c-.049-1.759.075-13.276.277-28.517,2.574-8.11,19.9-12.844,25.257-21.278C263.282,313.587,267.308,303.288,264.9,296.391Z" fill="#e6e6e6"/>
          <g id="Group_2" data-name="Group 2">
            <path id="Path_4" data-name="Path 4" d="M248.609,382.4H215.347a3.82,3.82,0,0,1-3.745-3.061L209.241,367.7h45.474l-2.361,11.642A3.82,3.82,0,0,1,248.609,382.4Z" fill="#f0f0f0"/>
            <path id="Path_5" data-name="Path 5" d="M255.667,372.208H208.29a2.23,2.23,0,0,1-2.217-1.981l-.968-8.606a2.23,2.23,0,0,1,2.216-2.48h49.314a2.231,2.231,0,0,1,2.217,2.48l-.969,8.606A2.23,2.23,0,0,1,255.667,372.208Z" fill="#f0f0f0"/>
          </g>
        </g>
        <g id="Group_5" data-name="Group 5">
          <g id="Group_4" data-name="Group 4">
            <rect id="Rectangle_9" data-name="Rectangle 9" width="31.851" height="135.909" transform="translate(432.613 378.231) rotate(180)" fill="#f0f0f0"/>
            <rect id="Rectangle_10" data-name="Rectangle 10" width="165.015" height="4.167" transform="translate(430.468 382.398) rotate(180)" fill="#f0f0f0"/>
            <rect id="Rectangle_11" data-name="Rectangle 11" width="137.454" height="135.909" transform="translate(263.308 242.322)" fill="#f5f5f5"/>
            <rect id="Rectangle_12" data-name="Rectangle 12" width="112.41" height="28.778" transform="translate(275.831 295.888)" fill="#f0f0f0"/>
            <rect id="Rectangle_13" data-name="Rectangle 13" width="112.41" height="28.778" transform="translate(275.831 332.928)" fill="#f0f0f0"/>
            <rect id="Rectangle_14" data-name="Rectangle 14" width="31.451" height="6.213" rx="3.106" transform="translate(347.761 300.853) rotate(180)" fill="#f5f5f5"/>
            <rect id="Rectangle_15" data-name="Rectangle 15" width="112.41" height="28.778" transform="translate(275.831 258.847)" fill="#f0f0f0"/>
            <path id="Path_6" data-name="Path 6" d="M319.416,263.813h25.239a3.116,3.116,0,0,0,3.106-3.107h0a3.115,3.115,0,0,0-3.106-3.106H319.416a3.116,3.116,0,0,0-3.106,3.106h0A3.116,3.116,0,0,0,319.416,263.813Z" fill="#f5f5f5"/>
            <path id="Path_7" data-name="Path 7" d="M319.416,337.893h25.239a3.115,3.115,0,0,0,3.106-3.106h0a3.116,3.116,0,0,0-3.106-3.106H319.416a3.116,3.116,0,0,0-3.106,3.106h0A3.115,3.115,0,0,0,319.416,337.893Z" fill="#f5f5f5"/>
          </g>
          <rect id="Rectangle_16" data-name="Rectangle 16" width="140.281" height="3.877" transform="translate(400.763 242.322) rotate(180)" fill="#f0f0f0"/>
          <rect id="Rectangle_17" data-name="Rectangle 17" width="34.884" height="3.877" transform="translate(400.763 238.445)" fill="#e6e6e6"/>
        </g>
        <g id="Group_7" data-name="Group 7">
          <g id="Group_6" data-name="Group 6">
            <rect id="Rectangle_18" data-name="Rectangle 18" width="31.467" height="203.526" transform="translate(178.886 382.398) rotate(180)" fill="#e0e0e0"/>
            <path id="Path_8" data-name="Path 8" d="M67.212,382.4H172.582l11.069-250.513H78.28Z" fill="#e6e6e6"/>
            <path id="Path_9" data-name="Path 9" d="M51.84,382.4H168.4l11.069-250.513H62.909Z" fill="#f0f0f0"/>
            <path id="Path_10" data-name="Path 10" d="M156.986,370.117l9.324-225.95H74.318l-9.324,225.95Z" fill="#fff"/>
            <path id="Path_11" data-name="Path 11" d="M117.459,370.117l31.268-225.95h-9.81l-31.269,225.95Z" fill="#fafafa"/>
            <path id="Path_12" data-name="Path 12" d="M103.491,370.117l31.269-225.95H118.032L86.763,370.117Z" fill="#fafafa"/>
          </g>
        </g>
        <g id="Group_10" data-name="Group 10">
          <g id="Group_9" data-name="Group 9">
            <g id="Group_8" data-name="Group 8">
              <rect id="Rectangle_19" data-name="Rectangle 19" width="127.532" height="119.296" transform="translate(420.996 200.117) rotate(180)" fill="#e6e6e6"/>
              <rect id="Rectangle_20" data-name="Rectangle 20" width="129.64" height="119.296" transform="translate(419.146 200.117) rotate(180)" fill="#f5f5f5"/>
              <rect id="Rectangle_21" data-name="Rectangle 21" width="127.532" height="4.883" transform="translate(420.996 205) rotate(180)" fill="#e6e6e6"/>
              <rect id="Rectangle_22" data-name="Rectangle 22" width="120.979" height="4.883" transform="translate(406.933 205) rotate(180)" fill="#f5f5f5"/>
              <rect id="Rectangle_23" data-name="Rectangle 23" width="104.512" height="118.558" transform="translate(413.605 88.213) rotate(90)" fill="#fafafa"/>
              <rect id="Rectangle_24" data-name="Rectangle 24" width="104.512" height="0.79" transform="translate(295.837 88.213) rotate(90)" fill="#e6e6e6"/>
              <path id="Path_13" data-name="Path 13" d="M393.944,192.725l-20.5-104.512H346.572l20.5,104.512Z" fill="#fff"/>
              <path id="Path_14" data-name="Path 14" d="M362.723,192.725l-20.5-104.512H330.088l20.5,104.512Z" fill="#fff"/>
            </g>
          </g>
          <rect id="Rectangle_25" data-name="Rectangle 25" width="111.558" height="1.269" rx="0.61" transform="translate(409.642 76.106) rotate(90)" fill="#ebebeb"/>
          <rect id="Rectangle_26" data-name="Rectangle 26" width="136.548" height="18.259" transform="translate(423.147 94.365) rotate(180)" fill="#e6e6e6" opacity="0.5"/>
          <rect id="Rectangle_27" data-name="Rectangle 27" width="136.548" height="2.269" transform="translate(423.147 78.375) rotate(180)" fill="#e0e0e0"/>
          <rect id="Rectangle_28" data-name="Rectangle 28" width="137.838" height="1.991" rx="0.87" transform="translate(423.792 77.101) rotate(-180)" fill="#ebebeb"/>
          <path id="Path_15" data-name="Path 15" d="M286.43,94.84H423.316a.477.477,0,0,0,.476-.475h0a.477.477,0,0,0-.476-.476H286.43a.477.477,0,0,0-.476.476h0A.477.477,0,0,0,286.43,94.84Z" fill="#fff"/>
        </g>
      </g>
    </g>
    <g id="Shadow">
      <ellipse id="_Path_" data-name="&lt;Path&gt;" cx="193.889" cy="11.323" rx="193.889" ry="11.323" transform="translate(56.111 404.914)" fill="#f5f5f5"/>
    </g>
    <g id="Folder">
      <g id="Group_26" data-name="Group 26">
        <rect id="Rectangle_29" data-name="Rectangle 29" width="1.016" height="15.501" transform="translate(63.836 272.197) rotate(-6.671)" fill="#407bff"/>
        <rect id="Rectangle_30" data-name="Rectangle 30" width="1.016" height="7.817" transform="translate(66.306 293.316) rotate(-6.672)" fill="#407bff"/>
        <path id="Path_18" data-name="Path 18" d="M134.587,240.688l-1.2-3.364a10.869,10.869,0,0,0-11.5-7.144L74.1,235.769a10.869,10.869,0,0,0-9.532,12.057l13.6,116.3a7.453,7.453,0,0,0,8.268,6.537l170.989-20a7.454,7.454,0,0,0,6.537-8.269L252.2,241.86a7.454,7.454,0,0,0-8.269-6.537l-99.291,11.613A9.507,9.507,0,0,1,134.587,240.688Z" fill="#407bff"/>
        <g id="Group_15" data-name="Group 15">
          <g id="Group_13" data-name="Group 13">
            <rect id="Rectangle_31" data-name="Rectangle 31" width="55.09" height="75.897" transform="translate(85.337 200.876) rotate(-11.271)" fill="#407bff"/>
            <rect id="Rectangle_32" data-name="Rectangle 32" width="55.09" height="75.897" transform="translate(85.337 200.876) rotate(-11.271)" fill="#fff" opacity="0.7"/>
          </g>
          <g id="Group_14" data-name="Group 14" opacity="0.4">
            <path id="Path_19" data-name="Path 19" d="M132.149,208.023l-33.281,6.632a2.979,2.979,0,0,1-3.5-2.339h0a2.98,2.98,0,0,1,2.34-3.5l33.28-6.633a2.981,2.981,0,0,1,3.505,2.34h0A2.981,2.981,0,0,1,132.149,208.023Z" fill="#407bff"/>
            <path id="Path_20" data-name="Path 20" d="M134.6,220.33l-33.281,6.633a2.978,2.978,0,0,1-3.5-2.34h0a2.978,2.978,0,0,1,2.34-3.5l33.28-6.633a2.98,2.98,0,0,1,3.505,2.34h0A2.979,2.979,0,0,1,134.6,220.33Z" fill="#407bff"/>
            <path id="Path_21" data-name="Path 21" d="M137.055,232.638l-33.281,6.633a2.979,2.979,0,0,1-3.5-2.34h0a2.979,2.979,0,0,1,2.339-3.505l33.281-6.633a2.981,2.981,0,0,1,3.505,2.34h0A2.981,2.981,0,0,1,137.055,232.638Z" fill="#407bff"/>
            <path id="Path_22" data-name="Path 22" d="M139.508,244.945l-33.281,6.633a2.98,2.98,0,0,1-3.5-2.34h0a2.979,2.979,0,0,1,2.34-3.5l33.281-6.633a2.978,2.978,0,0,1,3.5,2.34h0A2.978,2.978,0,0,1,139.508,244.945Z" fill="#407bff"/>
            <path id="Path_23" data-name="Path 23" d="M132.865,259.066l-24.185,4.82a2.981,2.981,0,0,1-3.5-2.34h0a2.981,2.981,0,0,1,2.34-3.505l24.185-4.82a2.981,2.981,0,0,1,3.505,2.34h0A2.981,2.981,0,0,1,132.865,259.066Z" fill="#407bff"/>
          </g>
        </g>
        <g id="Group_18" data-name="Group 18">
          <g id="Group_16" data-name="Group 16">
            <rect id="Rectangle_33" data-name="Rectangle 33" width="55.09" height="75.897" transform="translate(161.765 183.224) rotate(-7.793)" fill="#407bff"/>
            <rect id="Rectangle_34" data-name="Rectangle 34" width="55.09" height="75.897" transform="translate(161.765 183.224) rotate(-7.793)" fill="#fff" opacity="0.7"/>
          </g>
          <g id="Group_17" data-name="Group 17" opacity="0.4">
            <path id="Path_24" data-name="Path 24" d="M208.057,193.2l-33.621,4.6a2.98,2.98,0,0,1-3.357-2.548h0a2.979,2.979,0,0,1,2.548-3.356l33.622-4.6a2.979,2.979,0,0,1,3.356,2.548h0A2.979,2.979,0,0,1,208.057,193.2Z" fill="#407bff"/>
            <path id="Path_25" data-name="Path 25" d="M209.759,205.631l-33.622,4.6a2.98,2.98,0,0,1-3.356-2.548h0a2.98,2.98,0,0,1,2.548-3.357l33.622-4.6a2.979,2.979,0,0,1,3.356,2.548h0A2.98,2.98,0,0,1,209.759,205.631Z" fill="#407bff"/>
            <path id="Path_26" data-name="Path 26" d="M187.1,221.4l-9.264,1.268a2.979,2.979,0,0,1-3.356-2.548h0a2.979,2.979,0,0,1,2.548-3.356l9.264-1.268a2.979,2.979,0,0,1,3.356,2.548h0A2.979,2.979,0,0,1,187.1,221.4Z" fill="#407bff"/>
            <path id="Path_27" data-name="Path 27" d="M205.068,218.94l-9.265,1.268a2.98,2.98,0,0,1-3.356-2.548h0a2.98,2.98,0,0,1,2.548-3.357l9.265-1.268a2.98,2.98,0,0,1,3.356,2.549h0A2.98,2.98,0,0,1,205.068,218.94Z" fill="#407bff"/>
            <path id="Path_28" data-name="Path 28" d="M213.162,230.5l-33.621,4.6a2.979,2.979,0,0,1-3.356-2.548h0a2.978,2.978,0,0,1,2.548-3.356l33.621-4.6a2.981,2.981,0,0,1,3.357,2.548h0A2.979,2.979,0,0,1,213.162,230.5Z" fill="#407bff"/>
            <path id="Path_29" data-name="Path 29" d="M205.675,244.19l-24.433,3.344a2.98,2.98,0,0,1-3.356-2.548h0a2.979,2.979,0,0,1,2.548-3.356l24.433-3.345a2.979,2.979,0,0,1,3.356,2.549h0A2.979,2.979,0,0,1,205.675,244.19Z" fill="#407bff"/>
          </g>
        </g>
        <g id="Group_21" data-name="Group 21">
          <g id="Group_19" data-name="Group 19">
            <rect id="Rectangle_35" data-name="Rectangle 35" width="55.09" height="75.897" transform="translate(109.962 191.524) rotate(-4.981)" fill="#407bff"/>
            <rect id="Rectangle_36" data-name="Rectangle 36" width="55.09" height="75.897" transform="translate(109.962 191.524) rotate(-4.981)" fill="#fff" opacity="0.8"/>
          </g>
          <g id="Group_20" data-name="Group 20" opacity="0.4">
            <path id="Path_30" data-name="Path 30" d="M155.709,203.756,121.9,206.7a2.98,2.98,0,0,1-3.227-2.71h0a2.98,2.98,0,0,1,2.709-3.227l33.807-2.947a2.98,2.98,0,0,1,3.227,2.71h0A2.979,2.979,0,0,1,155.709,203.756Z" fill="#407bff"/>
            <path id="Path_31" data-name="Path 31" d="M156.8,216.259l-33.807,2.946a2.98,2.98,0,0,1-3.227-2.71h0a2.98,2.98,0,0,1,2.71-3.227l33.807-2.946a2.98,2.98,0,0,1,3.227,2.71h0A2.98,2.98,0,0,1,156.8,216.259Z" fill="#407bff"/>
            <path id="Path_32" data-name="Path 32" d="M157.888,228.761l-33.807,2.946A2.98,2.98,0,0,1,120.854,229h0a2.98,2.98,0,0,1,2.71-3.228l33.807-2.946a2.98,2.98,0,0,1,3.227,2.71h0A2.98,2.98,0,0,1,157.888,228.761Z" fill="#407bff"/>
            <path id="Path_33" data-name="Path 33" d="M158.978,241.263l-33.807,2.946a2.978,2.978,0,0,1-3.227-2.709h0a2.979,2.979,0,0,1,2.709-3.227l33.807-2.947a2.979,2.979,0,0,1,3.227,2.71h0A2.98,2.98,0,0,1,158.978,241.263Z" fill="#407bff"/>
            <path id="Path_34" data-name="Path 34" d="M150.828,254.571l-24.568,2.141a2.98,2.98,0,0,1-3.227-2.71h0a2.98,2.98,0,0,1,2.71-3.227l24.567-2.141a2.98,2.98,0,0,1,3.228,2.709h0A2.981,2.981,0,0,1,150.828,254.571Z" fill="#407bff"/>
          </g>
        </g>
        <g id="Group_24" data-name="Group 24">
          <g id="Group_22" data-name="Group 22">
            <rect id="Rectangle_37" data-name="Rectangle 37" width="55.09" height="75.897" transform="matrix(0.999, -0.048, 0.048, 0.999, 176.704, 185.709)" fill="#407bff"/>
            <rect id="Rectangle_38" data-name="Rectangle 38" width="55.09" height="75.897" transform="matrix(0.999, -0.048, 0.048, 0.999, 176.704, 185.709)" fill="#fff" opacity="0.8"/>
          </g>
          <g id="Group_23" data-name="Group 23" opacity="0.4">
            <path id="Path_35" data-name="Path 35" d="M221.944,199.7l-33.9,1.636a2.98,2.98,0,0,1-3.12-2.833h0a2.98,2.98,0,0,1,2.833-3.119l33.9-1.637a2.98,2.98,0,0,1,3.12,2.833h0A2.98,2.98,0,0,1,221.944,199.7Z" fill="#407bff"/>
            <path id="Path_36" data-name="Path 36" d="M222.549,212.237l-33.9,1.636a2.981,2.981,0,0,1-3.12-2.832h0a2.98,2.98,0,0,1,2.833-3.12l33.9-1.637a2.98,2.98,0,0,1,3.12,2.833h0A2.98,2.98,0,0,1,222.549,212.237Z" fill="#407bff"/>
            <path id="Path_37" data-name="Path 37" d="M198.6,225.957l-9.34.451a2.98,2.98,0,0,1-3.119-2.833h0a2.978,2.978,0,0,1,2.832-3.119l9.34-.451a2.98,2.98,0,0,1,3.12,2.832h0A2.98,2.98,0,0,1,198.6,225.957Z" fill="#407bff"/>
            <path id="Path_38" data-name="Path 38" d="M216.709,225.083l-9.34.451a2.98,2.98,0,0,1-3.12-2.833h0a2.98,2.98,0,0,1,2.833-3.12l9.34-.451a2.98,2.98,0,0,1,3.119,2.833h0A2.979,2.979,0,0,1,216.709,225.083Z" fill="#407bff"/>
            <path id="Path_39" data-name="Path 39" d="M223.759,237.307l-33.9,1.636a2.979,2.979,0,0,1-3.12-2.832h0a2.978,2.978,0,0,1,2.832-3.12l33.9-1.637a2.981,2.981,0,0,1,3.12,2.833h0A2.98,2.98,0,0,1,223.759,237.307Z" fill="#407bff"/>
            <path id="Path_40" data-name="Path 40" d="M215.1,250.289l-24.632,1.189a2.98,2.98,0,0,1-3.12-2.832h0a2.979,2.979,0,0,1,2.832-3.12l24.632-1.19a2.98,2.98,0,0,1,3.12,2.833h0A2.98,2.98,0,0,1,215.1,250.289Z" fill="#407bff"/>
          </g>
        </g>
        <g id="Group_25" data-name="Group 25">
          <path id="Path_41" data-name="Path 41" d="M149.849,242.841l-.876-3.291a9.627,9.627,0,0,0-10.715-6.967l-47.79,5.589A11.992,11.992,0,0,0,79.925,250l2.712,113.845a6.575,6.575,0,0,0,7.575,6.38l170.989-20a8.223,8.223,0,0,0,7.23-8.112L266.087,243.7a6.575,6.575,0,0,0-7.576-6.38L159.22,248.934A8.421,8.421,0,0,1,149.849,242.841Z" fill="#407bff"/>
          <path id="Path_42" data-name="Path 42" d="M149.849,242.841l-.876-3.291a9.627,9.627,0,0,0-10.715-6.967l-47.79,5.589A11.992,11.992,0,0,0,79.925,250l2.712,113.845a6.575,6.575,0,0,0,7.575,6.38l170.989-20a8.223,8.223,0,0,0,7.23-8.112L266.087,243.7a6.575,6.575,0,0,0-7.576-6.38L159.22,248.934A8.421,8.421,0,0,1,149.849,242.841Z" opacity="0.3"/>
        </g>
      </g>
    </g>
    <g id="Character">
      <g id="Group_34" data-name="Group 34">
        <path id="Path_43" data-name="Path 43" d="M317.028,188.109c-.739,3.716-1.531,7.369-2.417,11.023-.87,3.652-1.761,7.3-2.731,10.926l-1.477,5.435-.194.7c-.09.3-.188.6-.305.91a9.245,9.245,0,0,1-.979,1.931,6.9,6.9,0,0,1-1.866,1.9,5.979,5.979,0,0,1-2.731.986,7.828,7.828,0,0,1-4.288-.948,15.105,15.105,0,0,1-2.779-1.922,24.858,24.858,0,0,1-4.07-4.588l2.781-2.5a34.1,34.1,0,0,0,4.3,2.853,10.29,10.29,0,0,0,2.059.892c.615.2,1.15.173,1.156.071.014-.037-.1-.038-.15-.032s-.046-.025,0-.167.117-.349.181-.615l.23-1.1,1.167-5.464,2.349-10.92c.762-3.638,1.578-7.287,2.372-10.889Z" fill="#ffc3bd"/>
        <path id="Path_44" data-name="Path 44" d="M313.685,176.682c-8.531,6.531-8.188,18.837-8.188,18.837l15.258,3.647s4.681-12.373,2.782-16.9C321.555,177.535,318.486,173.006,313.685,176.682Z" fill="#263238"/>
        <path id="Path_45" data-name="Path 45" d="M296.756,212.149l-5.61-5.609-3.026,8.776s4.736,2.557,9.269.147Z" fill="#ffc3bd"/>
        <path id="Path_46" data-name="Path 46" d="M283.383,205.674l-1.031,6.935,5.768,2.707,3.026-8.776Z" fill="#ffc3bd"/>
        <path id="Path_47" data-name="Path 47" d="M363.122,408.858l-8.581.839-8.929-20.424,8.581-.839Z" fill="#ffc3bd"/>
        <path id="Path_48" data-name="Path 48" d="M418.4,378.664l-6.445,6.051-13.914-15.291,6.445-6.051Z" fill="#ffc3bd"/>
        <path id="Path_49" data-name="Path 49" d="M408.979,381.812l4.843-8.726a.7.7,0,0,1,.874-.325l7.456,2.838a1.426,1.426,0,0,1,.69,2.011c-1.741,3.014-2.733,4.38-4.863,8.218-1.31,2.361-3.862,7.775-5.671,11.035-1.77,3.189-5.13,1.645-4.668.125,2.069-6.813,1.68-10.606,1.095-13.612A2.323,2.323,0,0,1,408.979,381.812Z" fill="#263238"/>
        <path id="Path_50" data-name="Path 50" d="M353.4,407.045H363.94a.873.873,0,0,1,.832.641l2.292,8.337a1.312,1.312,0,0,1-1.286,1.669c-3.714.033-5.474.017-10.108.017H341.505c-3.851,0-4.656-3.893-3.063-4.246,7.144-1.581,11.263-3.761,13.467-5.841A2.166,2.166,0,0,1,353.4,407.045Z" fill="#263238"/>
        <path id="Path_51" data-name="Path 51" d="M345.616,389.278l4.6,10.528h8.951L354.2,388.439Z" opacity="0.2"/>
        <path id="Path_52" data-name="Path 52" d="M404.491,363.375l-6.447,6.054,7.175,7.879,6.447-6.054Z" opacity="0.2"/>
        <path id="Path_53" data-name="Path 53" d="M316.261,175.417s-3.857,1.7,9.08,52.9l35.944-3.108c-1.868-14.577-2.666-23.6,1.73-54.223a106.486,106.486,0,0,0-15.438-.691,114.818,114.818,0,0,0-16.321,1.412A151.9,151.9,0,0,0,316.261,175.417Z" fill="#263238"/>
        <path id="Path_54" data-name="Path 54" d="M347.577,170.04s2.039.036,4.448.036c1.446,2.234-3.258,12-11.039,18.393a19.644,19.644,0,0,0-6.248-9.056Z" fill="#fff"/>
        <path id="Path_55" data-name="Path 55" d="M331.261,171.573s-.909.129-3.085.626c-1.445,2.234-3.9,11.758.369,16.621a19.177,19.177,0,0,1,6.193-9.407Z" fill="#fff"/>
        <path id="Path_56" data-name="Path 56" d="M344.371,152.053c-.576,5.34-.771,15.051,3.206,18.238,0,0-4.248,4.336-12.839,9.122-6.25-4.319-3.482-7.71-3.482-7.71,5.735-1.9,5.208-6.237,3.835-10.229Z" fill="#ffc3bd"/>
        <g id="Group_28" data-name="Group 28">
          <path id="Path_57" data-name="Path 57" d="M334.593,179.44s5.271-5.739,7.991-4.636.62,3.069.378,4.914,1.057,6.773-2.592,5.493S334.593,179.44,334.593,179.44Z" fill="#407bff"/>
          <path id="Path_58" data-name="Path 58" d="M334.379,179.323s-2.486-4.4-5.176-3.815-1.088,2.134-.85,3.788c.3,2.128-1.936,6.2,1.308,5.051C332.817,183.228,334.379,179.323,334.379,179.323Z" fill="#407bff"/>
          <g id="Group_27" data-name="Group 27" opacity="0.2">
            <path id="Path_59" data-name="Path 59" d="M333.012,178.369a5.6,5.6,0,0,0,.5,2.586,11.741,11.741,0,0,0,.861-1.629,11.924,11.924,0,0,0-1.27-1.769A2.252,2.252,0,0,0,333.012,178.369Z"/>
            <path id="Path_60" data-name="Path 60" d="M336.51,177.584c-1.127.993-1.915,1.853-1.915,1.853a14.574,14.574,0,0,0,1.029,1.732,3.467,3.467,0,0,0,.975-2.272A2.3,2.3,0,0,0,336.51,177.584Z"/>
          </g>
          <path id="Path_61" data-name="Path 61" d="M334.526,181.244c-.744,0-1.2-.814-1.258-2.747s1.431-.859,1.431-.859,1.976-1.033,1.641,1.317C336.081,180.782,335.3,181.241,334.526,181.244Z" fill="#407bff"/>
        </g>
        <path id="Path_62" data-name="Path 62" d="M340.588,155.9l-5.493,5.572a16.858,16.858,0,0,1,.754,2.854c2.209-.517,5.407-2.813,5.442-5.176A9.437,9.437,0,0,0,340.588,155.9Z" opacity="0.2"/>
        <path id="Path_63" data-name="Path 63" d="M335.882,134.012s-5.981,8.311-6.97,12.041c-4.081,2.374-4.9-9.334-2.74-16.555C332.875,133.675,335.882,134.012,335.882,134.012Z" fill="#263238"/>
        <path id="Path_64" data-name="Path 64" d="M349.069,143.708c-2.228,8.531-2.989,12.189-8.221,15.763-7.87,5.377-17.86.775-18.226-8.248-.33-8.123,3.369-20.708,12.5-22.483A12.025,12.025,0,0,1,349.069,143.708Z" fill="#ffc3bd"/>
        <path id="Path_65" data-name="Path 65" d="M353.706,140.3s-4.286,6.943-4.862,9.963c-3.111,2.116-4.425-7.143-3.111-13.005C347.163,132.091,353.706,140.3,353.706,140.3Z" fill="#263238"/>
        <path id="Path_66" data-name="Path 66" d="M352,135.468c-1.235.939-2.552-2.532-1.313-5.189-2.373.146-5.224-1.26-4.616-3.546-4.665,1.564-6.4-3.186-5.86-6.473.65-3.973,4.135-4.85,6.181-3.8.041-1.786,4.519-5.522,6.237-2.6,3.191-1.126,8.33-.779,8.228,3.139,2.108.066,8.332,2.453,6.038,8.051,2.746.163,4.234,3.656,2.706,6.291a4.258,4.258,0,0,1,.875,6.9c1.267,2.64-2.587,6.565-4.629,6.093-1.562,2.4-3.954,4.194-5.519,2.152-3.038,2.213-6.441-.594-5.671-2.756C351.213,143.164,347.738,137.486,352,135.468Z" fill="#263238"/>
        <path id="Path_67" data-name="Path 67" d="M357.081,127.073c2.24,3.739,2.054,7.969-.416,9.449s-6.287-.352-8.527-4.09-2.054-7.969.415-9.448S354.841,123.335,357.081,127.073Z" fill="#407bff"/>
        <path id="Path_68" data-name="Path 68" d="M336.283,132.967c-.137,1.073-3.087.795-3.937-1.093-1.215,1.277-4.085,1.941-5.067.549-1.657,3.116-4.983,2.3-5.855.8s-1.431-4.257.294-4.8c-1-.867-.7-4.915,1.921-4.406,1.1-2.157,4.116-4.609,6.314-2.7,1.194-1.042,5.977-3.08,7.941.737a3.4,3.4,0,0,1,5.1,1.6c3.116-.815,4.463,1.546,4.45,2.822,2.213.605,2.359,4.424.969,5.241.523,1.929.246,4-1.786,3.827-.391,2.594-3.871,3-4.693,1.582C339.725,138.609,335.11,136.09,336.283,132.967Z" fill="#263238"/>
        <path id="Path_69" data-name="Path 69" d="M331.021,125.622c2.533-3.505,11.756-4.958,19.746.292,7.2,4.731,6.734,15.712,1.01,15.128s-11.39-7.3-11.39-7.3Z" fill="#263238"/>
        <path id="Path_70" data-name="Path 70" d="M349.773,151.409a6.444,6.444,0,0,1-3.788,3.142c-2.163.651-3.29-1.273-2.726-3.339.508-1.859,2.245-4.437,4.434-4.184A2.893,2.893,0,0,1,349.773,151.409Z" fill="#ffc3bd"/>
        <path id="Path_71" data-name="Path 71" d="M325.341,228.313s-12.161,53.8-4.043,91.725c5.437,25.4,25.046,76.716,25.046,76.716l15.331-.394s-14.843-53.851-17.912-75.029c-5.25-36.226,7.9-95.294,7.9-95.294Z" fill="#407bff"/>
        <path id="Path_72" data-name="Path 72" d="M339.364,239.176l7.666,12.09a369.961,369.961,0,0,0-4.386,43.307C331.863,275.273,336.967,249.394,339.364,239.176Z" opacity="0.2"/>
        <path id="Path_73" data-name="Path 73" d="M344.183,397.548l18.939-.483-1.1-5.819-19.324.916Z" fill="#263238"/>
        <path id="Path_74" data-name="Path 74" d="M333.2,227.741s7.134,57.052,22.6,88.2c12.491,25.158,45.823,60.971,45.823,60.971l8.522-8.779s-22.514-38.922-31.8-55.634c-22.764-40.978-4.16-72.249-17.062-87.295Z" fill="#407bff"/>
        <path id="Path_75" data-name="Path 75" d="M400.759,378.087l11-10.721-3.648-4.964-11.663,11.641Z" fill="#263238"/>
        <g id="Group_29" data-name="Group 29">
          <path id="Path_76" data-name="Path 76" d="M361.641,223.049l1.9,3.077c.147.238-.126.519-.542.555l-37.695,3.26c-.324.028-.606-.108-.645-.31l-.6-3.189c-.042-.221.223-.434.577-.465l36.4-3.148A.655.655,0,0,1,361.641,223.049Z" fill="#407bff"/>
          <path id="Path_77" data-name="Path 77" d="M361.641,223.049l1.9,3.077c.147.238-.126.519-.542.555l-37.695,3.26c-.324.028-.606-.108-.645-.31l-.6-3.189c-.042-.221.223-.434.577-.465l36.4-3.148A.655.655,0,0,1,361.641,223.049Z" fill="#fff" opacity="0.5"/>
        </g>
        <path id="Path_78" data-name="Path 78" d="M357.1,227.541l.975-.084c.194-.017.333-.13.31-.251l-.819-4.14c-.024-.122-.2-.207-.4-.19l-.975.084c-.194.017-.333.13-.309.251l.819,4.141C356.732,227.473,356.91,227.558,357.1,227.541Z" fill="#407bff"/>
        <path id="Path_79" data-name="Path 79" d="M328.073,230.052l.974-.084c.2-.017.334-.13.31-.251l-.819-4.14c-.024-.122-.2-.207-.4-.19l-.975.084c-.194.017-.334.13-.31.251l.819,4.14C327.7,229.984,327.878,230.069,328.073,230.052Z" fill="#407bff"/>
        <path id="Path_80" data-name="Path 80" d="M342.588,228.8l.975-.085c.194-.016.334-.129.31-.25l-.819-4.141c-.024-.121-.2-.207-.4-.19l-.974.085c-.2.016-.334.129-.31.25l.819,4.141C342.216,228.728,342.394,228.814,342.588,228.8Z" fill="#407bff"/>
        <path id="Path_81" data-name="Path 81" d="M334.628,143.416c-.138.7-.622,1.2-1.082,1.109s-.72-.733-.582-1.436.623-1.2,1.082-1.11S334.766,142.713,334.628,143.416Z" fill="#263238"/>
        <ellipse id="Ellipse_1" data-name="Ellipse 1" cx="1.297" cy="0.848" rx="1.297" ry="0.848" transform="translate(324.767 142.8) rotate(-78.878)" fill="#263238"/>
        <path id="Path_82" data-name="Path 82" d="M326.3,140.5l-1.593-.819S325.309,141.167,326.3,140.5Z" fill="#263238"/>
        <path id="Path_83" data-name="Path 83" d="M329.413,143.606a19.109,19.109,0,0,1-3.388,3.994,3.084,3.084,0,0,0,2.414.964Z" fill="#ed847e"/>
        <path id="Path_84" data-name="Path 84" d="M331.69,151.915a5.822,5.822,0,0,0,4.005-1.525.175.175,0,0,0-.25-.244,5.726,5.726,0,0,1-5,1.295.172.172,0,0,0-.206.137.175.175,0,0,0,.138.206A6.837,6.837,0,0,0,331.69,151.915Z" fill="#263238"/>
        <path id="Path_85" data-name="Path 85" d="M339.4,140.69a.342.342,0,0,0,.18-.051.348.348,0,0,0,.118-.48,4.1,4.1,0,0,0-3.168-2.049.35.35,0,0,0-.025.7,3.4,3.4,0,0,1,2.6,1.711A.352.352,0,0,0,339.4,140.69Z" fill="#263238"/>
        <path id="Path_86" data-name="Path 86" d="M324.475,137.874a.349.349,0,0,0,.17-.045,3.429,3.429,0,0,1,3.1-.2.35.35,0,1,0,.325-.619,4.1,4.1,0,0,0-3.767.212.35.35,0,0,0,.171.656Z" fill="#263238"/>
        <path id="Path_87" data-name="Path 87" d="M364.542,179.162c.677.662,1.147,1.175,1.681,1.767.51.58,1,1.166,1.477,1.761q1.432,1.78,2.712,3.658a60.519,60.519,0,0,1,4.474,7.908A51.686,51.686,0,0,1,378,202.825c.383,1.476.734,2.962.985,4.47a9.573,9.573,0,0,1-.683,6.321,8.279,8.279,0,0,1-2.236,2.662,10.9,10.9,0,0,1-2.613,1.5,18.74,18.74,0,0,1-4.968,1.183,41.753,41.753,0,0,1-9.127-.119,93.244,93.244,0,0,1-17.1-3.634l.914-3.627c2.72.448,5.522.871,8.289,1.156,2.768.32,5.537.549,8.269.609a42.838,42.838,0,0,0,7.9-.432,12.615,12.615,0,0,0,3.26-.973,2.74,2.74,0,0,0,1.474-1.306,2.038,2.038,0,0,0,.122-.724,4.951,4.951,0,0,0-.038-.537c-.042-.206-.064-.388-.157-.754-.28-1.287-.65-2.556-1.044-3.814a54.93,54.93,0,0,0-7.124-14.158c-.749-1.1-1.537-2.168-2.363-3.2-.412-.515-.833-1.021-1.261-1.51-.4-.476-.891-1.016-1.222-1.357Z" fill="#ffc3bd"/>
        <path id="Path_88" data-name="Path 88" d="M345.448,212.131l-7.01-3.714-.314,9.278s4.951.313,7.857-1.966Z" fill="#ffc3bd"/>
        <g id="Group_33" data-name="Group 33">
          <g id="Group_31" data-name="Group 31">
            <g id="Group_30" data-name="Group 30">
              <path id="Path_89" data-name="Path 89" d="M333.167,262l5.786-62.811L326.6,189.732l-37.7-3.473-6.546,71.06Z" fill="#407bff"/>
              <path id="Path_90" data-name="Path 90" d="M333.167,262l5.786-62.811L326.6,189.732l-37.7-3.473-6.546,71.06Z" fill="#fff" opacity="0.8"/>
            </g>
            <path id="Path_91" data-name="Path 91" d="M338.953,199.189,326.6,189.732l3.238,11.32Z" fill="#407bff"/>
          </g>
          <g id="Group_32" data-name="Group 32">
            <circle id="Ellipse_2" data-name="Ellipse 2" cx="15.398" cy="15.398" r="15.398" transform="translate(271.372 237.503)" fill="#407bff"/>
            <circle id="Ellipse_3" data-name="Ellipse 3" cx="12.28" cy="12.28" r="12.28" transform="translate(269.522 250.877) rotate(-38.308)" fill="#fff"/>
            <path id="Path_92" data-name="Path 92" d="M294.358,251.822l-5.418-.636.636-5.418-3.884-.456-.636,5.418-5.418-.636-.456,3.884,5.418.636-.636,5.418,3.884.456.636-5.418,5.418.636Z" fill="#407bff"/>
          </g>
          <path id="Path_93" data-name="Path 93" d="M329.731,212.207h0a4.2,4.2,0,0,1-4.571,3.8l-27.5-2.53a4.2,4.2,0,0,1-3.8-4.57h0a4.2,4.2,0,0,1,4.571-3.8l27.5,2.53A4.2,4.2,0,0,1,329.731,212.207Z" fill="#407bff" opacity="0.4"/>
          <path id="Path_94" data-name="Path 94" d="M320.363,223.556h0a4.2,4.2,0,0,1-4.571,3.8l-19.219-1.768a4.2,4.2,0,0,1-3.8-4.571h0a4.2,4.2,0,0,1,4.57-3.8l19.219,1.768A4.2,4.2,0,0,1,320.363,223.556Z" fill="#407bff" opacity="0.4"/>
        </g>
        <path id="Path_95" data-name="Path 95" d="M334.165,208.971l1.052,6.932,2.908,1.792.314-9.278Z" fill="#ffc3bd"/>
        <path id="Path_96" data-name="Path 96" d="M363.015,170.982c4.4.779,10.581,13.417,10.581,13.417l-11.108,10.046s-8.835-9.636-8.364-15.377C354.525,174.193,357.4,169.989,363.015,170.982Z" fill="#263238"/>
        <path id="Path_97" data-name="Path 97" d="M407.279,386.5a1.077,1.077,0,0,0,.343-.057c1.054-.356,1.745-2.306,2.064-3.437a.175.175,0,0,0-.25-.2c-.321.168-3.136,1.674-3.228,2.785a.684.684,0,0,0,.3.622A1.279,1.279,0,0,0,407.279,386.5Zm1.95-3.184c-.489,1.56-1.12,2.593-1.719,2.8a.827.827,0,0,1-.792-.18.333.333,0,0,1-.161-.314C406.613,384.938,408.263,383.867,409.229,383.319Z" fill="#407bff"/>
        <path id="Path_98" data-name="Path 98" d="M406.844,383.759a6.338,6.338,0,0,0,2.765-.648.175.175,0,0,0-.007-.3c-.094-.053-2.324-1.279-3.524-.852a1.059,1.059,0,0,0-.657.622.7.7,0,0,0,.159.864A2.027,2.027,0,0,0,406.844,383.759Zm2.288-.8c-.954.407-2.8.657-3.325.216-.087-.074-.173-.193-.062-.466a.713.713,0,0,1,.449-.423C407.012,381.995,408.5,382.648,409.132,382.96Z" fill="#407bff"/>
        <path id="Path_99" data-name="Path 99" d="M348.726,408.75a14.089,14.089,0,0,0,2.877-.365.178.178,0,0,0,.136-.152.175.175,0,0,0-.1-.177c-.433-.2-4.256-1.971-5.219-1.319a.573.573,0,0,0-.249.541,1.272,1.272,0,0,0,.52.986A3.47,3.47,0,0,0,348.726,408.75Zm2.275-.6c-1.135.213-3.234.489-4.1-.165a.93.93,0,0,1-.382-.727.23.23,0,0,1,.1-.232C347.154,406.661,349.414,407.452,351,408.15Z" fill="#407bff"/>
        <path id="Path_100" data-name="Path 100" d="M351.565,408.389a.168.168,0,0,0,.112-.042.175.175,0,0,0,.058-.172c-.036-.161-.9-3.931-2.979-3.691-.519.062-.662.32-.689.526-.13.959,2.28,2.895,3.431,3.366A.2.2,0,0,0,351.565,408.389Zm-2.621-3.566c1.325,0,2.1,2.194,2.354,3.073-1.245-.653-2.968-2.225-2.885-2.839.006-.045.025-.183.385-.226A1.442,1.442,0,0,1,348.944,404.823Z" fill="#407bff"/>
        <path id="Path_101" data-name="Path 101" d="M334.242,142.058l-1.593-.819S333.256,142.729,334.242,142.058Z" fill="#263238"/>
      </g>
    </g>
  </g>
</svg>
