<svg xmlns="http://www.w3.org/2000/svg" width="322.461" height="299.895" viewBox="0 0 322.461 299.895">
  <g id="surface1" transform="translate(-238.027 -491.457)">
    <path id="Path_148" data-name="Path 148" d="M383.809,499.125l-.508-.59a4.663,4.663,0,0,1-1.1-2.395l-.355-2.441a2.08,2.08,0,0,1,.8-1.988l.07-.051a1.265,1.265,0,0,1,1.852.605l1.2,2.91s-.379-1.508.105-1.672c.355-.125,1.031,1.742.633,2.781a4.409,4.409,0,0,0-.023,2.375l-2.676.465" fill="#fab6a9"/>
    <path id="Path_156" data-name="Path 156" d="M556.793,586.773l1.594-.723,2.1,4.625-1.59.723-2.105-4.625" fill="#ee1696"/>
    <path id="Path_157" data-name="Path 157" d="M553.938,584.73l1.594-.727,2.105,4.629-1.59.723-2.109-4.625" fill="#ee1696"/>
    <path id="Path_181" data-name="Path 181" d="M425.129,784.293,412.9,777.234l-12.227,7.059,12.227,7.059,12.227-7.059" fill="#d9effb"/>
    <path id="Path_1" data-name="Path 1" d="M305.992,715.715l-1.641-14.07a106.355,106.355,0,0,0-28.016,5.344l13.227,11.859a68.766,68.766,0,0,1,16.43-3.133" fill="#d9effb"/>
    <path id="Path_2" data-name="Path 2" d="M305.992,708.355l-1.641-14.07a106.513,106.513,0,0,0-28.016,5.344l13.227,11.863a68.961,68.961,0,0,1,16.43-3.137" fill="#f5ba1b"/>
    <path id="Path_3" data-name="Path 3" d="M305.992,678.527l-16.1.723-.328,2.414v29.828l12.531-4.738,3.9,1.6V678.527" fill="#f5ba1b"/>
    <path id="Path_4" data-name="Path 4" d="M276.336,669.8v29.828l13.227,11.863V681.664L276.336,669.8" fill="#e59c13"/>
    <path id="Path_5" data-name="Path 5" d="M305.992,678.527l-1.641-14.066a106.353,106.353,0,0,0-28.016,5.34l13.227,11.863a68.961,68.961,0,0,1,16.43-3.137" fill="#fad644"/>
    <path id="Path_6" data-name="Path 6" d="M310.984,715.438c10.746-.066,21.523,2.1,30.059,6.512l17.258-9.965c-13.738-7.383-31.422-10.918-48.953-10.609l1.637,14.063" fill="#d9effb"/>
    <path id="Path_7" data-name="Path 7" d="M310.984,708.164c10.746-.066,21.523,2.1,30.059,6.512l17.258-9.965c-13.738-7.387-31.422-10.922-48.953-10.609l1.637,14.063" fill="#d1078d"/>
    <path id="Path_8" data-name="Path 8" d="M310.984,708.164v-10.3L309.348,683.8v10.3l1.637,14.063" fill="#c90c8e"/>
    <path id="Path_9" data-name="Path 9" d="M341.043,704.379l-19.227-17.285-10.832,10.773v10.3l27.961-.18,2.1,6.691v-10.3" fill="#d1078d"/>
    <path id="Path_10" data-name="Path 10" d="M358.3,694.414v10.3l-17.258,9.965v-10.3l17.258-9.965" fill="#d1078d"/>
    <path id="Path_11" data-name="Path 11" d="M310.984,697.867c10.746-.066,21.523,2.1,30.059,6.512l17.258-9.965c-13.738-7.387-31.422-10.922-48.953-10.613l1.637,14.066" fill="#ee1696"/>
    <path id="Path_12" data-name="Path 12" d="M273.648,754.363c-10.551-9.883-8.422-23,6.414-31.566a46.919,46.919,0,0,1,5.293-2.609l-13.219-11.852a73.981,73.981,0,0,0-9.324,4.5c-23.328,13.469-26.391,34.2-9.211,49.582l20.047-8.055" fill="#d9effb"/>
    <path id="Path_13" data-name="Path 13" d="M273.648,747.23c-10.551-9.879-8.422-23,6.414-31.566a46.919,46.919,0,0,1,5.293-2.609L272.137,701.2a74.522,74.522,0,0,0-9.324,4.5c-23.328,13.469-26.391,34.2-9.211,49.586l20.047-8.059" fill="#8e54b0"/>
    <path id="Path_14" data-name="Path 14" d="M285.355,694.727v18.328L273.648,717.4s-15.2-8.3-15.2-8.492,2.566-17.766,4.445-18.555,22.465,4.371,22.465,4.371" fill="#8e54b0"/>
    <path id="Path_15" data-name="Path 15" d="M273.648,747.23V728.9L253.6,736.957v18.332l20.047-8.059" fill="#7844a6"/>
    <path id="Path_16" data-name="Path 16" d="M253.6,725.461v29.828s-10.461-8.82-10.934-20.523l.023-19.148,12.176-1.762L253.6,725.461" fill="#623da1"/>
    <path id="Path_17" data-name="Path 17" d="M273.648,728.9c-10.551-9.883-8.422-23,6.414-31.566a46.919,46.919,0,0,1,5.293-2.609l-13.219-11.852a73.981,73.981,0,0,0-9.324,4.5c-23.328,13.469-26.391,34.2-9.211,49.582l20.047-8.055" fill="#6f41a4"/>
    <path id="Path_104" data-name="Path 104" d="M455.48,716.684c-13.41,7.742-35.156,7.742-48.566,0s-13.41-20.3,0-28.039,35.152-7.742,48.566,0,13.41,20.3,0,28.039" fill="#d9effb"/>
    <path id="Path_105" data-name="Path 105" d="M469.813,667.609l-9.2.059c-.672-.453-1.367-.9-2.109-1.328-15.082-8.707-39.531-8.707-54.613,0q-1.418.82-2.656,1.7l-8.652.055V682.1c0,5.707,3.77,11.414,11.309,15.766,15.082,8.707,39.531,8.707,54.613,0,7.539-4.352,11.309-10.059,11.309-15.766V667.609" fill="#623da1"/>
    <path id="Path_106" data-name="Path 106" d="M429.906,659.824c-9.445.184-18.8,2.348-26.016,6.512q-1.418.82-2.656,1.7l-8.652.055V682.1c0,5.707,3.77,11.414,11.309,15.766,7.215,4.164,16.57,6.328,26.016,6.512V659.824" fill="#7844a6"/>
    <path id="Path_107" data-name="Path 107" d="M397.887,668.055l-5.3.035V682.1c0,3.91,1.77,7.816,5.3,11.289V668.055" fill="#8e54b0"/>
    <path id="Path_108" data-name="Path 108" d="M458.5,683.379c-15.082,8.7-39.531,8.7-54.613,0s-15.078-22.82,0-31.527,39.531-8.707,54.613,0,15.082,22.824,0,31.531" fill="#6f41a4"/>
    <path id="Path_109" data-name="Path 109" d="M458.5,683.379c-15.082,8.7-39.531,8.7-54.613,0-7.16-4.133-10.914-9.488-11.273-14.9-.4,5.988,3.355,12.051,11.273,16.625,15.082,8.707,39.531,8.707,54.613,0,7.918-4.57,11.672-10.633,11.273-16.625-.359,5.418-4.113,10.77-11.273,14.906" fill="#8e54b0"/>
    <path id="Path_110" data-name="Path 110" d="M459.215,661.492l-6.676.039c-.484-.328-.988-.652-1.531-.965-10.941-6.316-28.68-6.316-39.621,0-.687.4-1.328.809-1.93,1.234l-6.277.039v4.82c0,4.141,2.734,8.281,8.207,11.441,10.941,6.316,28.68,6.316,39.621,0,5.473-3.16,8.207-7.3,8.207-11.441v-5.168" fill="#623da1"/>
    <path id="Path_111" data-name="Path 111" d="M430.262,655.844c-6.855.133-13.645,1.7-18.875,4.723-.687.4-1.328.809-1.93,1.234l-6.277.039v4.82c0,4.141,2.734,8.281,8.207,11.441,5.23,3.02,12.02,4.59,18.875,4.723v-26.98" fill="#7844a6"/>
    <path id="Path_112" data-name="Path 112" d="M407.031,661.813l-3.852.027v4.82a11.53,11.53,0,0,0,3.852,8.191V661.813" fill="#8e54b0"/>
    <path id="Path_113" data-name="Path 113" d="M451.008,672.93c-10.941,6.316-28.68,6.316-39.621,0s-10.941-16.559,0-22.875,28.68-6.316,39.621,0,10.941,16.559,0,22.875" fill="#6f41a4"/>
    <path id="Path_114" data-name="Path 114" d="M380,612.723a26.9,26.9,0,0,1-22.937-12.934l-14.684-24.348a9.279,9.279,0,0,1,7.945-14.074h29.012v7.559H350.324a1.724,1.724,0,0,0-1.477,2.613l14.684,24.344a19.227,19.227,0,0,0,16.754,9.277l25.25-.379.113,7.555-25.25.383c-.133,0-.266,0-.4,0" fill="#fad644"/>
    <path id="Path_115" data-name="Path 115" d="M482.395,612.723c-.133,0-.266,0-.4,0l-25.25-.383.113-7.555,25.25.379a19.21,19.21,0,0,0,16.754-9.281l14.684-24.34a1.724,1.724,0,0,0-1.477-2.613H483.059v-7.559H512.07a9.279,9.279,0,0,1,7.945,14.074l-14.68,24.344a26.905,26.905,0,0,1-22.941,12.938" fill="#fad644"/>
    <path id="Path_116" data-name="Path 116" d="M505.879,584.254l-7.016,11.625a19.21,19.21,0,0,1-16.754,9.281l-25.25-.379-.113,7.555,25.25.383c.133,0,.266,0,.4,0a26.9,26.9,0,0,0,21.383-10.664c3.32-8.535,2.8-14.707,2.1-17.8" fill="#e59c13"/>
    <path id="Path_117" data-name="Path 117" d="M416.191,648.293c8.285,4.785,21.723,4.785,30.012,0s8.285-12.543,0-17.328-21.723-4.785-30.012,0-8.285,12.543,0,17.328" fill="#fff"/>
    <path id="Path_118" data-name="Path 118" d="M406.418,651.883c4.469-3.32,3.609-6.566,3.609-6.566l3.379,4.082c10.285-4.961,25.3-4.961,35.586,0l3.387-4.082s-.863,3.246,3.605,6.566S459,661.715,459,661.715l-.012-.012c0,4.109-2.707,8.223-8.137,11.355-10.852,6.266-28.449,6.266-39.3,0-5.426-3.133-8.141-7.238-8.141-11.344,0,0-1.457-6.516,3.012-9.832" fill="#f5ba1b"/>
    <path id="Path_119" data-name="Path 119" d="M446.723,652.855s-8.027-4.75-8.027-5.754a1.719,1.719,0,0,1,.434-.746,37.6,37.6,0,0,1,9.863,3.043l3.387-4.082s-.863,3.246,3.605,6.566S459,661.715,459,661.715l-.012-.012a10.68,10.68,0,0,1-2.449,6.566c.074-.508.93-7.223-4.117-9.422-5.246-2.285-5.7-5.992-5.7-5.992" fill="#e59c13"/>
    <path id="Path_120" data-name="Path 120" d="M416.191,653.168c8.285,4.785,21.723,4.785,30.012,0s8.285-12.543,0-17.328-21.723-4.781-30.012,0-8.285,12.543,0,17.328" fill="#e59c13"/>
    <path id="Path_121" data-name="Path 121" d="M486.7,561.82c-.559,30.938-16.508,34.684-25.039,46.262-7.961,10.809-7.059,26.438-6.9,28.477l.016.227c0,3.484-2.3,6.969-6.906,9.629-9.211,5.316-24.145,5.316-33.355,0-4.316-2.492-6.586-5.711-6.855-8.977h-.055v-.652l0,0,.016-.219c.156-2.023,1.07-17.668-6.9-28.48-8.535-11.578-24.48-15.324-25.039-46.262H486.7" fill="#f5ba1b"/>
    <path id="Path_122" data-name="Path 122" d="M446.156,595.5s-1.3,3.7-5.328,14.273S438.7,647.1,438.7,647.1l6.855.473a24.782,24.782,0,0,0,2.324-1.16c4.605-2.66,6.906-6.145,6.906-9.629l-.016-.227c-.16-2.039-1.062-17.668,6.9-28.477,8.531-11.578,24.48-15.324,25.039-46.262h-6.078L446.156,595.5" fill="#e59c13"/>
    <path id="Path_123" data-name="Path 123" d="M391.945,584.48c21.68,12.516,56.824,12.516,78.5,0s21.68-32.809,0-45.32-56.82-12.516-78.5,0-21.68,32.8,0,45.32" fill="#fad644"/>
    <path id="Path_124" data-name="Path 124" d="M391.945,584.48c21.68,12.516,56.824,12.516,78.5,0,10.219-5.9,15.617-13.527,16.2-21.254.656,8.664-4.738,17.453-16.2,24.07-21.676,12.516-56.82,12.516-78.5,0-11.457-6.617-16.852-15.4-16.2-24.066.586,7.723,5.98,15.352,16.2,21.25" fill="#fff"/>
    <path id="Path_125" data-name="Path 125" d="M398.258,580.84c18.191,10.5,47.688,10.5,65.879,0s18.2-27.535,0-38.039-47.687-10.5-65.879,0-18.2,27.535,0,38.039" fill="#efae15"/>
    <path id="Path_126" data-name="Path 126" d="M398.258,580.84c7.621,4.4,17.234,6.934,27.168,7.645a6.449,6.449,0,0,0,1.406-6.3c-4.836-14.5-2.965-44.531-2.965-44.531L415.1,536.6a57.852,57.852,0,0,0-16.844,6.2c-18.2,10.5-18.2,27.535,0,38.039" fill="#e59c13"/>
    <path id="Path_127" data-name="Path 127" d="M464.141,545.188c-18.2-10.5-47.691-10.5-65.883,0-8.574,4.949-13.1,11.348-13.6,17.828-.559-7.277,3.973-14.66,13.6-20.215,18.191-10.5,47.688-10.5,65.879,0,9.625,5.555,14.152,12.934,13.6,20.211-.5-6.48-5.023-12.875-13.594-17.824" fill="#fff"/>
    <path id="Path_128" data-name="Path 128" d="M454,585.27a77.334,77.334,0,0,1-45.613,0c.484-.32.98-.641,1.512-.949,11.762-6.789,30.828-6.789,42.59,0,.531.309,1.027.625,1.512.949" fill="#e59c13"/>
    <path id="Path_129" data-name="Path 129" d="M407.629,636.563c.02-.246.051-.691.074-1.3.355,3.184,2.6,6.313,6.816,8.746,9.211,5.316,24.145,5.316,33.355,0,4.121-2.383,6.395-5.422,6.824-8.535.023.492.047.867.066,1.082l.016.227c0,3.484-2.3,6.969-6.906,9.629-9.211,5.316-24.145,5.316-33.355,0-4.316-2.492-6.586-5.711-6.855-8.977h-.055v-.652l0,0,.016-.219" fill="#fff"/>
    <path id="Path_130" data-name="Path 130" d="M400.352,623.094s-2.918-1.469-4.707.719-4.352,7.359-4.43,10.852,2.766,3.258,4.453,2.434,6.629-7.992,6.93-9.395a4.89,4.89,0,0,0-.828-3.672c-.477-.371-1.418-.937-1.418-.937" fill="#263c7a"/>
    <path id="Path_131" data-name="Path 131" d="M400.988,622.391l.133,3.023a1.707,1.707,0,0,1-.852,1.57,3.364,3.364,0,0,1-2.25.352c-2.2-.355-2.391-.98-2.551-4s5.52-.941,5.52-.941" fill="#e59c13"/>
    <path id="Path_132" data-name="Path 132" d="M389.676,617.285s-2.914-1.469-4.707.719-4.352,7.359-4.43,10.852,2.766,3.258,4.453,2.434,6.629-7.992,6.93-9.395a4.873,4.873,0,0,0-.828-3.672c-.477-.371-1.418-.937-1.418-.937" fill="#263c7a"/>
    <path id="Path_133" data-name="Path 133" d="M390.313,616.582l.137,3.023a1.717,1.717,0,0,1-.855,1.57,3.343,3.343,0,0,1-2.25.348c-2.2-.352-2.391-.977-2.547-4s5.516-.941,5.516-.941" fill="#e59c13"/>
    <path id="Path_134" data-name="Path 134" d="M416.336,561.113c-.863-14.043-15.211,2.066-15.211,2.066l-9.816,9.625-8.844,9.711a8.716,8.716,0,0,0-2.2,7l3.578,27.234a2.675,2.675,0,0,0,2.684,2.324,9.277,9.277,0,0,0,1.324-.117,3.321,3.321,0,0,0,2.953-3.527l-.652-25.473,18.566-11.2s8.477-3.609,7.613-17.652" fill="#fad644"/>
    <path id="Path_135" data-name="Path 135" d="M403.98,573.375s-11.113,12.25-11.734,15.668S403.98,585.9,403.98,585.9l8.457-13.812-8.457,1.289" fill="#e59c13"/>
    <path id="Path_136" data-name="Path 136" d="M427.012,566.465c-.867-14.043-15.211,2.066-15.211,2.066l-9.82,9.625-8.84,9.711a8.707,8.707,0,0,0-2.2,7L394.52,622.1a2.678,2.678,0,0,0,2.684,2.328,9.279,9.279,0,0,0,1.328-.117,3.328,3.328,0,0,0,2.953-3.531l-.652-25.469,18.566-11.2s8.473-3.609,7.613-17.652" fill="#fad644"/>
    <path id="Path_137" data-name="Path 137" d="M418.523,521.383c10.875,4.512,10.656,10.941,10.656,10.941s-2.129,23.57-1.4,39.309c.3,6.582-34.961,7.082-29.7-10.473,6.2-20.7,3.879-37.457,6.781-39.984s10.855-.957,13.668.207" fill="#7844a6"/>
    <path id="Path_138" data-name="Path 138" d="M422.02,527.086c-.566,2.207-3.461,3.371-6.461,2.6s-4.969-3.187-4.4-5.4,3.461-3.371,6.461-2.6,4.973,3.191,4.4,5.4" fill="#fab6a9"/>
    <path id="Path_139" data-name="Path 139" d="M415.758,521.969c-2.02,0-3.707.938-4.1,2.445-.5,1.93,1.313,4.066,4.027,4.766a6.192,6.192,0,0,0,3.82-.16,2.9,2.9,0,0,0,1.25-4.844,6.191,6.191,0,0,0-3.27-1.984A6.922,6.922,0,0,0,415.758,521.969Zm1.656,8.477a7.931,7.931,0,0,1-1.984-.258c-3.273-.844-5.414-3.547-4.777-6.031s3.824-3.816,7.1-2.973a7.256,7.256,0,0,1,3.813,2.336,3.933,3.933,0,0,1-1.668,6.465,6.654,6.654,0,0,1-2.48.461" fill="#fff"/>
    <path id="Path_140" data-name="Path 140" d="M414.16,520.895a25.891,25.891,0,0,1-.094,3.883c-.059,1.082,3.734,2.094,4.715,1.113s.59-2,.824-5.687-5.445.691-5.445.691" fill="#fab6a9"/>
    <path id="Path_141" data-name="Path 141" d="M419.605,520.2s-.934,3.418-5.539,4.73l.07-3.105,5.469-1.625" fill="#eb8b8a"/>
    <path id="Path_142" data-name="Path 142" d="M422.523,511.516a8.372,8.372,0,1,1-10.2-6.008,8.373,8.373,0,0,1,10.2,6.008" fill="#fab6a9"/>
    <path id="Path_143" data-name="Path 143" d="M416.344,513.922s-4.613,1.973-7.8,1.992-2.488-2.648-2.488-2.648l9.477-1.367.816,2.023" fill="#eb8b8a"/>
    <path id="Path_144" data-name="Path 144" d="M407.59,514.441s4.016-1.707,7.539-1a3.71,3.71,0,0,1,2.129,1.266,1.222,1.222,0,0,0,.641.465c.625.141,1.648-2.449,2.863-2.508s2.023.8,1.027,2.395-.656,3.375-.2,3.633,5.316-3.465,1.031-11.953-15.172-3.918-16.863-2.2c0,0-1.785,1.551-3.238.168,0,0-1.625,12.18,5.07,9.727" fill="#ee1696"/>
    <path id="Path_145" data-name="Path 145" d="M399.535,519.453l-5.852-2.52a2.589,2.589,0,0,1-1.422-1.535l-5.777-16.738-2.676.465,4.668,20.828a3.517,3.517,0,0,0,1.707,2.293l9.738,5.469-.387-8.262" fill="#fab6a9"/>
    <path id="Path_146" data-name="Path 146" d="M460.383,522.176l1.34-.613a10.9,10.9,0,0,0,3.082-2.129l.934-.922a1.807,1.807,0,0,0,.395-1.992,1,1,0,0,0-1.367-.5l-2.8,1.418s.438-1.242.227-1.562-2.379,2.07-3.383,3.766,1.578,2.539,1.578,2.539" fill="#fab6a9"/>
    <path id="Path_147" data-name="Path 147" d="M437.039,528.871l5-.559a8.828,8.828,0,0,0,3.363-1.09l13.4-7.586,1.578,2.539-13.7,10.578a6.109,6.109,0,0,1-1.379.809l-8.168,3.5-.094-8.187" fill="#fab6a9"/>
    <path id="Path_149" data-name="Path 149" d="M411.1,519.379l-2.164-.6a5.235,5.235,0,0,0,2.539,2.039c1.508.414,1.742-.859,1.742-.859l-2.117-.582" fill="#fff"/>
    <path id="Path_150" data-name="Path 150" d="M407.855,519.973s-9.77-1.93-12.754-2.836-4.227,7.289-4,9.367,10.383,4.391,11.59,7.953,5.164-14.484,5.164-14.484" fill="#7844a6"/>
    <path id="Path_151" data-name="Path 151" d="M422.793,523.57s7.141,3.063,19.09,4.559a1.278,1.278,0,0,1,1.063.844,14.13,14.13,0,0,1,.633,7.18,2.64,2.64,0,0,1-2.613,2.078c-3.742-.027-11.789.332-13.1,3.828-1.711,4.582-5.074-18.488-5.074-18.488" fill="#7844a6"/>
    <path id="Path_152" data-name="Path 152" d="M513.938,536.965l1.293,1.844-5.359,3.762-1.3-1.844,5.363-3.762" fill="#fad644"/>
    <path id="Path_153" data-name="Path 153" d="M515.848,532.867l1.3,1.848-5.363,3.762-1.293-1.848,5.359-3.762" fill="#fad644"/>
    <path id="Path_154" data-name="Path 154" d="M517.762,528.773l1.293,1.844-5.359,3.762-1.3-1.848,5.363-3.758" fill="#fad644"/>
    <path id="Path_155" data-name="Path 155" d="M519.676,524.676l1.293,1.844-5.359,3.762-1.3-1.844,5.363-3.762" fill="#fad644"/>
    <path id="Path_158" data-name="Path 158" d="M551.086,582.688l1.594-.727,2.105,4.629-1.594.723-2.105-4.625" fill="#ee1696"/>
    <path id="Path_159" data-name="Path 159" d="M548.234,580.645l1.594-.727,2.105,4.625-1.594.727-2.105-4.625" fill="#ee1696"/>
    <path id="Path_160" data-name="Path 160" d="M546.543,513.605l-1.281-1.852,2.016-1.4,1.285,1.855-2.02,1.395" fill="#ee1696"/>
    <path id="Path_161" data-name="Path 161" d="M535.672,509.375l-1.281-1.855,2.02-1.395,1.281,1.855-2.02,1.395" fill="#8e54b0"/>
    <path id="Path_162" data-name="Path 162" d="M540.3,556.738l1.012-1.723a2.483,2.483,0,0,0,1.762.18,3.425,3.425,0,0,0,1.871-1.953,6.006,6.006,0,0,1,6.684-3.672l-.48,1.941.238-.969-.23.973c-.289-.066-2.887-.562-4.41,2.594a5.264,5.264,0,0,1-3.113,3,4.41,4.41,0,0,1-3.332-.375" fill="#8e54b0"/>
    <path id="Path_163" data-name="Path 163" d="M301.6,760.688c11.746,6.781,30.793,6.781,42.539,0s11.75-17.777,0-24.559-30.793-6.785-42.539,0-11.746,17.777,0,24.559" fill="#d9effb"/>
    <path id="Path_164" data-name="Path 164" d="M308.516,740.965a4.646,4.646,0,0,0-2.617,4.641,7.726,7.726,0,0,0,.383,2.273c.539,1.129,2.3,2.684,5.125,1.566s9.082-7,9.316-10.848c.438-7.156-7.746.465-12.207,2.367" fill="#263c7a"/>
    <path id="Path_165" data-name="Path 165" d="M325.09,752.8s-.68,4.125-.352,4.883,2.293,2.367,5.191,2.02,11.242-3.227,13.1-8.723c2.879-8.523-16.105.637-16.105.637L325.09,752.8" fill="#263c7a"/>
    <path id="Path_166" data-name="Path 166" d="M333.238,686.848l.648,64.4a4.516,4.516,0,0,1-3.508,4.465c-.246.043-.508.074-.785.1a4.015,4.015,0,0,1-3.828-1.586,4.693,4.693,0,0,1-.859-2.6l-.824-27.492-4.105-24.582-5.676,43.5a3.761,3.761,0,0,1-1.562,2.867,4.36,4.36,0,0,1-2.59.7,4.772,4.772,0,0,1-3.441-1.7,3.447,3.447,0,0,1-.82-2.332l2.25-26.176.836-33.391,24.266,3.809" fill="#fad644"/>
    <path id="Path_167" data-name="Path 167" d="M324.9,629.2l-1.016,5.871a2.691,2.691,0,0,0,2.2,2.559c2.234.555,2.93-.891,2.93-.891l1.008-6.609-5.117-.93" fill="#fab6a9"/>
    <path id="Path_168" data-name="Path 168" d="M336.977,629.426c-2.414,4.688-7.75,6.727-11.914,4.563s-5.582-7.723-3.164-12.406,7.754-6.727,11.918-4.562,5.578,7.723,3.16,12.406" fill="#fab6a9"/>
    <path id="Path_169" data-name="Path 169" d="M325.164,635.176c-.152-.062-9.484-6.07-12.934.219-5.625,10.25-5.293,43.25-3.516,47.523,1.641,3.953,5.746,6.871,8.621,8.516a17.227,17.227,0,0,0,8.371,2.379c2.914.023,8.5-2.57,8.3-6.379-.934-17.531.617-32.309,2.051-46.645,0,0-1.789-1.926-10.895-5.613" fill="#7844a6"/>
    <path id="Path_170" data-name="Path 170" d="M319.977,699.559l-5.676,43.5a3.761,3.761,0,0,1-1.562,2.867,4.035,4.035,0,0,1-.484.273c1.18-.887,4.621-37.4,5.258-41.465s2.465-5.18,2.465-5.18" fill="#d67f1c"/>
    <path id="Path_171" data-name="Path 171" d="M355,637.113l5.07-16.605-2.676-1.113-5.977,13.016,3.582,4.7" fill="#fab6a9"/>
    <path id="Path_172" data-name="Path 172" d="M303.895,624.023l3.8-17.285,3.023.031-1.133,14.336-5.691,2.918" fill="#fab6a9"/>
    <path id="Path_173" data-name="Path 173" d="M336.059,640.789s9.105,1.816,14.9-8.789a1.436,1.436,0,0,1,2.4-.254c.93,1.414,2.16,3.582,1.523,5.926-2.82,10.363-18.133,12.656-20.883,18.668s2.059-15.551,2.059-15.551" fill="#7844a6"/>
    <path id="Path_174" data-name="Path 174" d="M319.246,633.023s-7.215.555-8.25-5.691a47.887,47.887,0,0,1-.727-6.242,1.259,1.259,0,0,0-1.414-1.223c-1.727.215-4.4.73-4.766,1.887-.543,1.73-1.562,10.211,5.563,23.219,4.668,8.523,9.594-11.949,9.594-11.949" fill="#7844a6"/>
    <path id="Path_175" data-name="Path 175" d="M307.68,606.777l.066-1.969a4.12,4.12,0,0,1,.59-1.969l2-3.281.52-.656a1.517,1.517,0,0,1,2-.344l.461.289a1.892,1.892,0,0,1,.879,1.719l-1.035,2.8,1.309-.254a.47.47,0,0,1,.547.375.463.463,0,0,1-.285.512l-2.133.863-1.941,2.742-2.973-.832" fill="#fab6a9"/>
    <path id="Path_176" data-name="Path 176" d="M360.145,620.594l.605-1.875a4.032,4.032,0,0,0,.113-2.055L360.1,612.9l-.266-.793a1.519,1.519,0,0,0-1.762-1l-.531.117a1.88,1.88,0,0,0-1.41,1.316l.02,2.988-1.145-.68a.463.463,0,0,0-.547.742l1.715,1.535,1,3.641,2.969-.172" fill="#fab6a9"/>
    <path id="Path_177" data-name="Path 177" d="M331.789,653.348c-.828,3.789,1.5,33.188-6.082,40.465,2.914.023,8.5-2.57,8.3-6.379a233.545,233.545,0,0,1,.7-32.238c2.977-3.855,11.156-6.309,16.277-11.25-.375.117-18.367,5.656-19.191,9.4" fill="#623da1"/>
    <path id="Path_178" data-name="Path 178" d="M321.809,633.52l1.3-1.332s2.133,2.18,3.844,2.555a20.012,20.012,0,0,0,3.066.637l.836,2.3s-6.789-.484-9.043-4.156" fill="#fff"/>
    <path id="Path_179" data-name="Path 179" d="M330.953,628.547a1.089,1.089,0,0,0,.961-.3c.434-.445.613-2.8,1.758-3,1.785-.309,5.41,2.48,6.879-3.512.766-3.113-.625-4.215-.32-5.941,0,0-.016.887-8.035-1.051s-11.895,4.816-12.68,8.211-.094,9.328,5.316,11.059c.9.285,5.293-2.156,5.262-2.578s-1.488-.652-1.074-1.8a1.545,1.545,0,0,1,1.934-1.078" fill="#263c7a"/>
    <path id="Path_180" data-name="Path 180" d="M422.656,515.918a1.043,1.043,0,1,1-1.043-1.043,1.042,1.042,0,0,1,1.043,1.043" fill="#fff"/>
    <path id="Path_182" data-name="Path 182" d="M412.9,784.8v-7.953l14.605-8.434v7.953L412.9,784.8" fill="#e59c13"/>
    <path id="Path_183" data-name="Path 183" d="M412.9,776.852,398.3,768.418v7.953L412.9,784.8v-7.953" fill="#f5ba1b"/>
    <path id="Path_184" data-name="Path 184" d="M427.508,768.418,412.9,759.984,398.3,768.418l14.605,8.434,14.605-8.434" fill="#fad644"/>
    <path id="Path_185" data-name="Path 185" d="M310,587.285l-12.227-7.059-12.227,7.059,12.227,7.059L310,587.285" fill="#d9effb"/>
    <path id="Path_186" data-name="Path 186" d="M297.777,587.8v-7.953l14.609-8.434v7.953L297.777,587.8" fill="#d1078d"/>
    <path id="Path_187" data-name="Path 187" d="M297.777,579.844l-14.605-8.434v7.953l14.605,8.434v-7.953" fill="#d1078d"/>
    <path id="Path_188" data-name="Path 188" d="M312.387,571.41l-14.609-8.434-14.605,8.434,14.605,8.434,14.609-8.434" fill="#ee1696"/>
    <path id="Path_189" data-name="Path 189" d="M505.426,633.586a4.5,4.5,0,1,0,4.5,4.5A4.5,4.5,0,0,0,505.426,633.586Zm0,11a6.5,6.5,0,1,1,6.5-6.5,6.508,6.508,0,0,1-6.5,6.5" fill="#fad644"/>
    <path id="Path_190" data-name="Path 190" d="M240.7,653.32l2.648,5.383,5.383-2.645-2.645-5.387Zm1.738,8.063-4.414-8.977L247,648l4.41,8.973-8.973,4.414" fill="#ee1696"/>
    <path id="Path_191" data-name="Path 191" d="M382.551,726.359a7.166,7.166,0,1,0,7.168,7.164A7.174,7.174,0,0,0,382.551,726.359Zm0,16.332a9.166,9.166,0,1,1,9.168-9.168,9.179,9.179,0,0,1-9.168,9.168" fill="#ee1696"/>
    <path id="Path_192" data-name="Path 192" d="M381.008,739.566a6.625,6.625,0,1,1-6.625-6.625,6.623,6.623,0,0,1,6.625,6.625" fill="#fad644"/>
    <path id="Path_193" data-name="Path 193" d="M513.035,766.852l-15.023-8.68-15.027,8.68,15.027,8.672,15.023-8.672" fill="#d9effb"/>
    <path id="Path_194" data-name="Path 194" d="M502.379,755.336V701.293l12.766-7.367v54.043l-12.766,7.367" fill="#623da1"/>
    <path id="Path_195" data-name="Path 195" d="M502.379,701.293l-12.766-7.367v54.043l12.766,7.367V701.293" fill="#8e54b0"/>
    <path id="Path_196" data-name="Path 196" d="M515.145,693.926l-12.766-7.371-12.766,7.371,12.766,7.367,12.766-7.367" fill="#6f41a4"/>
    <path id="Path_197" data-name="Path 197" d="M515.145,757.793l-12.766-7.371v4.914l12.766,7.371v-4.914" fill="#8cd147"/>
    <path id="Path_198" data-name="Path 198" d="M489.613,762.707V723.4l12.766-7.371v39.3l-12.766,7.371" fill="#c23222"/>
    <path id="Path_199" data-name="Path 199" d="M489.613,723.4l-12.762-7.371v39.3l12.762,7.371V723.4" fill="#dc4220"/>
    <path id="Path_200" data-name="Path 200" d="M502.379,716.031l-12.766-7.367-12.762,7.367,12.762,7.371,12.766-7.371" fill="#ef4b26"/>
    <path id="Path_201" data-name="Path 201" d="M489.613,762.707V723.4l12.766-7.371v39.3l-12.766,7.371" fill="#d1078d"/>
    <path id="Path_202" data-name="Path 202" d="M489.613,723.4l-12.762-7.371v39.3l12.762,7.371V723.4" fill="#d1078d"/>
    <path id="Path_203" data-name="Path 203" d="M502.379,716.031l-12.766-7.367-12.762,7.367,12.762,7.371,12.766-7.371" fill="#ee1696"/>
    <path id="Path_204" data-name="Path 204" d="M502.379,770.074V747.969l12.766-7.371v22.109l-12.766,7.367" fill="#e59c13"/>
    <path id="Path_205" data-name="Path 205" d="M502.379,747.969,489.613,740.6v22.109l12.766,7.367V747.969" fill="#f5ba1b"/>
    <path id="Path_206" data-name="Path 206" d="M515.145,740.6l-12.766-7.367L489.613,740.6l12.766,7.371,12.766-7.371" fill="#fad644"/>
  </g>
</svg>
